<svg width="60" height="29" viewBox="0 0 60 29" fill="none" xmlns="http://www.w3.org/2000/svg">
<path d="M27.0849 20V18.86L30.7899 15.08C31.7799 14.09 32.2749 13.24 32.2749 12.53C32.2749 11.94 32.0949 11.48 31.7349 11.15C31.3749 10.82 30.9349 10.655 30.4149 10.655C29.4249 10.655 28.7049 11.125 28.2549 12.065L27.0849 11.375C27.4149 10.695 27.8699 10.18 28.4499 9.83C29.0399 9.48 29.6899 9.305 30.3999 9.305C31.2799 9.305 32.0449 9.595 32.6949 10.175C33.3449 10.755 33.6699 11.535 33.6699 12.515C33.6699 13.575 33.0449 14.73 31.7949 15.98L29.1099 18.65H33.8649V20H27.0849Z" fill="#C4C4C4"/>
<circle cx="30.5" cy="14.5" r="14" stroke="#C4C4C4" stroke-dasharray="2 2"/>
<circle cx="1" cy="16" r="1" fill="#C4C4C4"/>
<circle cx="6" cy="16" r="1" fill="#C4C4C4"/>
<circle cx="11" cy="16" r="1" fill="#C4C4C4"/>
<circle cx="49" cy="16" r="1" fill="#C4C4C4"/>
<circle cx="54" cy="16" r="1" fill="#C4C4C4"/>
<circle cx="59" cy="16" r="1" fill="#C4C4C4"/>
</svg>
