<svg width="60" height="29" viewBox="0 0 60 29" fill="none" xmlns="http://www.w3.org/2000/svg">
<path d="M31.2263 13.805C32.0263 13.955 32.6813 14.3 33.1913 14.84C33.7013 15.38 33.9563 16.065 33.9563 16.895C33.9563 17.915 33.6063 18.72 32.9063 19.31C32.2063 19.9 31.3563 20.195 30.3563 20.195C29.5563 20.195 28.8463 20.015 28.2263 19.655C27.6063 19.285 27.1663 18.755 26.9063 18.065L28.0763 17.375C28.3863 18.345 29.1463 18.83 30.3563 18.83C31.0063 18.83 31.5363 18.66 31.9463 18.32C32.3563 17.98 32.5613 17.505 32.5613 16.895C32.5613 16.285 32.3563 15.81 31.9463 15.47C31.5363 15.12 31.0063 14.945 30.3563 14.945H29.9963L29.4413 14.09L31.8713 10.805H27.2063V9.5H33.5063V10.73L31.2263 13.805Z" fill="#C4C4C4"/>
<circle cx="30.5" cy="14.5" r="14" stroke="#C4C4C4" stroke-dasharray="2 2"/>
<circle cx="1" cy="16" r="1" fill="#C4C4C4"/>
<circle cx="6" cy="16" r="1" fill="#C4C4C4"/>
<circle cx="11" cy="16" r="1" fill="#C4C4C4"/>
<circle cx="49" cy="16" r="1" fill="#C4C4C4"/>
<circle cx="54" cy="16" r="1" fill="#C4C4C4"/>
<circle cx="59" cy="16" r="1" fill="#C4C4C4"/>
</svg>
