<svg width="28" height="23" viewBox="0 0 28 23" fill="none" xmlns="http://www.w3.org/2000/svg">
<path d="M16.6601 9.65922C18.4801 9.65922 19.6001 7.47422 19.6001 6.09422C19.6001 4.94422 18.9001 3.56422 17.5001 3.56422C15.6801 3.56422 14.5601 5.74922 14.5601 7.12922C14.5601 8.27922 15.2601 9.65922 16.6601 9.65922ZM11.3401 9.65922C12.7401 9.65922 13.4401 8.27922 13.4401 7.12922C13.4401 5.63422 12.3201 3.44922 10.5001 3.44922C9.10012 3.44922 8.40012 4.82922 8.40012 5.97922C8.26012 7.47422 9.38012 9.65922 11.3401 9.65922ZM21.7001 8.50922C19.8801 8.50922 18.6201 10.5792 18.6201 12.0742C18.6201 13.1092 19.1801 14.1442 20.4401 14.1442C22.2601 14.1442 23.5201 12.0742 23.5201 10.5792C23.5201 9.54422 22.8201 8.50922 21.7001 8.50922ZM9.52012 12.0742C9.52012 10.5792 8.12012 8.50922 6.44012 8.50922C5.18012 8.50922 4.62012 9.54422 4.62012 10.5792C4.62012 12.0742 6.02012 14.1442 7.70012 14.1442C8.96012 14.1442 9.52012 13.1092 9.52012 12.0742ZM14.0001 11.8442C11.2001 11.8442 7.42012 15.5242 7.42012 18.0542C7.42012 19.2042 8.40012 19.5492 9.52012 19.5492C11.2001 19.5492 12.4601 18.6292 14.0001 18.6292C15.4001 18.6292 16.6601 19.5492 18.2001 19.5492C19.3201 19.5492 20.5801 19.3192 20.5801 18.0542C20.5801 15.5242 16.8001 11.8442 14.0001 11.8442Z" fill="#00BF13"/>
</svg>
