<svg width="25" height="25" viewBox="0 0 25 25" fill="none" xmlns="http://www.w3.org/2000/svg">
<path d="M20.795 5.25942L20.7954 5.25981L2.9251 7.12149C3.2256 6.42338 3.66016 5.79101 4.20416 5.26024L4.20484 5.25957C4.75248 4.7232 5.38957 4.30225 6.09702 4.00935L6.09756 4.00913C6.82943 3.70512 7.60402 3.55177 8.40576 3.55177C9.51792 3.55177 10.6021 3.85627 11.5438 4.43077L11.5438 4.43077C11.7691 4.56821 11.9828 4.71894 12.185 4.88297L12.5 5.13844L12.815 4.88297C13.0172 4.71894 13.2309 4.56821 13.4562 4.43077L13.4562 4.43077C14.3979 3.85627 15.4821 3.55177 16.5942 3.55178L16.5954 3.55177C17.3871 3.54995 18.1713 3.70541 18.9024 4.00913L18.9031 4.00939C19.608 4.30105 20.2502 4.72541 20.795 5.25942ZM22.5342 6.92384L22.0749 7.12149C22.0749 7.12156 22.075 7.12164 22.075 7.12172C22.0751 7.12184 22.0751 7.12196 22.0752 7.12209L22.5342 6.92384ZM20.9568 13.8768C20.1833 15.03 19.1105 16.2459 17.7639 17.4891C15.5271 19.5524 13.314 20.977 13.2287 21.0317L13.2286 21.0318L12.651 21.4022C12.6509 21.4023 12.6508 21.4023 12.6508 21.4024C12.5585 21.4611 12.4388 21.4611 12.3466 21.4022L11.769 21.0318L11.769 21.0317L11.7611 21.0268C11.7613 21.0269 11.7587 21.0253 11.7521 21.0211L11.7273 21.0053C11.7065 20.9919 11.6777 20.9731 11.6414 20.9493C11.5687 20.9015 11.4667 20.8336 11.3394 20.7469C11.0848 20.5736 10.7296 20.3256 10.3071 20.0145C9.46127 19.3918 8.34925 18.5193 7.23375 17.4891L7.2337 17.4891C5.88717 16.2459 4.81443 15.0302 4.04089 13.877L20.9568 13.8768ZM2.45312 9.41163C2.45312 8.61798 2.61253 7.84783 2.92508 7.12153L4.04073 13.8768C3.55283 13.1484 3.17612 12.4347 2.91574 11.755C2.60515 10.9428 2.45312 10.1562 2.45312 9.41163Z" fill="white" fill-opacity="0.4" stroke="white"/>
</svg>
