<svg width="9" height="16" viewBox="0 0 9 16" fill="none" xmlns="http://www.w3.org/2000/svg">
<path d="M7.00019 1.00006C7.23385 0.999602 7.46028 1.08098 7.64019 1.23006C7.74145 1.31401 7.82515 1.41711 7.88651 1.53346C7.94786 1.6498 7.98565 1.77711 7.99773 1.90809C8.00981 2.03906 7.99592 2.17114 7.95688 2.29674C7.91784 2.42234 7.8544 2.53901 7.77019 2.64006L3.29019 8.00006L7.61019 13.3701C7.69326 13.4723 7.75529 13.59 7.79272 13.7164C7.83015 13.8427 7.84225 13.9752 7.82831 14.1062C7.81437 14.2373 7.77467 14.3643 7.7115 14.4799C7.64832 14.5955 7.56292 14.6975 7.46019 14.7801C7.35673 14.8711 7.23556 14.9398 7.1043 14.9818C6.97304 15.0237 6.83451 15.0381 6.69742 15.0241C6.56033 15.01 6.42762 14.9677 6.30764 14.8999C6.18766 14.8321 6.08299 14.7402 6.00019 14.6301L1.17019 8.63006C1.02311 8.45113 0.942707 8.22668 0.942707 7.99506C0.942707 7.76343 1.02311 7.53899 1.17019 7.36006L6.17019 1.36006C6.27051 1.23904 6.39795 1.14338 6.54216 1.08083C6.68636 1.01828 6.84329 0.990608 7.00019 1.00006Z" fill="#3D86F5"/>
</svg>
