<svg width="15" height="20" viewBox="0 0 15 20" fill="none" xmlns="http://www.w3.org/2000/svg">
<path d="M0.430999 10.8226C0.297758 10.7308 0.188815 10.6081 0.113553 10.4649C0.0382917 10.3217 -0.0010324 10.1623 -0.00103239 10.0006C-0.00103239 9.83878 0.0382918 9.67944 0.113554 9.53624C0.188815 9.39305 0.297758 9.27029 0.430999 9.17855L13.431 0.178551C13.5809 0.0743755 13.7566 0.0132858 13.9388 0.00191684C14.121 -0.00945212 14.3029 0.0293351 14.4646 0.114065C14.6263 0.198795 14.7618 0.326227 14.8561 0.482515C14.9505 0.638804 15.0003 0.817971 15 1.00055L15 19.0006C14.9992 19.1827 14.9489 19.3612 14.8542 19.5169C14.7596 19.6725 14.6244 19.7994 14.463 19.884C14.3017 19.9685 14.1203 20.0075 13.9385 19.9966C13.7566 19.9858 13.5812 19.9256 13.431 19.8226L0.430999 10.8226Z" fill="#3D86F5"/>
</svg>
