<svg width="4" height="8" viewBox="0 0 4 8" fill="none" xmlns="http://www.w3.org/2000/svg">
<path d="M3.90553 3.75078L0.511125 0.0950727C0.454488 0.0340447 0.379241 4.01648e-08 0.300992 4.10328e-08C0.222743 4.19008e-08 0.147497 0.0340447 0.0908599 0.0950728L0.0872052 0.0992035C0.0596533 0.128789 0.0377145 0.1644 0.0227227 0.203871C0.00773096 0.243343 3.66437e-09 0.285849 4.21502e-09 0.328804C4.76567e-09 0.371759 0.00773097 0.414265 0.0227227 0.453736C0.0377145 0.493208 0.0596533 0.528819 0.0872052 0.558404L3.28366 4.00069L0.0872053 7.4416C0.0596534 7.47118 0.0377146 7.50679 0.0227228 7.54626C0.00773106 7.58573 9.77883e-08 7.62824 9.8339e-08 7.6712C9.88896e-08 7.71415 0.00773106 7.75666 0.0227228 7.79613C0.0377146 7.8356 0.0596534 7.87121 0.0872053 7.9008L0.09086 7.90493C0.147497 7.96596 0.222743 8 0.300992 8C0.379241 8 0.454488 7.96596 0.511125 7.90493L3.90553 4.24922C3.93538 4.21707 3.95915 4.17841 3.97539 4.13557C3.99163 4.09273 4 4.04661 4 4C4 3.95339 3.99163 3.90727 3.97539 3.86443C3.95915 3.82159 3.93538 3.78293 3.90553 3.75078Z" fill="#404040"/>
</svg>
