<svg width="15" height="20" viewBox="0 0 15 20" fill="none" xmlns="http://www.w3.org/2000/svg">
<path d="M14.569 10.8226C14.7022 10.7308 14.8112 10.6081 14.8864 10.4649C14.9617 10.3217 15.001 10.1623 15.001 10.0006C15.001 9.83878 14.9617 9.67944 14.8864 9.53624C14.8112 9.39305 14.7022 9.27029 14.569 9.17855L1.569 0.178551C1.41906 0.0743755 1.24343 0.0132858 1.06121 0.00191684C0.878979 -0.00945212 0.697122 0.0293351 0.535393 0.114065C0.373664 0.198795 0.238248 0.326227 0.143857 0.482515C0.0494672 0.638804 -0.000287182 0.817971 4.09231e-07 1.00055L1.19604e-06 19.0006C0.000753613 19.1827 0.0511478 19.3612 0.145764 19.5169C0.24038 19.6725 0.375639 19.7994 0.536994 19.884C0.698349 19.9685 0.879696 20.0075 1.06153 19.9966C1.24337 19.9858 1.41881 19.9256 1.569 19.8226L14.569 10.8226Z" fill="#3D86F5"/>
</svg>
