<svg width="6" height="15" viewBox="0 0 6 15" fill="none" xmlns="http://www.w3.org/2000/svg">
<path d="M5.8583 6.98395L0.766688 0.607719C0.681732 0.501275 0.568862 0.441895 0.451488 0.441895C0.334115 0.441895 0.221246 0.501275 0.13629 0.607719L0.130808 0.614924C0.0894804 0.666526 0.056572 0.728639 0.0340843 0.797484C0.0115967 0.866329 5.11307e-09 0.940468 5.88142e-09 1.01539C6.64977e-09 1.09031 0.0115967 1.16445 0.0340843 1.23329C0.056572 1.30214 0.0894804 1.36425 0.130808 1.41586L4.92549 7.41984L0.130808 13.4214C0.0894805 13.473 0.0565721 13.5351 0.0340845 13.604C0.0115968 13.6728 1.36449e-07 13.747 1.37217e-07 13.8219C1.37985e-07 13.8968 0.0115968 13.9709 0.0340845 14.0398C0.0565721 14.1086 0.0894805 14.1707 0.130808 14.2224L0.13629 14.2296C0.221246 14.336 0.334115 14.3954 0.451489 14.3954C0.568862 14.3954 0.681732 14.336 0.766688 14.2296L5.8583 7.85333C5.90308 7.79725 5.93872 7.72981 5.96308 7.65509C5.98744 7.58037 6 7.49993 6 7.41864C6 7.33735 5.98744 7.2569 5.96308 7.18218C5.93872 7.10746 5.90308 7.04002 5.8583 6.98395Z" fill="#404040"/>
</svg>
