<svg width="18" height="18" viewBox="0 0 18 18" fill="none" xmlns="http://www.w3.org/2000/svg">
<g clip-path="url(#clip0_360_95)">
<path d="M4.44661 0.555827C4.44661 0.408412 4.38805 0.267036 4.28382 0.162798C4.17958 0.0585602 4.0382 0 3.89079 0C3.74337 0 3.602 0.0585602 3.49776 0.162798C3.39352 0.267036 3.33496 0.408412 3.33496 0.555827V1.11165H2.22331C1.63365 1.11165 1.06814 1.34589 0.651192 1.76285C0.234241 2.1798 0 2.7453 0 3.33496L0 4.44661H17.7865V3.33496C17.7865 2.7453 17.5522 2.1798 17.1353 1.76285C16.7183 1.34589 16.1528 1.11165 15.5632 1.11165H14.4515V0.555827C14.4515 0.408412 14.3929 0.267036 14.2887 0.162798C14.1845 0.0585602 14.0431 0 13.8957 0C13.7483 0 13.6069 0.0585602 13.5026 0.162798C13.3984 0.267036 13.3398 0.408412 13.3398 0.555827V1.11165H4.44661V0.555827ZM17.7865 15.5632V5.55827H0V15.5632C0 16.1528 0.234241 16.7183 0.651192 17.1353C1.06814 17.5522 1.63365 17.7865 2.22331 17.7865H15.5632C16.1528 17.7865 16.7183 17.5522 17.1353 17.1353C17.5522 16.7183 17.7865 16.1528 17.7865 15.5632ZM13.8957 7.78158H15.0073C15.1547 7.78158 15.2961 7.84014 15.4004 7.94437C15.5046 8.04861 15.5632 8.18999 15.5632 8.3374V9.44906C15.5632 9.59647 15.5046 9.73785 15.4004 9.84208C15.2961 9.94632 15.1547 10.0049 15.0073 10.0049H13.8957C13.7483 10.0049 13.6069 9.94632 13.5026 9.84208C13.3984 9.73785 13.3398 9.59647 13.3398 9.44906V8.3374C13.3398 8.18999 13.3984 8.04861 13.5026 7.94437C13.6069 7.84014 13.7483 7.78158 13.8957 7.78158Z" fill="#404040"/>
</g>
<defs>
<clipPath id="clip0_360_95">
<rect width="17.7865" height="17.7865" fill="white"/>
</clipPath>
</defs>
</svg>
