<svg width="24" height="24" viewBox="0 0 24 24" fill="none" xmlns="http://www.w3.org/2000/svg">
<path d="M5 20C3.58333 20 2.396 19.5207 1.438 18.562C0.479333 17.604 0 16.4167 0 15C0 13.5833 0.487667 12.396 1.463 11.438C2.43767 10.4793 3.61667 10 5 10C6.28333 10 7.36267 10.3833 8.238 11.15C9.11267 11.9167 9.66667 12.8667 9.9 14H10.55L8.75 9H8C7.71667 9 7.479 8.904 7.287 8.712C7.09567 8.52067 7 8.28333 7 8C7 7.71667 7.09567 7.479 7.287 7.287C7.479 7.09567 7.71667 7 8 7H11C11.2833 7 11.521 7.09567 11.713 7.287C11.9043 7.479 12 7.71667 12 8C12 8.28333 11.9043 8.52067 11.713 8.712C11.521 8.904 11.2833 9 11 9H10.9L11.25 10H16.05L14.6 6H13C12.7167 6 12.4793 5.90433 12.288 5.713C12.096 5.521 12 5.28333 12 5C12 4.71667 12.096 4.479 12.288 4.287C12.4793 4.09567 12.7167 4 13 4H14.6C15.0333 4 15.421 4.11667 15.763 4.35C16.1043 4.58333 16.35 4.9 16.5 5.3L18.2 9.95H19C20.3833 9.95 21.5627 10.4373 22.538 11.412C23.5127 12.3873 24 13.5667 24 14.95C24 16.35 23.5167 17.5417 22.55 18.525C21.5833 19.5083 20.4 20 19 20C17.8 20 16.746 19.625 15.838 18.875C14.9293 18.125 14.35 17.1667 14.1 16H9.9C9.66667 17.15 9.1 18.1043 8.2 18.863C7.3 19.621 6.23333 20 5 20ZM12.7 14H14.1C14.1833 13.6167 14.296 13.2583 14.438 12.925C14.5793 12.5917 14.7667 12.2833 15 12H11.95L12.7 14ZM18.95 15C19.2 14.9167 19.3877 14.746 19.513 14.488C19.6377 14.2293 19.65 13.9667 19.55 13.7L18.9 12L17.05 12.7L17.65 14.4C17.7333 14.65 17.9043 14.8333 18.163 14.95C18.421 15.0667 18.6833 15.0833 18.95 15ZM6 16H7.8V14H6C5.71667 14 5.479 14.0957 5.287 14.287C5.09567 14.479 5 14.7167 5 15C5 15.2833 5.09567 15.5207 5.287 15.712C5.479 15.904 5.71667 16 6 16Z" fill="#FFD500"/>
</svg>
