<svg width="24" height="24" viewBox="0 0 24 24" fill="none" xmlns="http://www.w3.org/2000/svg">
<path d="M9.431 12.8226C9.29776 12.7308 9.18882 12.6081 9.11355 12.4649C9.03829 12.3217 8.99897 12.1623 8.99897 12.0006C8.99897 11.8388 9.03829 11.6794 9.11355 11.5362C9.18882 11.393 9.29776 11.2703 9.431 11.1786L22.431 2.17855C22.5809 2.07438 22.7566 2.01329 22.9388 2.00192C23.121 1.99055 23.3029 2.02934 23.4646 2.11407C23.6263 2.1988 23.7618 2.32623 23.8561 2.48252C23.9505 2.6388 24.0003 2.81797 24 3.00055L24 21.0006C23.9992 21.1827 23.9489 21.3612 23.8542 21.5169C23.7596 21.6725 23.6244 21.7994 23.463 21.884C23.3017 21.9685 23.1203 22.0075 22.9385 21.9966C22.7566 21.9858 22.5812 21.9256 22.431 21.8226L9.431 12.8226Z" fill="#3D86F5"/>
</svg>
