<svg width="24" height="24" viewBox="0 0 24 24" fill="none" xmlns="http://www.w3.org/2000/svg">
<path d="M14.569 12.8226C14.7022 12.7308 14.8112 12.6081 14.8864 12.4649C14.9617 12.3217 15.001 12.1623 15.001 12.0006C15.001 11.8388 14.9617 11.6794 14.8864 11.5362C14.8112 11.393 14.7022 11.2703 14.569 11.1786L1.569 2.17855C1.41906 2.07438 1.24343 2.01329 1.06121 2.00192C0.878979 1.99055 0.697122 2.02934 0.535393 2.11407C0.373664 2.1988 0.238248 2.32623 0.143857 2.48252C0.0494672 2.6388 -0.000287182 2.81797 4.09231e-07 3.00055L1.19604e-06 21.0006C0.000753613 21.1827 0.0511478 21.3612 0.145764 21.5169C0.24038 21.6725 0.375639 21.7994 0.536994 21.884C0.698349 21.9685 0.879696 22.0075 1.06153 21.9966C1.24337 21.9858 1.41881 21.9256 1.569 21.8226L14.569 12.8226Z" fill="#3D86F5"/>
</svg>
