<svg width="31" height="24" viewBox="0 0 31 24" fill="none" xmlns="http://www.w3.org/2000/svg">
<g clip-path="url(#clip0_401_7)">
<path d="M10.4466 3.55583C10.4466 3.40841 10.3881 3.26704 10.2838 3.1628C10.1796 3.05856 10.0382 3 9.89079 3C9.74337 3 9.602 3.05856 9.49776 3.1628C9.39352 3.26704 9.33496 3.40841 9.33496 3.55583V4.11165H8.22331C7.63365 4.11165 7.06814 4.34589 6.65119 4.76285C6.23424 5.1798 6 5.7453 6 6.33496V7.44661H23.7865V6.33496C23.7865 5.7453 23.5522 5.1798 23.1353 4.76285C22.7183 4.34589 22.1528 4.11165 21.5631 4.11165H20.4515V3.55583C20.4515 3.40841 20.3929 3.26704 20.2887 3.1628C20.1845 3.05856 20.0431 3 19.8957 3C19.7483 3 19.6069 3.05856 19.5026 3.1628C19.3984 3.26704 19.3398 3.40841 19.3398 3.55583V4.11165H10.4466V3.55583ZM23.7865 18.5631V8.55827H6V18.5631C6 19.1528 6.23424 19.7183 6.65119 20.1353C7.06814 20.5522 7.63365 20.7865 8.22331 20.7865H21.5631C22.1528 20.7865 22.7183 20.5522 23.1353 20.1353C23.5522 19.7183 23.7865 19.1528 23.7865 18.5631ZM19.8957 10.7816H21.0073C21.1547 10.7816 21.2961 10.8401 21.4004 10.9444C21.5046 11.0486 21.5631 11.19 21.5631 11.3374V12.4491C21.5631 12.5965 21.5046 12.7378 21.4004 12.8421C21.2961 12.9463 21.1547 13.0049 21.0073 13.0049H19.8957C19.7483 13.0049 19.6069 12.9463 19.5026 12.8421C19.3984 12.7378 19.3398 12.5965 19.3398 12.4491V11.3374C19.3398 11.19 19.3984 11.0486 19.5026 10.9444C19.6069 10.8401 19.7483 10.7816 19.8957 10.7816Z" fill="#3D86F5"/>
</g>
<defs>
<clipPath id="clip0_401_7">
<rect width="17.7865" height="17.7865" fill="white" transform="translate(6 3)"/>
</clipPath>
</defs>
</svg>
