<svg width="31" height="24" viewBox="0 0 31 24" fill="none" xmlns="http://www.w3.org/2000/svg">
<g clip-path="url(#clip0_401_7)">
<g clip-path="url(#clip1_401_7)">
<path d="M5.7613 9.75087L7.32607 5.28158C7.92503 3.56919 9.54048 2.42285 11.3547 2.42285H19.412C21.2262 2.42285 22.8403 3.56919 23.4406 5.28158L25.0058 9.75087C26.0374 10.1777 26.7667 11.196 26.7667 12.3833V20.9208C26.7667 21.7078 26.1308 22.3437 25.3437 22.3437H23.9208C23.1338 22.3437 22.4979 21.7078 22.4979 20.9208V18.7864H8.26875V20.9208C8.26875 21.7078 7.63155 22.3437 6.84583 22.3437H5.42292C4.6372 22.3437 4 21.7078 4 20.9208V12.3833C4 11.196 4.72747 10.1777 5.7613 9.75087ZM8.85126 9.53743H21.9154L20.7548 6.22026C20.5547 5.65109 20.0167 5.26868 19.412 5.26868H11.3547C10.75 5.26868 10.2119 5.65109 10.0118 6.22026L8.85126 9.53743ZM8.26875 12.3833C7.48303 12.3833 6.84583 13.0191 6.84583 13.8062C6.84583 14.5932 7.48303 15.2291 8.26875 15.2291C9.0558 15.2291 9.69167 14.5932 9.69167 13.8062C9.69167 13.0191 9.0558 12.3833 8.26875 12.3833ZM22.4979 15.2291C23.285 15.2291 23.9208 14.5932 23.9208 13.8062C23.9208 13.0191 23.285 12.3833 22.4979 12.3833C21.7109 12.3833 21.075 13.0191 21.075 13.8062C21.075 14.5932 21.7109 15.2291 22.4979 15.2291Z" fill="#3D86F5"/>
</g>
</g>
<defs>
<clipPath id="clip0_401_7">
<rect width="30.61" height="23.48" fill="white"/>
</clipPath>
<clipPath id="clip1_401_7">
<rect width="22.7667" height="22.7667" fill="white" transform="translate(4 1)"/>
</clipPath>
</defs>
</svg>
