<svg width="22" height="22" viewBox="0 0 22 22" fill="none" xmlns="http://www.w3.org/2000/svg">
<path d="M19.8602 11.2546C19.9214 11.0538 19.9737 10.8504 20.0169 10.645C20.0197 10.6294 20.0206 10.6147 20.0243 10.5992C20.0426 10.5093 20.0508 10.4167 20.0655 10.326C20.0884 10.1821 20.1159 10.0391 20.1297 9.89424C20.2388 8.81381 20.1059 7.72265 19.7408 6.69996C19.3756 5.67728 18.7873 4.74873 18.0186 3.98174C17.3382 3.29993 16.5299 2.75922 15.64 2.39065C14.7501 2.02208 13.7962 1.8329 12.833 1.83399V9.16732H5.97359L5.18709 7.33399H1.83301V9.16732H3.97892L5.65459 13.0778C5.06713 13.3199 4.56466 13.7308 4.21075 14.2585C3.85684 14.7861 3.66738 15.4069 3.66634 16.0423C3.66634 17.8115 5.10551 19.2507 6.87467 19.2507C8.48709 19.2507 9.81167 18.0507 10.0363 16.5007H11.9631C12.1877 18.0507 13.5123 19.2507 15.1247 19.2507C16.8938 19.2507 18.333 17.8115 18.333 16.0423C18.333 15.4648 18.1671 14.9304 17.8994 14.4611C17.9379 14.4235 17.981 14.3905 18.0195 14.352C18.3495 14.0211 18.6502 13.6562 18.9151 13.2667C19.1791 12.8725 19.4064 12.4545 19.5898 12.0209C19.6044 11.987 19.6136 11.9512 19.6273 11.9173H19.6283L19.642 11.8788C19.7227 11.6772 19.796 11.4746 19.8574 11.2665L19.8602 11.2546ZM6.87467 17.4173C6.11659 17.4173 5.49967 16.8004 5.49967 16.0423C5.49967 15.2842 6.11659 14.6673 6.87467 14.6673C7.63276 14.6673 8.24967 15.2842 8.24967 16.0423C8.24967 16.8004 7.63276 17.4173 6.87467 17.4173ZM15.1247 17.4173C14.3666 17.4173 13.7497 16.8004 13.7497 16.0423C13.7497 15.2842 14.3666 14.6673 15.1247 14.6673C15.8828 14.6673 16.4997 15.2842 16.4997 16.0423C16.4997 16.8004 15.8828 17.4173 15.1247 17.4173Z" fill="#00BF13"/>
</svg>
