<svg width="34" height="27" viewBox="0 0 34 27" fill="none" xmlns="http://www.w3.org/2000/svg">
<path d="M30.0044 1.15817C30.2134 0.944913 30.4628 0.7755 30.7381 0.659845C31.0134 0.54419 31.309 0.484619 31.6076 0.484619C31.9062 0.484619 32.2018 0.54419 32.4771 0.659845C32.7524 0.7755 33.0018 0.944913 33.2108 1.15817C34.0867 2.04323 34.099 3.47342 33.2415 4.37379L15.1329 25.7807C14.9273 26.0064 14.6778 26.1879 14.3997 26.3139C14.1215 26.44 13.8206 26.5079 13.5153 26.5136C13.21 26.5194 12.9067 26.4628 12.6241 26.3473C12.3414 26.2318 12.0853 26.0598 11.8713 25.8419L0.85246 14.676C0.427498 14.2427 0.189453 13.6599 0.189453 13.0529C0.189453 12.4459 0.427498 11.8632 0.85246 11.4298C1.06146 11.2165 1.31091 11.0471 1.5862 10.9315C1.86149 10.8158 2.15708 10.7562 2.45568 10.7562C2.75427 10.7562 3.04987 10.8158 3.32516 10.9315C3.60045 11.0471 3.84989 11.2165 4.0589 11.4298L13.4056 20.9021L29.9431 1.22554C29.9622 1.20187 29.9826 1.17938 30.0044 1.15817Z" fill="#3D86F5"/>
</svg>
