<svg width="23" height="23" viewBox="0 0 23 23" fill="none" xmlns="http://www.w3.org/2000/svg">
<path d="M7.66667 17.25H8.625C8.89653 17.25 9.12429 17.158 9.30829 16.974C9.49165 16.7906 9.58333 16.5632 9.58333 16.2917V13.4167C9.85486 13.4167 10.0826 13.3247 10.2666 13.1407C10.45 12.9573 10.5417 12.7299 10.5417 12.4583V11.0208C10.5417 10.4937 10.3542 10.0424 9.97913 9.66671C9.60346 9.29168 9.15208 9.10417 8.625 9.10417H7.66667C7.13958 9.10417 6.68853 9.29168 6.3135 9.66671C5.93783 10.0424 5.75 10.4937 5.75 11.0208V12.4583C5.75 12.7299 5.84168 12.9573 6.02504 13.1407C6.20904 13.3247 6.43681 13.4167 6.70833 13.4167V16.2917C6.70833 16.5632 6.80001 16.7906 6.98338 16.974C7.16738 17.158 7.39514 17.25 7.66667 17.25ZM8.14583 8.14583C8.48125 8.14583 8.7646 8.02987 8.99587 7.79796C9.22779 7.56668 9.34375 7.28333 9.34375 6.94792C9.34375 6.6125 9.22779 6.32883 8.99587 6.09692C8.7646 5.86564 8.48125 5.75 8.14583 5.75C7.81042 5.75 7.52707 5.86564 7.29579 6.09692C7.06387 6.32883 6.94792 6.6125 6.94792 6.94792C6.94792 7.28333 7.06387 7.56668 7.29579 7.79796C7.52707 8.02987 7.81042 8.14583 8.14583 8.14583ZM13.3208 10.5417H16.3875C16.5792 10.5417 16.7191 10.4618 16.8073 10.3021C16.8948 10.1424 16.8906 9.97465 16.7948 9.79896L15.2615 7.35521C15.2295 7.30729 15.0938 7.23542 14.8542 7.13958C14.7743 7.13958 14.6983 7.15556 14.6261 7.1875C14.5545 7.21944 14.4948 7.27535 14.4469 7.35521L12.9135 9.79896C12.8177 9.97465 12.8139 10.1424 12.902 10.3021C12.9896 10.4618 13.1292 10.5417 13.3208 10.5417ZM14.8542 15.8604C14.934 15.8604 15.0101 15.8444 15.0822 15.8125C15.1538 15.7806 15.2135 15.7247 15.2615 15.6448L16.7948 13.201C16.8906 13.0253 16.8948 12.8576 16.8073 12.6979C16.7191 12.5382 16.5792 12.4583 16.3875 12.4583H13.3208C13.1292 12.4583 12.9896 12.5382 12.902 12.6979C12.8139 12.8576 12.8177 13.0253 12.9135 13.201L14.4469 15.6448C14.4788 15.6927 14.6146 15.7646 14.8542 15.8604ZM4.79167 20.125C4.26458 20.125 3.81321 19.9375 3.43754 19.5625C3.06251 19.1868 2.875 18.7354 2.875 18.2083V4.79167C2.875 4.26458 3.06251 3.81321 3.43754 3.43754C3.81321 3.06251 4.26458 2.875 4.79167 2.875H18.2083C18.7354 2.875 19.1868 3.06251 19.5625 3.43754C19.9375 3.81321 20.125 4.26458 20.125 4.79167V18.2083C20.125 18.7354 19.9375 19.1868 19.5625 19.5625C19.1868 19.9375 18.7354 20.125 18.2083 20.125H4.79167Z" fill="#FFD500"/>
</svg>
