<svg width="613" height="336" viewBox="0 0 613 336" fill="none" xmlns="http://www.w3.org/2000/svg">
<path d="M0.500244 230.352C0.500253 285 52.4385 321.525 101.5 315.5C187 305 175 186.999 244.5 218.5C274.664 232.172 319.5 248.044 327 249C435.5 262.831 390 -19.0012 537.5 20.9988C685 60.9988 595.5 326.848 334.561 230.352C73.621 133.856 0.500235 175.705 0.500244 230.352Z" stroke="#C1C1C1" stroke-linecap="round" stroke-linejoin="round" stroke-dasharray="2 2"/>
<g clip-path="url(#clip0_2_38)">
<path d="M104.106 306.562L101.078 307.657L106.843 314.131L106.554 322.796L109.582 321.701L110.967 316.064L118.06 313.498L118.059 327.195L120.926 326.158L126.108 310.588L132.163 308.396C132.568 308.258 132.941 308.04 133.26 307.756C133.58 307.472 133.839 307.127 134.024 306.742C134.209 306.356 134.315 305.938 134.337 305.511C134.358 305.084 134.294 304.657 134.149 304.255C134.003 303.853 133.779 303.484 133.49 303.169C133.2 302.855 132.851 302.601 132.462 302.423C132.073 302.245 131.653 302.146 131.226 302.132C130.798 302.118 130.373 302.189 129.973 302.342L123.758 304.59L109.815 295.937L107.106 296.918L115.741 307.491L108.776 310.01L104.106 306.562Z" fill="#FFE14A"/>
</g>
<g clip-path="url(#clip1_2_38)">
<path d="M463.314 18.9082L465.117 20.9406C465.782 21.6901 465.7 22.8446 464.934 23.5241L463.493 24.8026C464.869 27.0167 464.459 29.9983 462.399 31.8258C460.338 33.6533 457.329 33.7048 455.295 32.0743L449.642 37.0885C451.019 39.3026 450.609 42.2842 448.548 44.1117C446.488 45.9392 443.481 45.9892 441.446 44.3591L440.004 45.6387C439.239 46.3171 438.081 46.2618 437.417 45.5124L433.21 40.7701C432.192 39.6227 432.052 37.9992 432.727 36.6893L430.621 30.685C429.883 28.5819 430.514 26.2139 432.211 24.7089L440.084 17.7251C441.348 16.604 443.002 16.1404 444.684 16.3712L453.706 17.8232C456.699 15.7051 460.866 16.1476 463.281 18.8701L463.314 18.9082ZM434.615 27.4187C434.048 27.9217 433.808 28.6715 434.084 29.4101L435.624 33.7871L440.502 29.4602L436.896 25.3954L434.615 27.4187ZM442.579 27.6173L450.084 20.9599L444.021 19.9832C443.476 19.8918 442.873 20.0933 442.488 20.435L438.973 23.5525L442.579 27.6173ZM461.355 26.6993C461.207 26.3842 461.081 26.1553 460.871 25.9181C459.875 24.7961 458.137 24.7112 456.99 25.7286C455.843 26.7461 455.72 28.4819 456.716 29.6039C456.926 29.841 457.099 30.0277 457.433 30.1777C458.418 30.7119 459.691 30.5958 460.596 29.7934C461.5 28.991 461.768 27.7402 461.355 26.6993ZM447.504 38.9851C447.356 38.6701 447.231 38.4411 447.02 38.204C446.025 37.082 444.287 36.9971 443.14 38.0145C441.993 39.0319 441.87 40.7677 442.865 41.8898C443.075 42.1269 443.249 42.3136 443.583 42.4636C444.567 42.9977 445.841 42.8817 446.746 42.0793C447.65 41.2769 447.917 40.0261 447.504 38.9851Z" fill="#FFE14A"/>
</g>
<g clip-path="url(#clip2_2_38)">
<path d="M601.639 30.0621L579.011 11.9595C577.628 10.8532 575.591 11.0796 574.485 12.4624L566.439 22.5197L567.697 23.5254C567.163 24.1922 566.916 25.0437 567.011 25.8924C567.105 26.7411 567.533 27.5176 568.199 28.0511C568.866 28.5846 569.718 28.8313 570.566 28.7369C571.415 28.6426 572.192 28.215 572.725 27.5482L587.811 39.6165C587.278 40.2834 587.031 41.1348 587.125 41.9836C587.22 42.8323 587.647 43.6088 588.314 44.1423C588.981 44.6757 589.832 44.9224 590.681 44.8281C591.53 44.7338 592.306 44.3062 592.84 43.6393L594.097 44.645L602.142 34.5878C602.676 33.9209 602.923 33.0695 602.828 32.2208C602.734 31.372 602.306 30.5955 601.639 30.0621ZM579.011 22.2681L573.982 18.2453L576.999 14.4738L582.028 18.4966L579.011 22.2681ZM589.068 30.3137L581.525 24.2795L584.542 20.508L592.085 26.5422L589.068 30.3137ZM596.611 36.3478L591.582 32.3251L594.599 28.5536L599.628 32.5764L596.611 36.3478Z" fill="#FFE561"/>
</g>
<defs>
<clipPath id="clip0_2_38">
<rect width="38.6383" height="38.6383" fill="white" transform="translate(108.543 284.145) rotate(25.114)"/>
</clipPath>
<clipPath id="clip1_2_38">
<rect width="37.0284" height="28.9787" fill="white" transform="translate(423.595 29.9307) rotate(-41.5744)"/>
</clipPath>
<clipPath id="clip2_2_38">
<rect width="38.6383" height="38.6383" fill="white" transform="translate(582.279 0.142334) rotate(38.659)"/>
</clipPath>
</defs>
</svg>
