<svg width="32" height="28" viewBox="0 0 32 28" fill="none" xmlns="http://www.w3.org/2000/svg">
<path d="M31.9889 13.9727C31.9889 14.957 31.1556 15.7281 30.2111 15.7281H28.4333L28.4722 24.4836C28.4722 24.6367 28.4611 24.7789 28.4444 24.9266V25.8125C28.4444 27.0211 27.45 28 26.2222 28H25.3333C25.2722 28 25.2111 27.9508 25.15 27.9945C25.0722 27.9508 24.9944 28 24.9167 28H21.7778C20.55 28 19.5556 27.0211 19.5556 25.8125V21C19.5556 20.032 18.7611 19.25 17.7778 19.25H14.2222C13.2389 19.25 12.4444 20.032 12.4444 21V25.8125C12.4444 27.0211 11.45 28 10.2222 28H7.11667C7.03333 28 6.95 27.9945 6.86667 27.9891C6.8 27.9945 6.73333 28 6.66667 28H5.77778C4.55056 28 3.55556 27.0211 3.55556 25.8125V19.6875C3.55556 19.6383 3.55722 19.5836 3.56056 19.5344V15.7281H1.78056C0.778889 15.7281 0 14.957 0 13.9727C0 13.4805 0.166889 13.043 0.556111 12.6602L14.8 0.438375C15.1889 0.0547969 15.6333 0 16.0222 0C16.4111 0 16.8556 0.109594 17.1944 0.383578L31.3778 12.6602C31.8222 13.043 32.05 13.4805 31.9889 13.9727Z" fill="#E7E7E7"/>
</svg>
