<svg width="21" height="18" viewBox="0 0 21 18" fill="none" xmlns="http://www.w3.org/2000/svg">
<g clip-path="url(#clip0_360_97)">
<path d="M20.9927 9.88599C20.9927 10.5188 20.4458 11.0145 19.826 11.0145H18.6594L18.6849 16.643C18.6849 16.7415 18.6776 16.8329 18.6667 16.9278V17.4973C18.6667 18.2743 18.0141 18.9036 17.2083 18.9036H16.625C16.5849 18.9036 16.5448 18.8719 16.5047 18.9C16.4536 18.8719 16.4026 18.9036 16.3516 18.9036H14.2917C13.4859 18.9036 12.8333 18.2743 12.8333 17.4973V14.4036C12.8333 13.7813 12.312 13.2786 11.6667 13.2786H9.33333C8.68802 13.2786 8.16667 13.7813 8.16667 14.4036V17.4973C8.16667 18.2743 7.51406 18.9036 6.70833 18.9036H4.67031C4.61563 18.9036 4.56094 18.9 4.50625 18.8965C4.4625 18.9 4.41875 18.9036 4.375 18.9036H3.79167C2.9863 18.9036 2.33333 18.2743 2.33333 17.4973V13.5598C2.33333 13.5282 2.33443 13.493 2.33661 13.4614V11.0145H1.16849C0.511146 11.0145 0 10.5188 0 9.88599C0 9.56958 0.109521 9.28833 0.364948 9.04224L9.7125 1.18538C9.96771 0.938791 10.2594 0.903564 10.5146 0.903564C10.7698 0.903564 11.0615 0.974018 11.2839 1.15015L20.5917 9.04224C20.8833 9.28833 21.0328 9.56958 20.9927 9.88599Z" fill="#404040"/>
</g>
<defs>
<clipPath id="clip0_360_97">
<rect width="21" height="18" fill="white"/>
</clipPath>
</defs>
</svg>
