<svg width="23" height="19" viewBox="0 0 23 19" fill="none" xmlns="http://www.w3.org/2000/svg">
<path d="M19.7954 2.25981L19.795 2.25942C19.2502 1.72541 18.608 1.30105 17.9031 1.00939L17.9024 1.00913C17.1713 0.70541 16.3871 0.549951 15.5954 0.551774L15.5942 0.551776C14.4821 0.551775 13.3979 0.856269 12.4562 1.43077L12.4562 1.43077C12.2309 1.56821 12.0172 1.71894 11.815 1.88297L11.5 2.13844L11.185 1.88297C10.9828 1.71894 10.7691 1.56821 10.5438 1.43077L10.5438 1.43077C9.60208 0.856269 8.51792 0.551775 7.40576 0.551775C6.60402 0.551775 5.82943 0.705124 5.09756 1.00913L5.09702 1.00935C4.38957 1.30225 3.75248 1.7232 3.20484 2.25957L3.20416 2.26024C2.66016 2.79101 2.2256 3.42338 1.9251 4.12149L19.7954 2.25981ZM19.7954 2.25981C20.3389 2.79138 20.7735 3.42382 21.075 4.12172C21.3875 4.84797 21.5467 5.61759 21.5444 6.41022V6.41163C21.5444 7.15616 21.3924 7.94285 21.0818 8.755L21.0814 8.75613C20.824 9.43415 20.4454 10.1474 19.9568 10.8768C19.1833 12.03 18.1105 13.2459 16.7639 14.4891C14.5271 16.5524 12.314 17.977 12.2287 18.0317L12.2286 18.0318L11.651 18.4022C11.6508 18.4023 11.6507 18.4024 11.6505 18.4025C11.5584 18.461 11.4391 18.461 11.347 18.4025C11.3469 18.4024 11.3467 18.4023 11.3466 18.4022L10.769 18.0318L10.769 18.0317L10.7611 18.0268C10.7613 18.0269 10.7587 18.0253 10.7521 18.0211L10.7273 18.0053C10.7065 17.9919 10.6777 17.9731 10.6414 17.9493C10.5687 17.9015 10.4667 17.8336 10.3394 17.7469C10.0848 17.5736 9.72965 17.3256 9.30711 17.0145C8.46127 16.3918 7.34925 15.5193 6.23375 14.4891L6.2337 14.4891M19.7954 2.25981L6.2337 14.4891M6.2337 14.4891C4.88717 13.2459 3.81443 12.0302 3.04089 10.877L6.2337 14.4891ZM1.45312 6.41163C1.45312 5.61798 1.61253 4.84783 1.92508 4.12153L3.04073 10.8768C2.55283 10.1484 2.17612 9.43467 1.91574 8.755C1.60515 7.94285 1.45312 7.15616 1.45312 6.41163Z" fill="white" fill-opacity="0.4" stroke="white"/>
</svg>
