<svg width="24" height="24" viewBox="0 0 24 24" fill="none" xmlns="http://www.w3.org/2000/svg">
<path d="M6.40032 7.99922V7.19922C6.40032 6.13835 6.82175 5.12094 7.5719 4.37079C8.32204 3.62065 9.33946 3.19922 10.4003 3.19922C11.4612 3.19922 12.4786 3.62065 13.2288 4.37079C13.9789 5.12094 14.4003 6.13835 14.4003 7.19922V16.468L18.1843 12.684L17.6291 10.612L17.6275 10.6024H17.6259C17.5805 10.4321 17.5927 10.2515 17.6604 10.0888C17.7282 9.9261 17.8478 9.79032 18.0007 9.70257C18.1536 9.61482 18.3311 9.58002 18.5058 9.60357C18.6805 9.62713 18.8425 9.70772 18.9667 9.83282L22.1667 13.0328C22.2912 13.1569 22.3714 13.3185 22.3948 13.4927C22.4183 13.6668 22.3837 13.8439 22.2965 13.9965C22.2093 14.149 22.0743 14.2686 21.9123 14.3368C21.7503 14.405 21.5704 14.4179 21.4003 14.3736L21.3843 14.3688L19.3155 13.8152L14.4003 18.7304V19.1992C14.4003 19.6236 14.2318 20.0305 13.9317 20.3306C13.6316 20.6306 13.2247 20.7992 12.8003 20.7992H8.00032C7.57598 20.7992 7.16901 20.6306 6.86895 20.3306C6.5689 20.0305 6.40032 19.6236 6.40032 19.1992V18.4568L2.77152 14.828C2.02232 14.0772 1.60156 13.0599 1.60156 11.9992C1.60156 10.9386 2.02232 9.92122 2.77152 9.17042C3.14266 8.79851 3.58363 8.50359 4.06908 8.3026C4.55453 8.10161 5.07491 7.99851 5.60032 7.99922H6.40032ZM6.40032 9.59922H5.60032C5.12549 9.599 4.66126 9.73964 4.26639 10.0033C3.87151 10.267 3.56373 10.642 3.38199 11.0806C3.20025 11.5193 3.15272 12.002 3.24541 12.4677C3.33811 12.9334 3.56686 13.3612 3.90272 13.6968L6.40032 16.1928V9.59922ZM12.8003 7.99922V7.19922C12.8003 6.5627 12.5475 5.95225 12.0974 5.50216C11.6473 5.05208 11.0368 4.79922 10.4003 4.79922C9.7638 4.79922 9.15336 5.05208 8.70327 5.50216C8.25318 5.95225 8.00032 6.5627 8.00032 7.19922V7.99922H12.8003Z" fill="#FFD500"/>
</svg>
