<svg width="13" height="13" viewBox="0 0 13 13" fill="none" xmlns="http://www.w3.org/2000/svg">
<path d="M4.34932 4.15919L6.12382 0.6435C6.1579 0.572775 6.21115 0.51304 6.27752 0.471095C6.34388 0.429151 6.42069 0.406683 6.4992 0.40625C6.64788 0.40625 6.79657 0.485063 6.87701 0.6435L8.65151 4.15919L12.6311 4.72469C12.7303 4.74028 12.8211 4.78961 12.8882 4.86436C12.9552 4.93911 12.9944 5.0347 12.9992 5.135C13.0049 5.20178 12.9954 5.26897 12.9715 5.33157C12.9476 5.39418 12.9098 5.45058 12.8611 5.49656L9.99863 8.22331L10.673 12.0664C10.7364 12.4264 10.3805 12.7083 10.0669 12.5474L6.4992 10.7144L2.93313 12.5474C2.89583 12.5668 2.85585 12.5805 2.81451 12.5881C2.53663 12.6368 2.27176 12.3817 2.32701 12.0664L3.00138 8.22331L0.139759 5.49656C0.0952709 5.45447 0.0599092 5.40369 0.0358688 5.34736C0.0118284 5.29103 -0.000377485 5.23037 8.89447e-06 5.16913C5.11549e-05 5.08254 0.0239462 4.99764 0.0690714 4.92375C0.101083 4.87018 0.144714 4.82448 0.196746 4.79003C0.248778 4.75558 0.307882 4.73325 0.369696 4.72469L4.34932 4.15919ZM6.4992 9.77194C6.56478 9.77167 6.62946 9.78728 6.6877 9.81744L9.68257 11.3563L9.1187 8.14125C9.10538 8.06731 9.11042 7.99123 9.13337 7.91969C9.15632 7.84815 9.19648 7.78334 9.25032 7.73094L11.6123 5.48031L8.32001 5.01231C8.25184 5.00202 8.18717 4.97535 8.13156 4.9346C8.07595 4.89384 8.03105 4.84022 8.0007 4.77831L6.50001 1.80619L6.4992 1.80863V9.77112V9.77194Z" fill="#FFD500"/>
</svg>
