<svg width="44" height="44" viewBox="0 0 44 44" fill="none" xmlns="http://www.w3.org/2000/svg">
<path d="M32.0833 8.70833C32.0833 9.55924 31.7453 10.3753 31.1436 10.977C30.5419 11.5786 29.7259 11.9167 28.875 11.9167C28.0241 11.9167 27.208 11.5786 26.6064 10.977C26.0047 10.3753 25.6667 9.55924 25.6667 8.70833C25.6667 7.85743 26.0047 7.04138 26.6064 6.4397C27.208 5.83802 28.0241 5.5 28.875 5.5C29.7259 5.5 30.5419 5.83802 31.1436 6.4397C31.7453 7.04138 32.0833 7.85743 32.0833 8.70833Z" fill="#3D86F5"/>
<path fill-rule="evenodd" clip-rule="evenodd" d="M28.875 10.0833C29.2397 10.0833 29.5894 9.93847 29.8473 9.68061C30.1051 9.42274 30.25 9.07301 30.25 8.70833C30.25 8.34366 30.1051 7.99392 29.8473 7.73606C29.5894 7.4782 29.2397 7.33333 28.875 7.33333C28.5103 7.33333 28.1606 7.4782 27.9027 7.73606C27.6449 7.99392 27.5 8.34366 27.5 8.70833C27.5 9.07301 27.6449 9.42274 27.9027 9.68061C28.1606 9.93847 28.5103 10.0833 28.875 10.0833ZM28.875 11.9167C29.2963 11.9167 29.7135 11.8337 30.1028 11.6724C30.492 11.5112 30.8457 11.2749 31.1436 10.977C31.4416 10.679 31.6779 10.3254 31.8391 9.93611C32.0004 9.54686 32.0833 9.12966 32.0833 8.70833C32.0833 8.28701 32.0004 7.86981 31.8391 7.48056C31.6779 7.0913 31.4416 6.73762 31.1436 6.4397C30.8457 6.14178 30.492 5.90545 30.1028 5.74422C29.7135 5.58299 29.2963 5.5 28.875 5.5C28.0241 5.5 27.2081 5.83802 26.6064 6.4397C26.0047 7.04138 25.6667 7.85743 25.6667 8.70833C25.6667 9.55924 26.0047 10.3753 26.6064 10.977C27.2081 11.5786 28.0241 11.9167 28.875 11.9167ZM17.4167 14.6667C16.9304 14.6667 16.4641 14.8598 16.1203 15.2036C15.7765 15.5475 15.5833 16.0138 15.5833 16.5C15.5833 16.9862 15.7765 17.4525 16.1203 17.7964C16.4641 18.1402 16.9304 18.3333 17.4167 18.3333H23.8333V36.6667C23.8333 37.1529 24.0265 37.6192 24.3703 37.963C24.7141 38.3068 25.1804 38.5 25.6667 38.5C26.1529 38.5 26.6192 38.3068 26.963 37.963C27.3069 37.6192 27.5 37.1529 27.5 36.6667V28.4167H30.25V36.6667C30.25 37.1529 30.4432 37.6192 30.787 37.963C31.1308 38.3068 31.5971 38.5 32.0833 38.5C32.5696 38.5 33.0359 38.3068 33.3797 37.963C33.7235 37.6192 33.9167 37.1529 33.9167 36.6667V25.5906C35.2734 25.3571 36.4933 24.6234 37.3355 23.5344C38.1778 22.4454 38.5811 21.0803 38.466 19.7084C38.3509 18.3366 37.7257 17.0577 36.7137 16.1243C35.7018 15.1909 34.3767 14.6708 33 14.6667H17.4167ZM35.75 20.1667C35.75 19.6804 35.5569 19.2141 35.213 18.8703C34.8692 18.5265 34.4029 18.3333 33.9167 18.3333V22C34.4029 22 34.8692 21.8068 35.213 21.463C35.5569 21.1192 35.75 20.6529 35.75 20.1667Z" fill="#3D86F5"/>
<path fill-rule="evenodd" clip-rule="evenodd" d="M5.5 29.3334C5.5 28.8471 5.69315 28.3808 6.03697 28.037C6.38079 27.6932 6.8471 27.5 7.33333 27.5H19.25C19.7362 27.5 20.2025 27.6932 20.5464 28.037C20.8902 28.3808 21.0833 28.8471 21.0833 29.3334V36.6667C21.0833 37.1529 20.8902 37.6193 20.5464 37.9631C20.2025 38.3069 19.7362 38.5 19.25 38.5H7.33333C6.8471 38.5 6.38079 38.3069 6.03697 37.9631C5.69315 37.6193 5.5 37.1529 5.5 36.6667V29.3334ZM9.16667 35.75V30.25H11V35.75H9.16667ZM15.5833 30.25V35.75H17.4167V30.25H15.5833ZM10.0833 25.6667C10.0833 25.1805 10.2765 24.7142 10.6203 24.3703C10.9641 24.0265 11.4304 23.8334 11.9167 23.8334H14.6667C15.1529 23.8334 15.6192 24.0265 15.963 24.3703C16.3068 24.7142 16.5 25.1805 16.5 25.6667V27.5H14.6667V25.6667H11.9167V27.5H10.0833V25.6667Z" fill="#3D86F5"/>
</svg>
