<svg width="31" height="24" viewBox="0 0 31 24" fill="none" xmlns="http://www.w3.org/2000/svg">
<g clip-path="url(#clip0_401_7)">
<path d="M27.1812 11.651C27.1812 12.4014 26.5512 12.9892 25.8373 12.9892H24.4935L24.5228 19.6633C24.5228 19.78 24.5145 19.8884 24.5019 20.0009V20.6763C24.5019 21.5976 23.7501 22.3438 22.822 22.3438H22.1501C22.1039 22.3438 22.0577 22.3062 22.0115 22.3396C21.9527 22.3062 21.8939 22.3438 21.8351 22.3438H19.4624C18.5342 22.3438 17.7825 21.5976 17.7825 20.6763V17.0078C17.7825 16.27 17.182 15.6738 16.4387 15.6738H13.7509C13.0076 15.6738 12.4071 16.27 12.4071 17.0078V20.6763C12.4071 21.5976 11.6553 22.3438 10.7272 22.3438H8.37966C8.31667 22.3438 8.25368 22.3396 8.19068 22.3354C8.14029 22.3396 8.08989 22.3438 8.0395 22.3438H7.36756C6.43988 22.3438 5.68773 21.5976 5.68773 20.6763V16.0073C5.68773 15.9698 5.68899 15.9281 5.69151 15.8906V12.9892H4.34597C3.58878 12.9892 3 12.4014 3 11.651C3 11.2758 3.12616 10.9424 3.42038 10.6505L14.1877 1.33416C14.4817 1.04177 14.8176 1 15.1116 1C15.4056 1 15.7415 1.08354 15.9977 1.29239L26.7192 10.6505C27.0552 10.9424 27.2274 11.2758 27.1812 11.651Z" fill="#3D86F5"/>
</g>
<defs>
<clipPath id="clip0_401_7">
<rect width="24.1896" height="21.3438" fill="white" transform="translate(3 1)"/>
</clipPath>
</defs>
</svg>
