<svg width="23" height="24" viewBox="0 0 23 24" fill="none" xmlns="http://www.w3.org/2000/svg">
<path d="M11.5 2.34961C9.4039 2.35208 7.39435 3.18585 5.91218 4.66803C4.43 6.1502 3.59623 8.15975 3.59376 10.2559C3.59125 11.9688 4.15078 13.6353 5.18651 14.9996C5.18651 14.9996 5.40213 15.2835 5.43735 15.3245L11.5 22.4746L17.5655 15.3209C17.5972 15.2828 17.8135 14.9996 17.8135 14.9996L17.8142 14.9975C18.8494 13.6337 19.4087 11.968 19.4063 10.2559C19.4038 8.15975 18.57 6.1502 17.0878 4.66803C15.6057 3.18585 13.5961 2.35208 11.5 2.34961ZM11.5 13.1309C10.9314 13.1309 10.3755 12.9622 9.90274 12.6463C9.42995 12.3304 9.06146 11.8814 8.84385 11.3561C8.62625 10.8307 8.56932 10.2527 8.68025 9.69497C8.79118 9.13728 9.065 8.625 9.46708 8.22293C9.86915 7.82085 10.3814 7.54703 10.9391 7.4361C11.4968 7.32517 12.0749 7.3821 12.6002 7.59971C13.1256 7.81731 13.5746 8.1858 13.8905 8.6586C14.2064 9.13139 14.375 9.68724 14.375 10.2559C14.3741 11.0181 14.0709 11.7488 13.5319 12.2877C12.9929 12.8267 12.2622 13.1299 11.5 13.1309Z" fill="#FFD500"/>
</svg>
