<svg width="19" height="15" viewBox="0 0 19 15" fill="none" xmlns="http://www.w3.org/2000/svg">
<path d="M6.10693 12.6136V8.18182H12.2566C12.4366 8.18182 12.6092 8.10998 12.7364 7.98212C12.8637 7.85425 12.9352 7.68083 12.9352 7.5C12.9352 7.31917 12.8637 7.14575 12.7364 7.01788C12.6092 6.89002 12.4366 6.81818 12.2566 6.81818H6.10693V2.38636C6.1076 1.75367 6.35805 1.14708 6.80331 0.699697C7.24857 0.252314 7.85228 0.000676801 8.48197 0H16.625C17.2547 0.000676801 17.8584 0.252314 18.3036 0.699697C18.7489 1.14708 18.9993 1.75367 19 2.38636V12.6136C18.9993 13.2463 18.7489 13.8529 18.3036 14.3003C17.8584 14.7477 17.2547 14.9993 16.625 15H8.48197C7.85228 14.9993 7.24857 14.7477 6.80331 14.3003C6.35805 13.8529 6.1076 13.2463 6.10693 12.6136ZM2.31662 8.18182L4.55085 10.4271C4.67274 10.556 4.73969 10.7277 4.73742 10.9055C4.73516 11.0833 4.66386 11.2531 4.53873 11.3789C4.4136 11.5046 4.24453 11.5762 4.06758 11.5785C3.89064 11.5808 3.7198 11.5135 3.59151 11.3911L0.198595 7.98196C0.0714321 7.85411 0 7.68075 0 7.5C0 7.31925 0.0714321 7.14589 0.198595 7.01804L3.59151 3.60895C3.7198 3.48648 3.89064 3.41921 4.06758 3.42149C4.24453 3.42377 4.4136 3.49541 4.53873 3.62113C4.66386 3.74686 4.73516 3.91673 4.73742 4.09452C4.73969 4.27232 4.67274 4.44396 4.55085 4.57287L2.31662 6.81818H6.10693V8.18182H2.31662Z" fill="#E7E7E7"/>
</svg>
