<svg width="19" height="19" viewBox="0 0 19 19" fill="none" xmlns="http://www.w3.org/2000/svg">
<path d="M3.5625 11.2812C3.5625 11.6078 3.8334 11.875 4.15625 11.875H8.5166L4.9541 8.3125H4.15625C3.8334 8.3125 3.5625 8.5834 3.5625 8.90625V11.2812ZM9.5 0C4.25273 0 0 4.25273 0 9.5C0 14.7473 4.25273 19 9.5 19C14.7473 19 19 14.7473 19 9.5C19 4.25273 14.7473 0 9.5 0ZM9.5 16.625C5.57012 16.625 2.375 13.4288 2.375 9.5C2.375 7.96441 2.8667 6.54053 3.70166 5.37715L13.6247 15.3002C12.4613 16.1352 11.0363 16.625 9.5 16.625ZM11.1773 9.5H14.25V10.6875H12.3645L11.1773 9.5ZM15.3002 13.6229L13.5523 11.875H14.8438C15.1685 11.875 15.4375 11.606 15.4375 11.2812V8.90625C15.4375 8.5834 15.1703 8.3125 14.8438 8.3125H9.98984L5.37715 3.70166C6.54238 2.8667 7.96367 2.375 9.5 2.375C13.4299 2.375 16.625 5.57012 16.625 9.5C16.625 11.0363 16.1352 12.4613 15.3002 13.6229ZM11.8973 4.75C11.3184 4.75 10.8359 4.33437 10.7357 3.78887C10.7061 3.65527 10.5873 3.5625 10.4463 3.5625H9.84326C9.65771 3.5625 9.52319 3.72949 9.54639 3.9104C9.71895 5.05801 10.7061 5.9375 11.8973 5.9375C12.4799 5.9375 12.9623 6.35684 13.0625 6.89863C13.0922 7.03223 13.2109 7.125 13.352 7.125H13.952C14.1376 7.125 14.2752 6.95801 14.2473 6.7771C14.0756 5.62949 13.0922 4.75 11.8973 4.75Z" fill="#F50000"/>
</svg>
