<svg width="19" height="19" viewBox="0 0 19 19" fill="none" xmlns="http://www.w3.org/2000/svg">
<path d="M8.54167 11.4167H9.97917C10.8687 11.4167 11.7219 11.0633 12.3509 10.4343C12.9799 9.80523 13.3333 8.95208 13.3333 8.0625C13.3333 7.17292 12.9799 6.31977 12.3509 5.69075C11.7219 5.06172 10.8687 4.70833 9.97917 4.70833H6.625V14.2917H8.54167V11.4167ZM1.83333 0.875H17.1667C17.4208 0.875 17.6646 0.975967 17.8443 1.15569C18.024 1.33541 18.125 1.57917 18.125 1.83333V17.1667C18.125 17.4208 18.024 17.6646 17.8443 17.8443C17.6646 18.024 17.4208 18.125 17.1667 18.125H1.83333C1.57917 18.125 1.33541 18.024 1.15569 17.8443C0.975967 17.6646 0.875 17.4208 0.875 17.1667V1.83333C0.875 1.57917 0.975967 1.33541 1.15569 1.15569C1.33541 0.975967 1.57917 0.875 1.83333 0.875ZM8.54167 6.625H9.97917C10.3604 6.625 10.726 6.77645 10.9956 7.04603C11.2652 7.31562 11.4167 7.68125 11.4167 8.0625C11.4167 8.44375 11.2652 8.80938 10.9956 9.07897C10.726 9.34855 10.3604 9.5 9.97917 9.5H8.54167V6.625Z" fill="#FFD500"/>
</svg>
