<svg width="21" height="21" viewBox="0 0 21 21" fill="none" xmlns="http://www.w3.org/2000/svg">
<path d="M3.5 15.75C3.01875 15.75 2.60692 15.5788 2.2645 15.2364C1.9215 14.8934 1.75 14.4812 1.75 14V4.375C1.75 3.89375 1.9215 3.48162 2.2645 3.13862C2.60692 2.79621 3.01875 2.625 3.5 2.625H17.5C17.9813 2.625 18.3934 2.79621 18.7364 3.13862C19.0788 3.48162 19.25 3.89375 19.25 4.375V14C19.25 14.4812 19.0788 14.8934 18.7364 15.2364C18.3934 15.5788 17.9813 15.75 17.5 15.75H3.5ZM1.75 18.375C1.50208 18.375 1.29442 18.291 1.127 18.123C0.959 17.9556 0.875 17.7479 0.875 17.5C0.875 17.2521 0.959 17.0444 1.127 16.877C1.29442 16.709 1.50208 16.625 1.75 16.625H19.25C19.4979 16.625 19.7056 16.709 19.873 16.877C20.041 17.0444 20.125 17.2521 20.125 17.5C20.125 17.7479 20.041 17.9556 19.873 18.123C19.7056 18.291 19.4979 18.375 19.25 18.375H1.75Z" fill="#FFD500"/>
</svg>
