<svg width="18" height="18" viewBox="0 0 18 18" fill="none" xmlns="http://www.w3.org/2000/svg">
<path d="M1.5 17.9998C1.5 17.9998 0 17.9998 0 16.4998C0 14.9998 1.5 10.4998 9 10.4998C16.5 10.4998 18 14.9998 18 16.4998C18 17.9998 16.5 17.9998 16.5 17.9998H1.5ZM9 8.99975C10.1935 8.99975 11.3381 8.52565 12.182 7.68174C13.0259 6.83782 13.5 5.69323 13.5 4.49976C13.5 3.30628 13.0259 2.16169 12.182 1.31778C11.3381 0.473862 10.1935 -0.000244141 9 -0.000244141C7.80653 -0.000244141 6.66193 0.473862 5.81802 1.31778C4.97411 2.16169 4.5 3.30628 4.5 4.49976C4.5 5.69323 4.97411 6.83782 5.81802 7.68174C6.66193 8.52565 7.80653 8.99975 9 8.99975Z" fill="#404040"/>
</svg>
