<svg width="21" height="22" viewBox="0 0 21 22" fill="none" xmlns="http://www.w3.org/2000/svg">
<path d="M18.1617 5.54512L15.9776 3.36309C15.8236 3.20834 15.6404 3.08556 15.4388 3.0018C15.2371 2.91804 15.0209 2.87495 14.8025 2.875C14.3575 2.875 13.9392 3.04932 13.6254 3.36309L11.2752 5.71328C11.1205 5.86735 10.9977 6.05047 10.9139 6.25213C10.8302 6.45379 10.7871 6.67002 10.7871 6.88838C10.7871 7.3334 10.9614 7.75176 11.2752 8.06553L12.9938 9.78408C12.5915 10.6708 12.0322 11.4774 11.3429 12.165C10.6553 12.856 9.84873 13.4174 8.96192 13.8221L7.24336 12.1035C7.08929 11.9488 6.90617 11.826 6.70451 11.7422C6.50285 11.6585 6.28663 11.6154 6.06826 11.6154C5.62324 11.6154 5.20488 11.7897 4.89111 12.1035L2.53887 14.4517C2.38393 14.606 2.26105 14.7895 2.17728 14.9915C2.09352 15.1935 2.05053 15.4101 2.05078 15.6288C2.05078 16.0738 2.2251 16.4922 2.53887 16.806L4.71885 18.9859C5.21924 19.4884 5.91035 19.7734 6.61992 19.7734C6.76963 19.7734 6.91319 19.7611 7.05469 19.7365C9.81914 19.2812 12.561 17.8108 14.7738 15.6001C16.9846 13.3914 18.4529 10.6516 18.9144 7.87891C19.0538 7.03193 18.7729 6.16035 18.1617 5.54512Z" fill="#FFD500"/>
</svg>
