<svg width="19" height="17" viewBox="0 0 19 17" fill="none" xmlns="http://www.w3.org/2000/svg">
<path d="M15.7973 3.38857C14.1586 1.75965 11.951 0.831339 9.64065 0.799666C7.33029 0.767992 5.09805 1.63544 3.4153 3.21882C1.73256 4.80221 0.731024 6.97759 0.622198 9.2856C0.513372 11.5936 1.30577 13.8536 2.83207 15.5883L2.83875 15.5957C2.85099 15.6087 2.8625 15.622 2.87586 15.6347C2.90332 15.6658 2.93449 15.7011 2.97123 15.7378C3.11531 15.891 3.28944 16.0127 3.48274 16.0955C3.67604 16.1782 3.88433 16.2202 4.09459 16.2187C4.30484 16.2172 4.51254 16.1724 4.70466 16.087C4.89679 16.0015 5.06922 15.8774 5.21115 15.7222C5.75727 15.1287 6.42059 14.6549 7.15918 14.3308C7.89776 14.0068 8.69555 13.8394 9.50211 13.8394C10.3087 13.8394 11.1065 14.0068 11.845 14.3308C12.5836 14.6549 13.2469 15.1287 13.7931 15.7222C13.936 15.8782 14.1099 16.0027 14.3035 16.088C14.4971 16.1733 14.7063 16.2174 14.9179 16.2177C15.1295 16.2179 15.3388 16.1741 15.5326 16.0892C15.7264 16.0043 15.9005 15.8801 16.0437 15.7245L16.1629 15.5946L16.1695 15.5872C17.6734 13.889 18.4724 11.6808 18.4035 9.41353C18.3345 7.14622 17.4028 4.99073 15.7985 3.38709L15.7973 3.38857ZM8.90613 3.75039C8.90613 3.59292 8.96869 3.44189 9.08004 3.33054C9.19138 3.21919 9.34241 3.15664 9.49988 3.15664C9.65735 3.15664 9.80837 3.21919 9.91972 3.33054C10.0311 3.44189 10.0936 3.59292 10.0936 3.75039V4.93789C10.0936 5.09536 10.0311 5.24638 9.91972 5.35773C9.80837 5.46908 9.65735 5.53164 9.49988 5.53164C9.34241 5.53164 9.19138 5.46908 9.08004 5.35773C8.96869 5.24638 8.90613 5.09536 8.90613 4.93789V3.75039ZM4.74988 10.2816H3.56238C3.40491 10.2816 3.25388 10.2191 3.14253 10.1077C3.03119 9.99638 2.96863 9.84536 2.96863 9.68789C2.96863 9.53042 3.03119 9.37939 3.14253 9.26804C3.25388 9.15669 3.40491 9.09414 3.56238 9.09414H4.74988C4.90735 9.09414 5.05837 9.15669 5.16972 9.26804C5.28107 9.37939 5.34363 9.53042 5.34363 9.68789C5.34363 9.84536 5.28107 9.99638 5.16972 10.1077C5.05837 10.2191 4.90735 10.2816 4.74988 10.2816ZM6.56082 6.74883C6.44948 6.86009 6.29851 6.92259 6.14111 6.92259C5.98371 6.92259 5.83274 6.86009 5.7214 6.74883L4.88162 5.90941C4.77026 5.79805 4.70769 5.64701 4.70769 5.48952C4.70769 5.33203 4.77026 5.18099 4.88162 5.06963C4.99298 4.95827 5.14402 4.8957 5.30151 4.8957C5.459 4.8957 5.61004 4.95827 5.7214 5.06963L6.56082 5.90941C6.67208 6.02075 6.73458 6.17172 6.73458 6.32912C6.73458 6.48652 6.67208 6.63749 6.56082 6.74883ZM12.1012 7.60605L10.3386 10.4078C10.2664 10.5078 10.1787 10.5955 10.0788 10.6676C9.83751 10.8359 9.53958 10.9023 9.24966 10.8523C8.95975 10.8023 8.70124 10.64 8.53025 10.4006C8.35925 10.1612 8.28957 9.86407 8.33632 9.57361C8.38307 9.28316 8.54248 9.02286 8.77996 8.84922L11.5817 7.08652C11.6454 7.04213 11.7212 7.01833 11.7988 7.01833C11.8764 7.01833 11.9522 7.04213 12.0159 7.08652C12.0959 7.14427 12.1498 7.23133 12.1658 7.32868C12.1817 7.42603 12.1586 7.52575 12.1012 7.60605ZM13.2784 6.74883C13.1661 6.85548 13.0166 6.91405 12.8618 6.91207C12.707 6.91009 12.559 6.8477 12.4496 6.73822C12.3401 6.62873 12.2777 6.4808 12.2757 6.32597C12.2737 6.17114 12.3323 6.02167 12.4389 5.90941L13.2784 5.06963C13.3897 4.95827 13.5408 4.8957 13.6982 4.8957C13.8557 4.8957 14.0068 4.95827 14.1181 5.06963C14.2295 5.18099 14.2921 5.33203 14.2921 5.48952C14.2921 5.64701 14.2295 5.79805 14.1181 5.90941L13.2784 6.74883ZM15.4374 10.2816H14.2499C14.0924 10.2816 13.9414 10.2191 13.83 10.1077C13.7187 9.99638 13.6561 9.84536 13.6561 9.68789C13.6561 9.53042 13.7187 9.37939 13.83 9.26804C13.9414 9.15669 14.0924 9.09414 14.2499 9.09414H15.4374C15.5949 9.09414 15.7459 9.15669 15.8572 9.26804C15.9686 9.37939 16.0311 9.53042 16.0311 9.68789C16.0311 9.84536 15.9686 9.99638 15.8572 10.1077C15.7459 10.2191 15.5949 10.2816 15.4374 10.2816Z" fill="#3D86F5"/>
</svg>
