<svg width="31" height="24" viewBox="0 0 31 24" fill="none" xmlns="http://www.w3.org/2000/svg">
<g clip-path="url(#clip0_401_7)">
<path d="M5.10249 16.1736V9.37026H7.93721V7.10249H0V9.37026H2.83472V16.1736H5.10249ZM20.7985 16.1736L22.3943 13.7186L23.99 16.1736H26.6947L23.7466 11.638L26.6947 7.10249H23.99L22.3943 9.5575L20.7985 7.10249H18.0938L21.0419 11.638L18.0938 16.1736H20.7985ZM28.3472 7.10249H30.6149V16.1736H28.3472V7.10249ZM0 2H30.6149V4.26777H0V2ZM0 19.0083H30.6149V21.2761H0V19.0083ZM14.2683 14.4728L14.8353 16.1736H17.2257L14.2019 7.10249H10.9454L8.15045 16.1736H10.5234L11.0478 14.4728H14.2683ZM12.5946 9.45148L13.5125 12.205H11.7462L12.5946 9.45148Z" fill="#3D86F5"/>
</g>
<defs>
<clipPath id="clip0_401_7">
<rect width="30.61" height="23.48" fill="white"/>
</clipPath>
</defs>
</svg>
