<svg width="31" height="24" viewBox="0 0 31 24" fill="none" xmlns="http://www.w3.org/2000/svg">
<g clip-path="url(#clip0_401_7)">
<path d="M21.9129 2.2826C21.9129 2.88798 21.6725 3.46856 21.2444 3.89663C20.8163 4.3247 20.2357 4.56519 19.6303 4.56519C19.025 4.56519 18.4444 4.3247 18.0163 3.89663C17.5882 3.46856 17.3477 2.88798 17.3477 2.2826C17.3477 1.67721 17.5882 1.09663 18.0163 0.668557C18.4444 0.240487 19.025 0 19.6303 0C20.2357 0 20.8163 0.240487 21.2444 0.668557C21.6725 1.09663 21.9129 1.67721 21.9129 2.2826V2.2826Z" fill="#3D86F5"/>
<path fill-rule="evenodd" clip-rule="evenodd" d="M19.6303 3.26085C19.8898 3.26085 20.1386 3.15778 20.3221 2.97433C20.5055 2.79087 20.6086 2.54204 20.6086 2.2826C20.6086 2.02315 20.5055 1.77432 20.3221 1.59086C20.1386 1.40741 19.8898 1.30434 19.6303 1.30434C19.3709 1.30434 19.1221 1.40741 18.9386 1.59086C18.7551 1.77432 18.6521 2.02315 18.6521 2.2826C18.6521 2.54204 18.7551 2.79087 18.9386 2.97433C19.1221 3.15778 19.3709 3.26085 19.6303 3.26085ZM19.6303 4.56519C19.9301 4.56519 20.2269 4.50615 20.5038 4.39144C20.7808 4.27673 21.0324 4.10859 21.2444 3.89663C21.4563 3.68468 21.6245 3.43304 21.7392 3.15611C21.8539 2.87917 21.9129 2.58235 21.9129 2.2826C21.9129 1.98284 21.8539 1.68602 21.7392 1.40908C21.6245 1.13215 21.4563 0.880515 21.2444 0.668557C21.0324 0.456598 20.7808 0.288463 20.5038 0.173752C20.2269 0.0590412 19.9301 -4.46669e-09 19.6303 0C19.0249 9.02089e-09 18.4444 0.240487 18.0163 0.668557C17.5882 1.09663 17.3477 1.67721 17.3477 2.2826C17.3477 2.88798 17.5882 3.46856 18.0163 3.89663C18.4444 4.3247 19.0249 4.56519 19.6303 4.56519ZM11.4782 6.5217C11.1323 6.5217 10.8005 6.65912 10.5559 6.90373C10.3113 7.14834 10.1739 7.48011 10.1739 7.82604C10.1739 8.17197 10.3113 8.50374 10.5559 8.74835C10.8005 8.99296 11.1323 9.13038 11.4782 9.13038H16.0434V22.1738C16.0434 22.5197 16.1808 22.8515 16.4254 23.0961C16.67 23.3407 17.0018 23.4781 17.3477 23.4781C17.6937 23.4781 18.0254 23.3407 18.27 23.0961C18.5146 22.8515 18.6521 22.5197 18.6521 22.1738V16.3043H20.6086V22.1738C20.6086 22.5197 20.746 22.8515 20.9906 23.0961C21.2352 23.3407 21.567 23.4781 21.9129 23.4781C22.2589 23.4781 22.5906 23.3407 22.8352 23.0961C23.0798 22.8515 23.2173 22.5197 23.2173 22.1738V14.2936C24.1825 14.1275 25.0504 13.6055 25.6496 12.8307C26.2488 12.056 26.5358 11.0847 26.4539 10.1087C26.372 9.13267 25.9272 8.22282 25.2072 7.55875C24.4873 6.89468 23.5445 6.52465 22.5651 6.5217H11.4782ZM24.5216 10.4347C24.5216 10.0888 24.3842 9.75702 24.1396 9.51241C23.895 9.2678 23.5632 9.13038 23.2173 9.13038V11.7391C23.5632 11.7391 23.895 11.6016 24.1396 11.357C24.3842 11.1124 24.5216 10.7807 24.5216 10.4347Z" fill="#3D86F5"/>
<path fill-rule="evenodd" clip-rule="evenodd" d="M3 16.9565C3 16.6105 3.13742 16.2788 3.38203 16.0342C3.62664 15.7896 3.95841 15.6521 4.30434 15.6521H12.7826C13.1285 15.6521 13.4602 15.7896 13.7049 16.0342C13.9495 16.2788 14.0869 16.6105 14.0869 16.9565V22.1738C14.0869 22.5198 13.9495 22.8515 13.7049 23.0961C13.4602 23.3408 13.1285 23.4782 12.7826 23.4782H4.30434C3.95841 23.4782 3.62664 23.3408 3.38203 23.0961C3.13742 22.8515 3 22.5198 3 22.1738V16.9565ZM5.60868 21.5217V17.6086H6.91302V21.5217H5.60868ZM10.1739 17.6086V21.5217H11.4782V17.6086H10.1739ZM6.26085 14.3478C6.26085 14.0019 6.39827 13.6701 6.64288 13.4255C6.88749 13.1809 7.21926 13.0435 7.56519 13.0435H9.5217C9.86763 13.0435 10.1994 13.1809 10.444 13.4255C10.6886 13.6701 10.826 14.0019 10.826 14.3478V15.6521H9.5217V14.3478H7.56519V15.6521H6.26085V14.3478Z" fill="#3D86F5"/>
</g>
<defs>
<clipPath id="clip0_401_7">
<rect width="30.61" height="23.48" fill="white"/>
</clipPath>
</defs>
</svg>
