<svg width="25" height="25" viewBox="0 0 25 25" fill="none" xmlns="http://www.w3.org/2000/svg">
<path d="M12.5 7.5C12.0856 7.5 11.6882 7.33538 11.3951 7.04235C11.1021 6.74933 10.9375 6.3519 10.9375 5.9375C10.9375 5.5231 11.1021 5.12567 11.3951 4.83265C11.6882 4.53962 12.0856 4.375 12.5 4.375C12.9144 4.375 13.3118 4.53962 13.6049 4.83265C13.8979 5.12567 14.0625 5.5231 14.0625 5.9375C14.0625 6.3519 13.8979 6.74933 13.6049 7.04235C13.3118 7.33538 12.9144 7.5 12.5 7.5ZM12.5 14.0625C12.0856 14.0625 11.6882 13.8979 11.3951 13.6049C11.1021 13.3118 10.9375 12.9144 10.9375 12.5C10.9375 12.0856 11.1021 11.6882 11.3951 11.3951C11.6882 11.1021 12.0856 10.9375 12.5 10.9375C12.9144 10.9375 13.3118 11.1021 13.6049 11.3951C13.8979 11.6882 14.0625 12.0856 14.0625 12.5C14.0625 12.9144 13.8979 13.3118 13.6049 13.6049C13.3118 13.8979 12.9144 14.0625 12.5 14.0625ZM10.9375 19.0625C10.9375 19.4769 11.1021 19.8743 11.3951 20.1674C11.6882 20.4604 12.0856 20.625 12.5 20.625C12.9144 20.625 13.3118 20.4604 13.6049 20.1674C13.8979 19.8743 14.0625 19.4769 14.0625 19.0625C14.0625 18.6481 13.8979 18.2507 13.6049 17.9576C13.3118 17.6646 12.9144 17.5 12.5 17.5C12.0856 17.5 11.6882 17.6646 11.3951 17.9576C11.1021 18.2507 10.9375 18.6481 10.9375 19.0625Z" fill="#404040"/>
</svg>
