<svg width="17" height="15" viewBox="0 0 17 15" fill="none" xmlns="http://www.w3.org/2000/svg">
<path d="M11.9 2.64706H13.6V15H3.4V2.64706H5.1V1.76471C5.1 1.29668 5.27911 0.847817 5.59792 0.51687C5.91673 0.185924 6.34913 0 6.8 0H10.2C10.6509 0 11.0833 0.185924 11.4021 0.51687C11.7209 0.847817 11.9 1.29668 11.9 1.76471V2.64706ZM14.45 2.64706H15.3C15.7509 2.64706 16.1833 2.83298 16.5021 3.16393C16.8209 3.49488 17 3.94374 17 4.41176V13.2353C17 13.7033 16.8209 14.1522 16.5021 14.4831C16.1833 14.8141 15.7509 15 15.3 15H14.45V2.64706ZM2.55 2.64706V15H1.7C1.24913 15 0.81673 14.8141 0.497919 14.4831C0.179107 14.1522 0 13.7033 0 13.2353V4.41176C0 3.44118 0.765 2.64706 1.7 2.64706H2.55ZM6.8 1.76471V2.64706H10.2V1.76471H6.8Z" fill="#E7E7E7"/>
</svg>
