<svg width="43" height="35" viewBox="0 0 43 35" fill="none" xmlns="http://www.w3.org/2000/svg">
<g clip-path="url(#clip0_631_947)">
<path d="M9.98359 18.6532L9.05937 14.1853C8.99451 13.9247 8.83604 13.6971 8.61417 13.5458C8.39229 13.3945 8.12252 13.3301 7.85625 13.365H3.57969L3.54688 13.5782C6.87188 14.3767 9.07031 16.3126 9.98359 18.6532ZM13.0898 13.4634L10.3883 20.3595L10.1094 19.3204C9.22908 17.6081 7.90752 16.162 6.28125 15.1314L8.74766 23.5587H11.6625L16.0047 13.4634H13.0898ZM17.1258 13.4634L15.4031 23.5806H18.1375L19.8656 13.4634H17.1258ZM35.2219 13.4634H33.0781C32.7782 13.4243 32.4738 13.4858 32.2126 13.6382C31.9513 13.7906 31.748 14.0253 31.6344 14.3056L27.5602 23.5696H30.4531C30.4531 23.5696 30.9234 22.3228 31.0328 22.0493H34.5602C34.6422 22.3993 34.8937 23.5587 34.8937 23.5587H37.4531L35.2219 13.4634ZM31.8258 19.9821C32.0555 19.4025 32.9195 17.1548 32.9195 17.1548C32.9195 17.1548 33.1492 16.5751 33.2859 16.1923L33.4773 17.0618L34.1117 19.9821H31.8258ZM25.4219 17.5157C24.4648 17.0509 23.8742 16.7337 23.8797 16.2634C23.8852 15.7931 24.3773 15.3939 25.4547 15.3939C26.1617 15.375 26.8647 15.5074 27.5164 15.7821L27.768 15.897L28.1398 13.7095C27.3494 13.4232 26.5141 13.2806 25.6734 13.2884C22.9391 13.2884 21.0305 14.6556 21.0141 16.6243C21.0141 18.0735 22.3812 18.8884 23.4258 19.3587C24.4703 19.829 24.875 20.1735 24.875 20.6165C24.875 21.2946 24.0164 21.6064 23.2344 21.6064C22.3396 21.627 21.4523 21.4398 20.6422 21.0595L20.2867 20.8954L19.8984 23.1595C20.8814 23.526 21.9228 23.7113 22.9719 23.7064C25.8648 23.7064 27.7461 22.3501 27.768 20.2501C27.7625 19.1126 27.0297 18.2376 25.4219 17.5157Z" fill="#273991"/>
<path d="M9.05937 14.185C8.99451 13.9244 8.83604 13.6968 8.61417 13.5455C8.39229 13.3943 8.12252 13.3299 7.85625 13.3647H3.57969L3.54688 13.578C6.87188 14.3819 9.07031 16.3124 9.98359 18.6584L9.05937 14.185Z" fill="#F99F1B"/>
</g>
<rect x="0.5" y="5.5625" width="42" height="25.875" rx="4.5" stroke="#E0E0E0"/>
<defs>
<clipPath id="clip0_631_947">
<rect width="35" height="35" fill="white" transform="translate(4)"/>
</clipPath>
</defs>
</svg>
