<svg width="19" height="15" viewBox="0 0 19 15" fill="none" xmlns="http://www.w3.org/2000/svg">
<path d="M13.8266 9.7251C12.6741 8.72227 11.1688 8.11523 9.52 8.11523C7.87117 8.11523 6.3659 8.72227 5.21131 9.72715C5.17942 9.75589 5.1599 9.79587 5.15685 9.83869C5.15379 9.88151 5.16743 9.92385 5.1949 9.95684L5.93318 10.8366C5.99265 10.9063 6.09724 10.9145 6.16697 10.8551C7.06111 10.0676 8.23416 9.5918 9.52 9.5918C10.8058 9.5918 11.9789 10.0676 12.873 10.853C12.9427 10.9125 13.0473 10.9043 13.1068 10.8346L13.8451 9.95479C13.9025 9.88711 13.8943 9.78457 13.8266 9.7251ZM16.2343 6.85195C14.4152 5.33643 12.0753 4.42383 9.52 4.42383C6.96472 4.42383 4.62478 5.33643 2.80369 6.85195C2.77037 6.88005 2.74952 6.92018 2.74568 6.9636C2.74184 7.00701 2.75532 7.05018 2.78318 7.08369L3.52146 7.96348C3.57888 8.0332 3.68347 8.04141 3.75115 7.98398C5.3159 6.68379 7.32771 5.90039 9.52 5.90039C11.7123 5.90039 13.7241 6.68379 15.2868 7.98398C15.3565 8.04141 15.4591 8.0332 15.5165 7.96348L16.2548 7.08369C16.3122 7.01397 16.304 6.90937 16.2343 6.85195ZM18.6275 4.00137C16.1379 1.95879 12.951 0.732422 9.47898 0.732422C6.02957 0.732422 2.86316 1.94238 0.379667 3.96035C0.362604 3.97406 0.348457 3.99104 0.338059 4.0103C0.32766 4.02956 0.32122 4.05071 0.319118 4.07249C0.317016 4.09428 0.319294 4.11626 0.325818 4.13716C0.332343 4.15805 0.342981 4.17742 0.357108 4.19414L1.09539 5.07393C1.15281 5.1416 1.25535 5.15185 1.32303 5.09648C3.55222 3.28975 6.38845 2.20898 9.47898 2.20898C12.5921 2.20898 15.4468 3.30615 17.6821 5.13545C17.7518 5.19287 17.8544 5.18262 17.9118 5.11289L18.6501 4.23311C18.7095 4.16338 18.6993 4.05879 18.6275 4.00137ZM8.18699 12.9551C8.18699 13.3032 8.32527 13.637 8.57141 13.8832C8.81755 14.1293 9.15139 14.2676 9.49949 14.2676C9.84759 14.2676 10.1814 14.1293 10.4276 13.8832C10.6737 13.637 10.812 13.3032 10.812 12.9551C10.812 12.607 10.6737 12.2731 10.4276 12.027C10.1814 11.7809 9.84759 11.6426 9.49949 11.6426C9.15139 11.6426 8.81755 11.7809 8.57141 12.027C8.32527 12.2731 8.18699 12.607 8.18699 12.9551Z" fill="#FFD500"/>
</svg>
