<svg width="16" height="16" viewBox="0 0 16 16" fill="none" xmlns="http://www.w3.org/2000/svg">
<path d="M15.3063 4.85625L14.0563 5.2625L14.8313 6.325C14.87 6.37829 14.8979 6.43871 14.9132 6.50278C14.9285 6.56686 14.931 6.63334 14.9206 6.69839C14.9101 6.76344 14.8869 6.82578 14.8523 6.88183C14.8176 6.93788 14.7723 6.98654 14.7188 7.025C14.6106 7.10163 14.4767 7.13278 14.3458 7.11174C14.2149 7.09071 14.0975 7.01917 14.0188 6.9125L13.25 5.85L12.4813 6.9125C12.4026 7.01917 12.2852 7.09071 12.1543 7.11174C12.0234 7.13278 11.8895 7.10163 11.7813 7.025C11.7278 6.98654 11.6824 6.93788 11.6478 6.88183C11.6132 6.82578 11.59 6.76344 11.5795 6.69839C11.5691 6.63334 11.5716 6.56686 11.5869 6.50278C11.6022 6.43871 11.63 6.37829 11.6688 6.325L12.4438 5.2625L11.1938 4.85625C11.1309 4.83646 11.0727 4.80429 11.0224 4.76162C10.9722 4.71896 10.931 4.66667 10.9013 4.60784C10.8716 4.54901 10.854 4.48483 10.8495 4.41908C10.8449 4.35332 10.8536 4.28734 10.875 4.225C10.8941 4.16237 10.9257 4.10422 10.9677 4.05404C11.0098 4.00386 11.0615 3.96266 11.1199 3.93291C11.1782 3.90316 11.2419 3.88547 11.3072 3.88089C11.3725 3.87631 11.4381 3.88493 11.5 3.90625L12.75 4.3125V3C12.75 2.86739 12.8027 2.74021 12.8965 2.64645C12.9903 2.55268 13.1174 2.5 13.25 2.5C13.3826 2.5 13.5098 2.55268 13.6036 2.64645C13.6974 2.74021 13.75 2.86739 13.75 3V4.3125L15 3.90625C15.0619 3.88493 15.1275 3.87631 15.1928 3.88089C15.2582 3.88547 15.3219 3.90316 15.3802 3.93291C15.4386 3.96266 15.4903 4.00386 15.5324 4.05404C15.5744 4.10422 15.6059 4.16237 15.625 4.225C15.6464 4.28734 15.6551 4.35332 15.6506 4.41908C15.6461 4.48483 15.6285 4.54901 15.5988 4.60784C15.5691 4.66667 15.5279 4.71896 15.4776 4.76162C15.4274 4.80429 15.3692 4.83646 15.3063 4.85625ZM11.25 11.75C11.25 12.7446 10.8549 13.6984 10.1517 14.4017C9.44842 15.1049 8.4946 15.5 7.50003 15.5C6.50547 15.5 5.55164 15.1049 4.84838 14.4017C4.14512 13.6984 3.75003 12.7446 3.75003 11.75C3.74783 11.2222 3.85819 10.7001 4.07374 10.2183C4.28928 9.73657 4.60507 9.30632 5.00003 8.95625V3C5.00003 2.33696 5.26342 1.70107 5.73227 1.23223C6.20111 0.763392 6.83699 0.5 7.50003 0.5C8.16307 0.5 8.79896 0.763392 9.2678 1.23223C9.73664 1.70107 10 2.33696 10 3V8.95625C10.395 9.30632 10.7108 9.73657 10.9263 10.2183C11.1419 10.7001 11.2522 11.2222 11.25 11.75ZM6.00003 3V6.5H9.00003V3C9.00003 2.60218 8.842 2.22064 8.56069 1.93934C8.27939 1.65804 7.89786 1.5 7.50003 1.5C7.10221 1.5 6.72068 1.65804 6.43937 1.93934C6.15807 2.22064 6.00003 2.60218 6.00003 3Z" fill="#FFD500"/>
</svg>
