<svg width="21" height="21" viewBox="0 0 21 21" fill="none" xmlns="http://www.w3.org/2000/svg">
<path d="M10.5 0.4375C4.96563 0.4375 0.4375 4.96563 0.4375 10.5C0.4375 16.0344 4.96563 20.5625 10.5 20.5625C16.0344 20.5625 20.5625 16.0344 20.5625 10.5C20.5625 4.96563 16.0344 0.4375 10.5 0.4375ZM9.70937 4.75H11.2906V12.6562H9.70937V4.75ZM10.5 16.9688C9.925 16.9688 9.42188 16.4656 9.42188 15.8906C9.42188 15.3156 9.925 14.8125 10.5 14.8125C11.075 14.8125 11.5781 15.3156 11.5781 15.8906C11.5781 16.4656 11.075 16.9688 10.5 16.9688Z" fill="#FFD500"/>
</svg>
