<svg width="19" height="19" viewBox="0 0 19 19" fill="none" xmlns="http://www.w3.org/2000/svg">
<path d="M15.0417 11.875C15.0417 11.4378 14.6872 11.0833 14.25 11.0833H13.4583C13.0211 11.0833 12.6667 11.4378 12.6667 11.875C12.6667 12.3122 13.0211 12.6667 13.4583 12.6667H14.25C14.6872 12.6667 15.0417 12.3122 15.0417 11.875ZM17.4167 14.625C17.4167 15.7296 16.5212 16.625 15.4167 16.625H4.375C3.27043 16.625 2.375 15.7296 2.375 14.625V9.53676C2.375 9.00633 2.58571 8.49762 2.96079 8.12255L8.12255 2.96079C8.49762 2.58571 9.00633 2.375 9.53676 2.375H16.625C16.835 2.375 17.0363 2.45841 17.1848 2.60687C17.3333 2.75534 17.4167 2.9567 17.4167 3.16667V14.625ZM10.1938 3.95833C9.66341 3.95833 9.1547 4.16905 8.77963 4.54412L8.02963 5.29412C6.7697 6.55405 7.66203 8.70833 9.44384 8.70833H13.8333C14.9379 8.70833 15.8333 7.8129 15.8333 6.70833V5.95833C15.8333 4.85376 14.9379 3.95833 13.8333 3.95833H10.1938Z" fill="#FFD500"/>
</svg>
