<svg width="17" height="17" viewBox="0 0 17 17" fill="none" xmlns="http://www.w3.org/2000/svg">
<path d="M4.25 0.53125C4.25 0.390354 4.19403 0.255228 4.0944 0.1556C3.99477 0.0559708 3.85965 0 3.71875 0C3.57785 0 3.44273 0.0559708 3.3431 0.1556C3.24347 0.255228 3.1875 0.390354 3.1875 0.53125V1.0625H2.125C1.56141 1.0625 1.02091 1.28638 0.622398 1.6849C0.223883 2.08341 0 2.62391 0 3.1875L0 4.25H17V3.1875C17 2.62391 16.7761 2.08341 16.3776 1.6849C15.9791 1.28638 15.4386 1.0625 14.875 1.0625H13.8125V0.53125C13.8125 0.390354 13.7565 0.255228 13.6569 0.1556C13.5573 0.0559708 13.4221 0 13.2812 0C13.1404 0 13.0052 0.0559708 12.9056 0.1556C12.806 0.255228 12.75 0.390354 12.75 0.53125V1.0625H4.25V0.53125ZM17 14.875V5.3125H0V14.875C0 15.4386 0.223883 15.9791 0.622398 16.3776C1.02091 16.7761 1.56141 17 2.125 17H14.875C15.4386 17 15.9791 16.7761 16.3776 16.3776C16.7761 15.9791 17 15.4386 17 14.875ZM13.2812 7.4375H14.3438C14.4846 7.4375 14.6198 7.49347 14.7194 7.5931C14.819 7.69273 14.875 7.82785 14.875 7.96875V9.03125C14.875 9.17215 14.819 9.30727 14.7194 9.4069C14.6198 9.50653 14.4846 9.5625 14.3438 9.5625H13.2812C13.1404 9.5625 13.0052 9.50653 12.9056 9.4069C12.806 9.30727 12.75 9.17215 12.75 9.03125V7.96875C12.75 7.82785 12.806 7.69273 12.9056 7.5931C13.0052 7.49347 13.1404 7.4375 13.2812 7.4375Z" fill="#FFD500"/>
</svg>
