<svg width="25" height="25" viewBox="0 0 25 25" fill="none" xmlns="http://www.w3.org/2000/svg">
<g clip-path="url(#clip0_2_274)">
<path d="M6.25 0.78125C6.25 0.57405 6.16769 0.375336 6.02118 0.228823C5.87466 0.08231 5.67595 0 5.46875 0C5.26155 0 5.06284 0.08231 4.91632 0.228823C4.76981 0.375336 4.6875 0.57405 4.6875 0.78125V1.5625H3.125C2.2962 1.5625 1.50134 1.89174 0.915291 2.47779C0.32924 3.06384 0 3.8587 0 4.6875L0 6.25H25V4.6875C25 3.8587 24.6708 3.06384 24.0847 2.47779C23.4987 1.89174 22.7038 1.5625 21.875 1.5625H20.3125V0.78125C20.3125 0.57405 20.2302 0.375336 20.0837 0.228823C19.9372 0.08231 19.7385 0 19.5312 0C19.324 0 19.1253 0.08231 18.9788 0.228823C18.8323 0.375336 18.75 0.57405 18.75 0.78125V1.5625H6.25V0.78125ZM25 21.875V7.8125H0V21.875C0 22.7038 0.32924 23.4987 0.915291 24.0847C1.50134 24.6708 2.2962 25 3.125 25H21.875C22.7038 25 23.4987 24.6708 24.0847 24.0847C24.6708 23.4987 25 22.7038 25 21.875ZM19.5312 10.9375H21.0938C21.301 10.9375 21.4997 11.0198 21.6462 11.1663C21.7927 11.3128 21.875 11.5115 21.875 11.7188V13.2812C21.875 13.4885 21.7927 13.6872 21.6462 13.8337C21.4997 13.9802 21.301 14.0625 21.0938 14.0625H19.5312C19.324 14.0625 19.1253 13.9802 18.9788 13.8337C18.8323 13.6872 18.75 13.4885 18.75 13.2812V11.7188C18.75 11.5115 18.8323 11.3128 18.9788 11.1663C19.1253 11.0198 19.324 10.9375 19.5312 10.9375Z" fill="#E7E7E7"/>
</g>
<defs>
<clipPath id="clip0_2_274">
<rect width="25" height="25" fill="white"/>
</clipPath>
</defs>
</svg>
