<svg width="32" height="32" viewBox="0 0 32 32" fill="none" xmlns="http://www.w3.org/2000/svg">
<path d="M15.9963 0.525391C7.55333 0.525391 0.70752 7.3712 0.70752 15.8141C0.70752 24.2571 7.55333 31.1029 15.9963 31.1029C24.4392 31.1029 31.285 24.2571 31.285 15.8141C31.285 7.3712 24.4392 0.525391 15.9963 0.525391ZM22.5998 10.8214L15.4127 20.7864C15.3123 20.9266 15.1798 21.0409 15.0264 21.1197C14.873 21.1985 14.703 21.2396 14.5305 21.2396C14.3581 21.2396 14.1881 21.1985 14.0347 21.1197C13.8812 21.0409 13.7488 20.9266 13.6484 20.7864L9.39276 14.8893C9.26308 14.7084 9.39276 14.4559 9.61458 14.4559H11.2151C11.5632 14.4559 11.8942 14.6231 12.099 14.9098L14.5288 18.2815L19.8935 10.8419C20.0983 10.5586 20.4259 10.388 20.7774 10.388H22.378C22.5998 10.388 22.7295 10.6405 22.5998 10.8214Z" fill="#FFD500"/>
</svg>
