<svg width="51" height="51" viewBox="0 0 51 51" fill="none" xmlns="http://www.w3.org/2000/svg">
<path d="M11.1562 30.2812V20.7188H15.1406V17.5312H3.98438V20.7188H7.96875V30.2812H11.1562ZM33.218 30.2812L35.4609 26.8306L37.7038 30.2812H41.5055L37.3618 23.9062L41.5055 17.5312H37.7038L35.4609 20.9819L33.218 17.5312H29.4163L33.5601 23.9062L29.4163 30.2812H33.218ZM43.8281 17.5312H47.0156V30.2812H43.8281V17.5312ZM3.98438 10.3594H47.0156V13.5469H3.98438V10.3594ZM3.98438 34.2656H47.0156V37.4531H3.98438V34.2656ZM24.0394 27.8906L24.8363 30.2812H28.1962L23.9461 17.5312H19.3688L15.4403 30.2812H18.7757L19.5128 27.8906H24.0394ZM21.687 20.8329L22.977 24.7031H20.4944L21.687 20.8329Z" fill="#3D86F5"/>
</svg>
