<svg width="25" height="25" viewBox="0 0 25 25" fill="none" xmlns="http://www.w3.org/2000/svg">
<path d="M12.5 0C5.5971 0 0 5.5971 0 12.5C0 19.4029 5.5971 25 12.5 25C19.4029 25 25 19.4029 25 12.5C25 5.5971 19.4029 0 12.5 0ZM17.115 17.2489L15.2734 17.2405L12.5 13.9342L9.72935 17.2377L7.88504 17.2461C7.76228 17.2461 7.66183 17.1484 7.66183 17.0229C7.66183 16.9699 7.68136 16.9196 7.71484 16.8778L11.3449 12.553L7.71484 8.23103C7.68113 8.19013 7.66242 8.13893 7.66183 8.08594C7.66183 7.96317 7.76228 7.86272 7.88504 7.86272L9.72935 7.87109L12.5 11.1775L15.2706 7.87388L17.1122 7.86551C17.2349 7.86551 17.3354 7.96317 17.3354 8.08873C17.3354 8.14174 17.3158 8.19196 17.2824 8.23382L13.6579 12.5558L17.2852 16.8806C17.3186 16.9224 17.3382 16.9727 17.3382 17.0257C17.3382 17.1484 17.2377 17.2489 17.115 17.2489Z" fill="#C4C4C4"/>
</svg>
