<svg width="28" height="23" viewBox="0 0 28 23" fill="none" xmlns="http://www.w3.org/2000/svg">
<path d="M27 0H1C0.446875 0 0 0.452532 0 1.01266V21.2658C0 21.8259 0.446875 22.2785 1 22.2785H27C27.5531 22.2785 28 21.8259 28 21.2658V1.01266C28 0.452532 27.5531 0 27 0ZM24.475 3.4462L14.6156 11.2152C14.3719 11.4082 14.0312 11.4082 13.7875 11.2152L3.925 3.4462C3.88782 3.41715 3.86055 3.37704 3.84702 3.3315C3.83348 3.28596 3.83435 3.23728 3.84951 3.19227C3.86467 3.14726 3.89336 3.10818 3.93156 3.08051C3.96975 3.05284 4.01554 3.03797 4.0625 3.03797H24.3375C24.3845 3.03797 24.4303 3.05284 24.4684 3.08051C24.5066 3.10818 24.5353 3.14726 24.5505 3.19227C24.5656 3.23728 24.5665 3.28596 24.553 3.3315C24.5394 3.37704 24.5122 3.41715 24.475 3.4462Z" fill="#E7E7E7"/>
</svg>
