<svg width="22" height="22" viewBox="0 0 22 22" fill="none" xmlns="http://www.w3.org/2000/svg">
<path d="M1.70199 8.45625L3.21406 4.13746C3.79285 2.48273 5.35391 1.375 7.10703 1.375H14.893C16.6461 1.375 18.2059 2.48273 18.7859 4.13746L20.2984 8.45625C21.2953 8.86875 22 9.85273 22 11V19.25C22 20.0105 21.3855 20.625 20.625 20.625H19.25C18.4895 20.625 17.875 20.0105 17.875 19.25V17.1875H4.125V19.25C4.125 20.0105 3.50926 20.625 2.75 20.625H1.375C0.615742 20.625 0 20.0105 0 19.25V11C0 9.85273 0.702969 8.86875 1.70199 8.45625ZM4.68789 8.25H17.3121L16.1906 5.04453C15.9973 4.49453 15.4773 4.125 14.893 4.125H7.10703C6.52266 4.125 6.00273 4.49453 5.80937 5.04453L4.68789 8.25ZM4.125 11C3.36574 11 2.75 11.6145 2.75 12.375C2.75 13.1355 3.36574 13.75 4.125 13.75C4.88555 13.75 5.5 13.1355 5.5 12.375C5.5 11.6145 4.88555 11 4.125 11ZM17.875 13.75C18.6355 13.75 19.25 13.1355 19.25 12.375C19.25 11.6145 18.6355 11 17.875 11C17.1145 11 16.5 11.6145 16.5 12.375C16.5 13.1355 17.1145 13.75 17.875 13.75Z" fill="#E7E7E7"/>
</svg>
