<svg width="34" height="30" viewBox="0 0 34 30" fill="none" xmlns="http://www.w3.org/2000/svg">
<path d="M33.9882 14.9707C33.9882 16.0254 33.1028 16.8516 32.0993 16.8516H30.2104L30.2517 26.2324C30.2517 26.3965 30.2399 26.5488 30.2222 26.707V27.6562C30.2222 28.9512 29.1656 30 27.8611 30H26.9167C26.8517 30 26.7868 29.9473 26.7219 29.9941C26.6392 29.9473 26.5566 30 26.474 30H23.1389C21.8344 30 20.7778 28.9512 20.7778 27.6562V22.5C20.7778 21.4629 19.9337 20.625 18.8889 20.625H15.1111C14.0663 20.625 13.2222 21.4629 13.2222 22.5V27.6562C13.2222 28.9512 12.1656 30 10.8611 30H7.56146C7.47292 30 7.38438 29.9941 7.29583 29.9883C7.225 29.9941 7.15417 30 7.08333 30H6.13889C4.83497 30 3.77778 28.9512 3.77778 27.6562V21.0938C3.77778 21.041 3.77955 20.9824 3.78309 20.9297V16.8516H1.89184C0.827569 16.8516 0 16.0254 0 14.9707C0 14.4434 0.177319 13.9746 0.590868 13.5645L15.725 0.469687C16.1382 0.0587109 16.6104 0 17.0236 0C17.4368 0 17.909 0.117422 18.2691 0.410977L33.3389 13.5645C33.8111 13.9746 34.0531 14.4434 33.9882 14.9707Z" fill="#3D86F5"/>
</svg>
