<svg width="1365" height="294" viewBox="0 0 1365 294" fill="none" xmlns="http://www.w3.org/2000/svg">
<path d="M-21 205.458C47.9559 90.9292 277.469 -0.369452 433.913 97.4713C654.179 235.227 689.801 212 889.806 97.4712C992.99 38.3845 1256.48 32.0933 1364 212" stroke="#C4C4C4" stroke-linecap="round" stroke-linejoin="round" stroke-dasharray="2 2"/>
<circle cx="769.408" cy="160.782" r="13.2177" fill="white" stroke="#C4C4C4" stroke-dasharray="2 2"/>
<path d="M770.134 160.811C770.934 160.961 771.589 161.306 772.099 161.846C772.609 162.386 772.864 163.071 772.864 163.901C772.864 164.921 772.514 165.726 771.814 166.316C771.114 166.906 770.264 167.201 769.264 167.201C768.464 167.201 767.754 167.021 767.134 166.661C766.514 166.291 766.074 165.761 765.814 165.071L766.984 164.381C767.294 165.351 768.054 165.836 769.264 165.836C769.914 165.836 770.444 165.666 770.854 165.326C771.264 164.986 771.469 164.511 771.469 163.901C771.469 163.291 771.264 162.816 770.854 162.476C770.444 162.126 769.914 161.951 769.264 161.951H768.904L768.349 161.096L770.779 157.811H766.114V156.506H772.414V157.736L770.134 160.811Z" fill="#C4C4C4"/>
<path d="M775.648 207.555C776.568 208.085 777.028 208.885 777.028 209.955C777.028 210.845 776.713 211.575 776.083 212.145C775.453 212.715 774.678 213 773.758 213H769.303V202.5H773.443C774.343 202.5 775.098 202.78 775.708 203.34C776.328 203.89 776.638 204.595 776.638 205.455C776.638 206.325 776.308 207.025 775.648 207.555ZM773.443 204.435H771.373V206.745H773.443C773.763 206.745 774.028 206.635 774.238 206.415C774.458 206.195 774.568 205.92 774.568 205.59C774.568 205.26 774.463 204.985 774.253 204.765C774.043 204.545 773.773 204.435 773.443 204.435ZM773.758 211.065C774.108 211.065 774.398 210.95 774.628 210.72C774.858 210.48 774.973 210.18 774.973 209.82C774.973 209.47 774.858 209.18 774.628 208.95C774.398 208.71 774.108 208.59 773.758 208.59H771.373V211.065H773.758ZM783.71 205.5H785.15V213H783.26V208.74L779.735 213H778.295V205.5H780.185V209.76L783.71 205.5ZM794.243 213.21C793.113 213.21 792.168 212.83 791.408 212.07C790.658 211.31 790.283 210.37 790.283 209.25C790.283 208.13 790.658 207.19 791.408 206.43C792.168 205.67 793.113 205.29 794.243 205.29C794.973 205.29 795.638 205.465 796.238 205.815C796.838 206.165 797.293 206.635 797.603 207.225L795.938 208.2C795.788 207.89 795.558 207.645 795.248 207.465C794.948 207.285 794.608 207.195 794.228 207.195C793.648 207.195 793.168 207.39 792.788 207.78C792.408 208.16 792.218 208.65 792.218 209.25C792.218 209.84 792.408 210.33 792.788 210.72C793.168 211.1 793.648 211.29 794.228 211.29C794.618 211.29 794.963 211.205 795.263 211.035C795.573 210.855 795.803 210.61 795.953 210.3L797.633 211.26C797.303 211.85 796.838 212.325 796.238 212.685C795.638 213.035 794.973 213.21 794.243 213.21ZM805.63 213H803.38L800.65 209.595V213H798.715V205.5H800.65V208.8L803.23 205.5H805.54L802.525 209.205L805.63 213ZM812.444 212.07C811.674 212.83 810.734 213.21 809.624 213.21C808.514 213.21 807.574 212.83 806.804 212.07C806.044 211.3 805.664 210.36 805.664 209.25C805.664 208.14 806.044 207.205 806.804 206.445C807.574 205.675 808.514 205.29 809.624 205.29C810.734 205.29 811.674 205.675 812.444 206.445C813.214 207.205 813.599 208.14 813.599 209.25C813.599 210.36 813.214 211.3 812.444 212.07ZM808.169 210.735C808.559 211.125 809.044 211.32 809.624 211.32C810.204 211.32 810.689 211.125 811.079 210.735C811.469 210.345 811.664 209.85 811.664 209.25C811.664 208.65 811.469 208.155 811.079 207.765C810.689 207.375 810.204 207.18 809.624 207.18C809.044 207.18 808.559 207.375 808.169 207.765C807.789 208.155 807.599 208.65 807.599 209.25C807.599 209.85 807.789 210.345 808.169 210.735ZM819.88 205.5H821.815V213H819.88V210.15H816.895V213H814.96V205.5H816.895V208.335H819.88V205.5ZM829.498 205.5V207.36H827.158V213H825.223V207.36H822.853V205.5H829.498ZM835.939 205.5H837.874V213H835.939V212.115C835.359 212.845 834.544 213.21 833.494 213.21C832.494 213.21 831.634 212.83 830.914 212.07C830.204 211.3 829.849 210.36 829.849 209.25C829.849 208.14 830.204 207.205 830.914 206.445C831.634 205.675 832.494 205.29 833.494 205.29C834.544 205.29 835.359 205.655 835.939 206.385V205.5ZM832.369 210.78C832.759 211.17 833.254 211.365 833.854 211.365C834.454 211.365 834.949 211.17 835.339 210.78C835.739 210.38 835.939 209.87 835.939 209.25C835.939 208.63 835.739 208.125 835.339 207.735C834.949 207.335 834.454 207.135 833.854 207.135C833.254 207.135 832.759 207.335 832.369 207.735C831.979 208.125 831.784 208.63 831.784 209.25C831.784 209.87 831.979 210.38 832.369 210.78ZM846.543 213H844.293L841.563 209.595V213H839.628V205.5H841.563V208.8L844.143 205.5H846.453L843.438 209.205L846.543 213ZM853.419 205.5V207.36H851.079V213H849.144V207.36H846.774V205.5H853.419ZM860.549 212.07C859.779 212.83 858.839 213.21 857.729 213.21C856.619 213.21 855.679 212.83 854.909 212.07C854.149 211.3 853.769 210.36 853.769 209.25C853.769 208.14 854.149 207.205 854.909 206.445C855.679 205.675 856.619 205.29 857.729 205.29C858.839 205.29 859.779 205.675 860.549 206.445C861.319 207.205 861.704 208.14 861.704 209.25C861.704 210.36 861.319 211.3 860.549 212.07ZM856.274 210.735C856.664 211.125 857.149 211.32 857.729 211.32C858.309 211.32 858.794 211.125 859.184 210.735C859.574 210.345 859.769 209.85 859.769 209.25C859.769 208.65 859.574 208.155 859.184 207.765C858.794 207.375 858.309 207.18 857.729 207.18C857.149 207.18 856.664 207.375 856.274 207.765C855.894 208.155 855.704 208.65 855.704 209.25C855.704 209.85 855.894 210.345 856.274 210.735ZM868.466 209.16C869.166 209.5 869.516 210.07 869.516 210.87C869.516 211.5 869.296 212.015 868.856 212.415C868.426 212.805 867.811 213 867.011 213H863.066V205.5H866.711C867.501 205.5 868.111 205.695 868.541 206.085C868.981 206.475 869.201 206.985 869.201 207.615C869.201 208.275 868.956 208.79 868.466 209.16ZM866.531 207.09H864.881V208.44H866.531C867.081 208.44 867.356 208.215 867.356 207.765C867.356 207.315 867.081 207.09 866.531 207.09ZM866.786 211.365C867.346 211.365 867.626 211.125 867.626 210.645C867.626 210.435 867.551 210.27 867.401 210.15C867.251 210.03 867.046 209.97 866.786 209.97H864.881V211.365H866.786ZM875.324 205.5H877.394L874.664 213C873.904 215.11 872.584 216.11 870.704 216V214.2C871.214 214.21 871.614 214.115 871.904 213.915C872.204 213.715 872.444 213.38 872.624 212.91L869.594 205.5H871.649L873.659 210.54L875.324 205.5ZM883.362 210.315L884.997 211.26C884.697 211.85 884.242 212.325 883.632 212.685C883.022 213.035 882.332 213.21 881.562 213.21C880.412 213.21 879.467 212.845 878.727 212.115C877.997 211.375 877.632 210.42 877.632 209.25C877.632 208.08 877.997 207.13 878.727 206.4C879.467 205.66 880.407 205.29 881.547 205.29C882.307 205.29 882.987 205.465 883.587 205.815C884.197 206.165 884.662 206.635 884.982 207.225L883.347 208.17C883.017 207.49 882.412 207.15 881.532 207.15C881.112 207.15 880.737 207.265 880.407 207.495C880.087 207.715 879.852 208.01 879.702 208.38H882.252V210.12H879.702C879.852 210.49 880.087 210.79 880.407 211.02C880.737 211.24 881.112 211.35 881.532 211.35C881.982 211.35 882.367 211.255 882.687 211.065C883.007 210.875 883.232 210.625 883.362 210.315ZM891.886 205.5V207.36H889.546V213H887.611V207.36H885.241V205.5H891.886ZM894.261 210.045C894.521 210.985 895.226 211.455 896.376 211.455C897.116 211.455 897.676 211.205 898.056 210.705L899.616 211.605C898.876 212.675 897.786 213.21 896.346 213.21C895.106 213.21 894.111 212.835 893.361 212.085C892.611 211.335 892.236 210.39 892.236 209.25C892.236 208.12 892.606 207.18 893.346 206.43C894.086 205.67 895.036 205.29 896.196 205.29C897.296 205.29 898.201 205.67 898.911 206.43C899.631 207.19 899.991 208.13 899.991 209.25C899.991 209.5 899.966 209.765 899.916 210.045H894.261ZM894.231 208.545H898.056C897.946 208.035 897.716 207.655 897.366 207.405C897.026 207.155 896.636 207.03 896.196 207.03C895.676 207.03 895.246 207.165 894.906 207.435C894.566 207.695 894.341 208.065 894.231 208.545ZM904.853 213.21C903.723 213.21 902.778 212.83 902.018 212.07C901.268 211.31 900.893 210.37 900.893 209.25C900.893 208.13 901.268 207.19 902.018 206.43C902.778 205.67 903.723 205.29 904.853 205.29C905.583 205.29 906.248 205.465 906.848 205.815C907.448 206.165 907.903 206.635 908.213 207.225L906.548 208.2C906.398 207.89 906.168 207.645 905.858 207.465C905.558 207.285 905.218 207.195 904.838 207.195C904.258 207.195 903.778 207.39 903.398 207.78C903.018 208.16 902.828 208.65 902.828 209.25C902.828 209.84 903.018 210.33 903.398 210.72C903.778 211.1 904.258 211.29 904.838 211.29C905.228 211.29 905.573 211.205 905.873 211.035C906.183 210.855 906.413 210.61 906.563 210.3L908.243 211.26C907.913 211.85 907.448 212.325 906.848 212.685C906.248 213.035 905.583 213.21 904.853 213.21ZM912.715 207.9C913.565 207.9 914.25 208.135 914.77 208.605C915.29 209.065 915.55 209.68 915.55 210.45C915.55 211.22 915.29 211.84 914.77 212.31C914.25 212.77 913.565 213 912.715 213H909.325V205.5H911.26V207.9H912.715ZM912.73 211.29C913 211.29 913.22 211.215 913.39 211.065C913.57 210.905 913.66 210.7 913.66 210.45C913.66 210.2 913.57 209.995 913.39 209.835C913.22 209.675 913 209.595 912.73 209.595H911.26V211.29H912.73ZM926.427 205.5V207.36H924.087V213H922.152V207.36H919.782V205.5H926.427ZM932.867 205.5H934.802V213H932.867V212.115C932.287 212.845 931.472 213.21 930.422 213.21C929.422 213.21 928.562 212.83 927.842 212.07C927.132 211.3 926.777 210.36 926.777 209.25C926.777 208.14 927.132 207.205 927.842 206.445C928.562 205.675 929.422 205.29 930.422 205.29C931.472 205.29 932.287 205.655 932.867 206.385V205.5ZM929.297 210.78C929.687 211.17 930.182 211.365 930.782 211.365C931.382 211.365 931.877 211.17 932.267 210.78C932.667 210.38 932.867 209.87 932.867 209.25C932.867 208.63 932.667 208.125 932.267 207.735C931.877 207.335 931.382 207.135 930.782 207.135C930.182 207.135 929.687 207.335 929.297 207.735C928.907 208.125 928.712 208.63 928.712 209.25C928.712 209.87 928.907 210.38 929.297 210.78ZM770.734 229.185H771.724V233.01H769.834V231H765.184V233.01H763.294V229.185H764.209C764.639 228.545 764.854 227.66 764.854 226.53V223.5H770.734V229.185ZM766.279 229.185H768.844V225.24H766.744V226.53C766.744 227.59 766.589 228.475 766.279 229.185ZM779.046 230.07C778.276 230.83 777.336 231.21 776.226 231.21C775.116 231.21 774.176 230.83 773.406 230.07C772.646 229.3 772.266 228.36 772.266 227.25C772.266 226.14 772.646 225.205 773.406 224.445C774.176 223.675 775.116 223.29 776.226 223.29C777.336 223.29 778.276 223.675 779.046 224.445C779.816 225.205 780.201 226.14 780.201 227.25C780.201 228.36 779.816 229.3 779.046 230.07ZM774.771 228.735C775.161 229.125 775.646 229.32 776.226 229.32C776.806 229.32 777.291 229.125 777.681 228.735C778.071 228.345 778.266 227.85 778.266 227.25C778.266 226.65 778.071 226.155 777.681 225.765C777.291 225.375 776.806 225.18 776.226 225.18C775.646 225.18 775.161 225.375 774.771 225.765C774.391 226.155 774.201 226.65 774.201 227.25C774.201 227.85 774.391 228.345 774.771 228.735ZM789.362 223.5V231H787.487V226.62L785.582 229.62H785.342L783.422 226.59V231H781.562V223.5H783.467L785.462 226.65L787.457 223.5H789.362ZM797.517 230.07C796.747 230.83 795.807 231.21 794.697 231.21C793.587 231.21 792.647 230.83 791.877 230.07C791.117 229.3 790.737 228.36 790.737 227.25C790.737 226.14 791.117 225.205 791.877 224.445C792.647 223.675 793.587 223.29 794.697 223.29C795.807 223.29 796.747 223.675 797.517 224.445C798.287 225.205 798.672 226.14 798.672 227.25C798.672 228.36 798.287 229.3 797.517 230.07ZM793.242 228.735C793.632 229.125 794.117 229.32 794.697 229.32C795.277 229.32 795.762 229.125 796.152 228.735C796.542 228.345 796.737 227.85 796.737 227.25C796.737 226.65 796.542 226.155 796.152 225.765C795.762 225.375 795.277 225.18 794.697 225.18C794.117 225.18 793.632 225.375 793.242 225.765C792.862 226.155 792.672 226.65 792.672 227.25C792.672 227.85 792.862 228.345 793.242 228.735ZM805.433 227.16C806.133 227.5 806.483 228.07 806.483 228.87C806.483 229.5 806.263 230.015 805.823 230.415C805.393 230.805 804.778 231 803.978 231H800.033V223.5H803.678C804.468 223.5 805.078 223.695 805.508 224.085C805.948 224.475 806.168 224.985 806.168 225.615C806.168 226.275 805.923 226.79 805.433 227.16ZM803.498 225.09H801.848V226.44H803.498C804.048 226.44 804.323 226.215 804.323 225.765C804.323 225.315 804.048 225.09 803.498 225.09ZM803.753 229.365C804.313 229.365 804.593 229.125 804.593 228.645C804.593 228.435 804.518 228.27 804.368 228.15C804.218 228.03 804.013 227.97 803.753 227.97H801.848V229.365H803.753ZM814.056 223.5V231H812.121V225.36H810.051V227.865C810.051 230.185 808.996 231.23 806.886 231V229.185C807.286 229.285 807.591 229.22 807.801 228.99C808.011 228.75 808.116 228.34 808.116 227.76V223.5H814.056ZM821.825 223.5V231H819.935V228.66H819.26L817.535 231H815.3L817.175 228.435C816.695 228.235 816.31 227.92 816.02 227.49C815.74 227.05 815.6 226.58 815.6 226.08C815.6 225.38 815.85 224.775 816.35 224.265C816.85 223.755 817.505 223.5 818.315 223.5H821.825ZM818.465 225.225C818.185 225.225 817.95 225.31 817.76 225.48C817.58 225.64 817.49 225.86 817.49 226.14C817.49 226.41 817.58 226.625 817.76 226.785C817.95 226.945 818.185 227.025 818.465 227.025H819.935V225.225H818.465ZM828.928 228.315L830.563 229.26C830.263 229.85 829.808 230.325 829.198 230.685C828.588 231.035 827.898 231.21 827.128 231.21C825.978 231.21 825.033 230.845 824.293 230.115C823.563 229.375 823.198 228.42 823.198 227.25C823.198 226.08 823.563 225.13 824.293 224.4C825.033 223.66 825.973 223.29 827.113 223.29C827.873 223.29 828.553 223.465 829.153 223.815C829.763 224.165 830.228 224.635 830.548 225.225L828.913 226.17C828.583 225.49 827.978 225.15 827.098 225.15C826.678 225.15 826.303 225.265 825.973 225.495C825.653 225.715 825.418 226.01 825.268 226.38H827.818V228.12H825.268C825.418 228.49 825.653 228.79 825.973 229.02C826.303 229.24 826.678 229.35 827.098 229.35C827.548 229.35 827.933 229.255 828.253 229.065C828.573 228.875 828.798 228.625 828.928 228.315ZM837.452 223.5V225.36H835.112V231H833.177V225.36H830.807V223.5H837.452ZM839.828 228.045C840.088 228.985 840.793 229.455 841.943 229.455C842.683 229.455 843.243 229.205 843.623 228.705L845.183 229.605C844.443 230.675 843.353 231.21 841.913 231.21C840.673 231.21 839.678 230.835 838.928 230.085C838.178 229.335 837.803 228.39 837.803 227.25C837.803 226.12 838.173 225.18 838.913 224.43C839.653 223.67 840.603 223.29 841.763 223.29C842.863 223.29 843.768 223.67 844.478 224.43C845.198 225.19 845.558 226.13 845.558 227.25C845.558 227.5 845.533 227.765 845.483 228.045H839.828ZM839.798 226.545H843.623C843.513 226.035 843.283 225.655 842.933 225.405C842.593 225.155 842.203 225.03 841.763 225.03C841.243 225.03 840.813 225.165 840.473 225.435C840.133 225.695 839.908 226.065 839.798 226.545ZM850.42 231.21C849.29 231.21 848.345 230.83 847.585 230.07C846.835 229.31 846.46 228.37 846.46 227.25C846.46 226.13 846.835 225.19 847.585 224.43C848.345 223.67 849.29 223.29 850.42 223.29C851.15 223.29 851.815 223.465 852.415 223.815C853.015 224.165 853.47 224.635 853.78 225.225L852.115 226.2C851.965 225.89 851.735 225.645 851.425 225.465C851.125 225.285 850.785 225.195 850.405 225.195C849.825 225.195 849.345 225.39 848.965 225.78C848.585 226.16 848.395 226.65 848.395 227.25C848.395 227.84 848.585 228.33 848.965 228.72C849.345 229.1 849.825 229.29 850.405 229.29C850.795 229.29 851.14 229.205 851.44 229.035C851.75 228.855 851.98 228.61 852.13 228.3L853.81 229.26C853.48 229.85 853.015 230.325 852.415 230.685C851.815 231.035 851.15 231.21 850.42 231.21ZM858.282 225.9C859.132 225.9 859.817 226.135 860.337 226.605C860.857 227.065 861.117 227.68 861.117 228.45C861.117 229.22 860.857 229.84 860.337 230.31C859.817 230.77 859.132 231 858.282 231H854.892V223.5H856.827V225.9H858.282ZM858.297 229.29C858.567 229.29 858.787 229.215 858.957 229.065C859.137 228.905 859.227 228.7 859.227 228.45C859.227 228.2 859.137 227.995 858.957 227.835C858.787 227.675 858.567 227.595 858.297 227.595H856.827V229.29H858.297ZM872.938 223.5V231H871.003V225.315H868.018V231H866.083V223.5H872.938ZM879.076 223.29C880.086 223.29 880.946 223.675 881.656 224.445C882.376 225.205 882.736 226.14 882.736 227.25C882.736 228.36 882.376 229.3 881.656 230.07C880.946 230.83 880.086 231.21 879.076 231.21C878.026 231.21 877.216 230.845 876.646 230.115V234H874.711V223.5H876.646V224.385C877.216 223.655 878.026 223.29 879.076 223.29ZM877.231 228.78C877.621 229.17 878.116 229.365 878.716 229.365C879.316 229.365 879.811 229.17 880.201 228.78C880.601 228.38 880.801 227.87 880.801 227.25C880.801 226.63 880.601 226.125 880.201 225.735C879.811 225.335 879.316 225.135 878.716 225.135C878.116 225.135 877.621 225.335 877.231 225.735C876.841 226.125 876.646 226.63 876.646 227.25C876.646 227.87 876.841 228.38 877.231 228.78ZM890.491 230.07C889.721 230.83 888.781 231.21 887.671 231.21C886.561 231.21 885.621 230.83 884.851 230.07C884.091 229.3 883.711 228.36 883.711 227.25C883.711 226.14 884.091 225.205 884.851 224.445C885.621 223.675 886.561 223.29 887.671 223.29C888.781 223.29 889.721 223.675 890.491 224.445C891.261 225.205 891.646 226.14 891.646 227.25C891.646 228.36 891.261 229.3 890.491 230.07ZM886.216 228.735C886.606 229.125 887.091 229.32 887.671 229.32C888.251 229.32 888.736 229.125 889.126 228.735C889.516 228.345 889.711 227.85 889.711 227.25C889.711 226.65 889.516 226.155 889.126 225.765C888.736 225.375 888.251 225.18 887.671 225.18C887.091 225.18 886.606 225.375 886.216 225.765C885.836 226.155 885.646 226.65 885.646 227.25C885.646 227.85 885.836 228.345 886.216 228.735ZM903.507 229.185H904.497V233.01H902.607V231H897.957V233.01H896.067V229.185H896.982C897.412 228.545 897.627 227.66 897.627 226.53V223.5H903.507V229.185ZM899.052 229.185H901.617V225.24H899.517V226.53C899.517 227.59 899.362 228.475 899.052 229.185ZM907.064 228.045C907.324 228.985 908.029 229.455 909.179 229.455C909.919 229.455 910.479 229.205 910.859 228.705L912.419 229.605C911.679 230.675 910.589 231.21 909.149 231.21C907.909 231.21 906.914 230.835 906.164 230.085C905.414 229.335 905.039 228.39 905.039 227.25C905.039 226.12 905.409 225.18 906.149 224.43C906.889 223.67 907.839 223.29 908.999 223.29C910.099 223.29 911.004 223.67 911.714 224.43C912.434 225.19 912.794 226.13 912.794 227.25C912.794 227.5 912.769 227.765 912.719 228.045H907.064ZM907.034 226.545H910.859C910.749 226.035 910.519 225.655 910.169 225.405C909.829 225.155 909.439 225.03 908.999 225.03C908.479 225.03 908.049 225.165 907.709 225.435C907.369 225.695 907.144 226.065 907.034 226.545ZM919.762 223.5V225.36H917.422V231H915.487V225.36H913.117V223.5H919.762ZM926.202 223.5H928.137V231H926.202V230.115C925.622 230.845 924.807 231.21 923.757 231.21C922.757 231.21 921.897 230.83 921.177 230.07C920.467 229.3 920.112 228.36 920.112 227.25C920.112 226.14 920.467 225.205 921.177 224.445C921.897 223.675 922.757 223.29 923.757 223.29C924.807 223.29 925.622 223.655 926.202 224.385V223.5ZM922.632 228.78C923.022 229.17 923.517 229.365 924.117 229.365C924.717 229.365 925.212 229.17 925.602 228.78C926.002 228.38 926.202 227.87 926.202 227.25C926.202 226.63 926.002 226.125 925.602 225.735C925.212 225.335 924.717 225.135 924.117 225.135C923.517 225.135 923.022 225.335 922.632 225.735C922.242 226.125 922.047 226.63 922.047 227.25C922.047 227.87 922.242 228.38 922.632 228.78ZM936.327 223.5V231H934.392V225.36H932.322V227.865C932.322 230.185 931.267 231.23 929.157 231V229.185C929.557 229.285 929.862 229.22 930.072 228.99C930.282 228.75 930.387 228.34 930.387 227.76V223.5H936.327ZM939.04 222.6C938.72 222.6 938.44 222.485 938.2 222.255C937.97 222.015 937.855 221.735 937.855 221.415C937.855 221.095 937.97 220.815 938.2 220.575C938.44 220.335 938.72 220.215 939.04 220.215C939.37 220.215 939.65 220.335 939.88 220.575C940.12 220.815 940.24 221.095 940.24 221.415C940.24 221.735 940.12 222.015 939.88 222.255C939.65 222.485 939.37 222.6 939.04 222.6ZM938.08 231V223.5H940.015V231H938.08ZM835.676 248.07C834.906 248.83 833.966 249.21 832.856 249.21C831.746 249.21 830.806 248.83 830.036 248.07C829.276 247.3 828.896 246.36 828.896 245.25C828.896 244.14 829.276 243.205 830.036 242.445C830.806 241.675 831.746 241.29 832.856 241.29C833.966 241.29 834.906 241.675 835.676 242.445C836.446 243.205 836.831 244.14 836.831 245.25C836.831 246.36 836.446 247.3 835.676 248.07ZM831.401 246.735C831.791 247.125 832.276 247.32 832.856 247.32C833.436 247.32 833.921 247.125 834.311 246.735C834.701 246.345 834.896 245.85 834.896 245.25C834.896 244.65 834.701 244.155 834.311 243.765C833.921 243.375 833.436 243.18 832.856 243.18C832.276 243.18 831.791 243.375 831.401 243.765C831.021 244.155 830.831 244.65 830.831 245.25C830.831 245.85 831.021 246.345 831.401 246.735ZM841.748 249.21C840.568 249.21 839.613 248.83 838.883 248.07C838.163 247.31 837.803 246.345 837.803 245.175C837.803 243.895 837.993 242.91 838.373 242.22C838.753 241.52 839.518 240.885 840.668 240.315C840.838 240.235 841.078 240.125 841.388 239.985C841.698 239.835 841.908 239.73 842.018 239.67C842.138 239.61 842.298 239.52 842.498 239.4C842.698 239.28 842.838 239.175 842.918 239.085C843.008 238.985 843.103 238.86 843.203 238.71C843.303 238.56 843.383 238.395 843.443 238.215L845.033 239.13C844.903 239.74 844.608 240.215 844.148 240.555C843.698 240.885 843.018 241.225 842.108 241.575C841.468 241.825 841.003 242.075 840.713 242.325C840.423 242.575 840.213 242.875 840.083 243.225C840.643 242.655 841.393 242.37 842.333 242.37C843.163 242.37 843.903 242.675 844.553 243.285C845.203 243.885 845.528 244.685 845.528 245.685C845.528 246.715 845.178 247.56 844.478 248.22C843.788 248.88 842.878 249.21 841.748 249.21ZM840.368 246.93C840.738 247.27 841.193 247.44 841.733 247.44C842.273 247.44 842.718 247.275 843.068 246.945C843.418 246.615 843.593 246.195 843.593 245.685C843.593 245.175 843.418 244.755 843.068 244.425C842.718 244.085 842.268 243.915 841.718 243.915C841.228 243.915 840.788 244.07 840.398 244.38C840.018 244.69 839.828 245.105 839.828 245.625C839.828 246.155 840.008 246.59 840.368 246.93ZM854.503 241.5V249H852.628V244.62L850.723 247.62H850.483L848.563 244.59V249H846.703V241.5H848.608L850.603 244.65L852.598 241.5H854.503ZM857.229 240.6C856.909 240.6 856.629 240.485 856.389 240.255C856.159 240.015 856.044 239.735 856.044 239.415C856.044 239.095 856.159 238.815 856.389 238.575C856.629 238.335 856.909 238.215 857.229 238.215C857.559 238.215 857.839 238.335 858.069 238.575C858.309 238.815 858.429 239.095 858.429 239.415C858.429 239.735 858.309 240.015 858.069 240.255C857.839 240.485 857.559 240.6 857.229 240.6ZM856.269 249V241.5H858.204V249H856.269ZM864.895 241.5H866.83V249H864.895V246.15H861.91V249H859.975V241.5H861.91V244.335H864.895V241.5ZM873.493 241.5H875.563L872.833 249C872.073 251.11 870.753 252.11 868.873 252V250.2C869.383 250.21 869.783 250.115 870.073 249.915C870.373 249.715 870.613 249.38 870.793 248.91L867.763 241.5H869.818L871.828 246.54L873.493 241.5Z" fill="#404040"/>
<circle cx="416.013" cy="85.6631" r="13.2177" fill="white" stroke="#C4C4C4" stroke-dasharray="2 2"/>
<path d="M412.598 90.8867V89.7467L416.303 85.9667C417.293 84.9767 417.788 84.1267 417.788 83.4167C417.788 82.8267 417.608 82.3667 417.248 82.0367C416.888 81.7067 416.448 81.5417 415.928 81.5417C414.938 81.5417 414.218 82.0117 413.768 82.9517L412.598 82.2617C412.928 81.5817 413.383 81.0667 413.963 80.7167C414.553 80.3667 415.203 80.1917 415.913 80.1917C416.793 80.1917 417.558 80.4817 418.208 81.0617C418.858 81.6417 419.183 82.4217 419.183 83.4017C419.183 84.4617 418.558 85.6167 417.308 86.8667L414.623 89.5367H419.378V90.8867H412.598Z" fill="#C4C4C4"/>
<path d="M421.705 179.5V190H419.65V183.19L416.695 188.065H416.455L413.5 183.205V190H411.43V179.5H413.56L416.575 184.465L419.575 179.5H421.705ZM428.986 182.5H430.426V190H428.536V185.74L425.011 190H423.571V182.5H425.461V186.76L428.986 182.5ZM444.739 182.5H446.674V190H435.949V182.5H437.884V188.185H440.344V182.5H442.279V188.185H444.739V182.5ZM453.334 182.5H455.404L452.674 190C451.914 192.11 450.594 193.11 448.714 193V191.2C449.224 191.21 449.624 191.115 449.914 190.915C450.214 190.715 450.454 190.38 450.634 189.91L447.604 182.5H449.659L451.669 187.54L453.334 182.5ZM463.24 190H460.99L458.26 186.595V190H456.325V182.5H458.26V185.8L460.84 182.5H463.15L460.135 186.205L463.24 190ZM469.364 182.5H471.299V190H469.364V189.115C468.784 189.845 467.969 190.21 466.919 190.21C465.919 190.21 465.059 189.83 464.339 189.07C463.629 188.3 463.274 187.36 463.274 186.25C463.274 185.14 463.629 184.205 464.339 183.445C465.059 182.675 465.919 182.29 466.919 182.29C467.969 182.29 468.784 182.655 469.364 183.385V182.5ZM465.794 187.78C466.184 188.17 466.679 188.365 467.279 188.365C467.879 188.365 468.374 188.17 468.764 187.78C469.164 187.38 469.364 186.87 469.364 186.25C469.364 185.63 469.164 185.125 468.764 184.735C468.374 184.335 467.879 184.135 467.279 184.135C466.679 184.135 466.184 184.335 465.794 184.735C465.404 185.125 465.209 185.63 465.209 186.25C465.209 186.87 465.404 187.38 465.794 187.78ZM478.393 187.315L480.028 188.26C479.728 188.85 479.273 189.325 478.663 189.685C478.053 190.035 477.363 190.21 476.593 190.21C475.443 190.21 474.498 189.845 473.758 189.115C473.028 188.375 472.663 187.42 472.663 186.25C472.663 185.08 473.028 184.13 473.758 183.4C474.498 182.66 475.438 182.29 476.578 182.29C477.338 182.29 478.018 182.465 478.618 182.815C479.228 183.165 479.693 183.635 480.013 184.225L478.378 185.17C478.048 184.49 477.443 184.15 476.563 184.15C476.143 184.15 475.768 184.265 475.438 184.495C475.118 184.715 474.883 185.01 474.733 185.38H477.283V187.12H474.733C474.883 187.49 475.118 187.79 475.438 188.02C475.768 188.24 476.143 188.35 476.563 188.35C477.013 188.35 477.398 188.255 477.718 188.065C478.038 187.875 478.263 187.625 478.393 187.315ZM488.91 182.5V190H487.035V185.62L485.13 188.62H484.89L482.97 185.59V190H481.11V182.5H483.015L485.01 185.65L487.005 182.5H488.91ZM497.066 189.07C496.296 189.83 495.356 190.21 494.246 190.21C493.136 190.21 492.196 189.83 491.426 189.07C490.666 188.3 490.286 187.36 490.286 186.25C490.286 185.14 490.666 184.205 491.426 183.445C492.196 182.675 493.136 182.29 494.246 182.29C495.356 182.29 496.296 182.675 497.066 183.445C497.836 184.205 498.221 185.14 498.221 186.25C498.221 187.36 497.836 188.3 497.066 189.07ZM492.791 187.735C493.181 188.125 493.666 188.32 494.246 188.32C494.826 188.32 495.311 188.125 495.701 187.735C496.091 187.345 496.286 186.85 496.286 186.25C496.286 185.65 496.091 185.155 495.701 184.765C495.311 184.375 494.826 184.18 494.246 184.18C493.666 184.18 493.181 184.375 492.791 184.765C492.411 185.155 492.221 185.65 492.221 186.25C492.221 186.85 492.411 187.345 492.791 187.735ZM508.252 182.5H510.187V190H508.252V187.15H505.267V190H503.332V182.5H505.267V185.335H508.252V182.5ZM517.66 182.5H519.595V190H517.66V189.115C517.08 189.845 516.265 190.21 515.215 190.21C514.215 190.21 513.355 189.83 512.635 189.07C511.925 188.3 511.57 187.36 511.57 186.25C511.57 185.14 511.925 184.205 512.635 183.445C513.355 182.675 514.215 182.29 515.215 182.29C516.265 182.29 517.08 182.655 517.66 183.385V182.5ZM514.09 187.78C514.48 188.17 514.975 188.365 515.575 188.365C516.175 188.365 516.67 188.17 517.06 187.78C517.46 187.38 517.66 186.87 517.66 186.25C517.66 185.63 517.46 185.125 517.06 184.735C516.67 184.335 516.175 184.135 515.575 184.135C514.975 184.135 514.48 184.335 514.09 184.735C513.7 185.125 513.505 185.63 513.505 186.25C513.505 186.87 513.7 187.38 514.09 187.78ZM528.264 190H526.014L523.284 186.595V190H521.349V182.5H523.284V185.8L525.864 182.5H528.174L525.159 186.205L528.264 190ZM533.595 182.29C534.605 182.29 535.465 182.675 536.175 183.445C536.895 184.205 537.255 185.14 537.255 186.25C537.255 187.36 536.895 188.3 536.175 189.07C535.465 189.83 534.605 190.21 533.595 190.21C532.545 190.21 531.735 189.845 531.165 189.115V193H529.23V182.5H531.165V183.385C531.735 182.655 532.545 182.29 533.595 182.29ZM531.75 187.78C532.14 188.17 532.635 188.365 533.235 188.365C533.835 188.365 534.33 188.17 534.72 187.78C535.12 187.38 535.32 186.87 535.32 186.25C535.32 185.63 535.12 185.125 534.72 184.735C534.33 184.335 533.835 184.135 533.235 184.135C532.635 184.135 532.14 184.335 531.75 184.735C531.36 185.125 531.165 185.63 531.165 186.25C531.165 186.87 531.36 187.38 531.75 187.78ZM544.32 182.5H546.255V190H544.32V189.115C543.74 189.845 542.925 190.21 541.875 190.21C540.875 190.21 540.015 189.83 539.295 189.07C538.585 188.3 538.23 187.36 538.23 186.25C538.23 185.14 538.585 184.205 539.295 183.445C540.015 182.675 540.875 182.29 541.875 182.29C542.925 182.29 543.74 182.655 544.32 183.385V182.5ZM540.75 187.78C541.14 188.17 541.635 188.365 542.235 188.365C542.835 188.365 543.33 188.17 543.72 187.78C544.12 187.38 544.32 186.87 544.32 186.25C544.32 185.63 544.12 185.125 543.72 184.735C543.33 184.335 542.835 184.135 542.235 184.135C541.635 184.135 541.14 184.335 540.75 184.735C540.36 185.125 540.165 185.63 540.165 186.25C540.165 186.87 540.36 187.38 540.75 187.78ZM558.51 188.185H559.5V192.01H557.61V190H548.01V182.5H549.945V188.185H552.285V182.5H554.22V188.185H556.575V182.5H558.51V188.185ZM561.684 181.6C561.364 181.6 561.084 181.485 560.844 181.255C560.614 181.015 560.499 180.735 560.499 180.415C560.499 180.095 560.614 179.815 560.844 179.575C561.084 179.335 561.364 179.215 561.684 179.215C562.014 179.215 562.294 179.335 562.524 179.575C562.764 179.815 562.884 180.095 562.884 180.415C562.884 180.735 562.764 181.015 562.524 181.255C562.294 181.485 562.014 181.6 561.684 181.6ZM560.724 190V182.5H562.659V190H560.724ZM393.112 204.16C393.812 204.5 394.162 205.07 394.162 205.87C394.162 206.5 393.942 207.015 393.502 207.415C393.072 207.805 392.457 208 391.657 208H387.712V200.5H391.357C392.147 200.5 392.757 200.695 393.187 201.085C393.627 201.475 393.847 201.985 393.847 202.615C393.847 203.275 393.602 203.79 393.112 204.16ZM391.177 202.09H389.527V203.44H391.177C391.727 203.44 392.002 203.215 392.002 202.765C392.002 202.315 391.727 202.09 391.177 202.09ZM391.432 206.365C391.992 206.365 392.272 206.125 392.272 205.645C392.272 205.435 392.197 205.27 392.047 205.15C391.897 205.03 391.692 204.97 391.432 204.97H389.527V206.365H391.432ZM401.073 200.5H403.008V208H401.073V207.115C400.493 207.845 399.678 208.21 398.628 208.21C397.628 208.21 396.768 207.83 396.048 207.07C395.338 206.3 394.983 205.36 394.983 204.25C394.983 203.14 395.338 202.205 396.048 201.445C396.768 200.675 397.628 200.29 398.628 200.29C399.678 200.29 400.493 200.655 401.073 201.385V200.5ZM397.503 205.78C397.893 206.17 398.388 206.365 398.988 206.365C399.588 206.365 400.083 206.17 400.473 205.78C400.873 205.38 401.073 204.87 401.073 204.25C401.073 203.63 400.873 203.125 400.473 202.735C400.083 202.335 399.588 202.135 398.988 202.135C398.388 202.135 397.893 202.335 397.503 202.735C397.113 203.125 396.918 203.63 396.918 204.25C396.918 204.87 397.113 205.38 397.503 205.78ZM409.127 200.29C410.137 200.29 410.997 200.675 411.707 201.445C412.427 202.205 412.787 203.14 412.787 204.25C412.787 205.36 412.427 206.3 411.707 207.07C410.997 207.83 410.137 208.21 409.127 208.21C408.077 208.21 407.267 207.845 406.697 207.115V211H404.762V200.5H406.697V201.385C407.267 200.655 408.077 200.29 409.127 200.29ZM407.282 205.78C407.672 206.17 408.167 206.365 408.767 206.365C409.367 206.365 409.862 206.17 410.252 205.78C410.652 205.38 410.852 204.87 410.852 204.25C410.852 203.63 410.652 203.125 410.252 202.735C409.862 202.335 409.367 202.135 408.767 202.135C408.167 202.135 407.672 202.335 407.282 202.735C406.892 203.125 406.697 203.63 406.697 204.25C406.697 204.87 406.892 205.38 407.282 205.78ZM415.112 199.6C414.792 199.6 414.512 199.485 414.272 199.255C414.042 199.015 413.927 198.735 413.927 198.415C413.927 198.095 414.042 197.815 414.272 197.575C414.512 197.335 414.792 197.215 415.112 197.215C415.442 197.215 415.722 197.335 415.952 197.575C416.192 197.815 416.312 198.095 416.312 198.415C416.312 198.735 416.192 199.015 415.952 199.255C415.722 199.485 415.442 199.6 415.112 199.6ZM414.152 208V200.5H416.087V208H414.152ZM423.558 200.5H425.493V208H423.558V207.115C422.978 207.845 422.163 208.21 421.113 208.21C420.113 208.21 419.253 207.83 418.533 207.07C417.823 206.3 417.468 205.36 417.468 204.25C417.468 203.14 417.823 202.205 418.533 201.445C419.253 200.675 420.113 200.29 421.113 200.29C422.163 200.29 422.978 200.655 423.558 201.385V200.5ZM419.988 205.78C420.378 206.17 420.873 206.365 421.473 206.365C422.073 206.365 422.568 206.17 422.958 205.78C423.358 205.38 423.558 204.87 423.558 204.25C423.558 203.63 423.358 203.125 422.958 202.735C422.568 202.335 422.073 202.135 421.473 202.135C420.873 202.135 420.378 202.335 419.988 202.735C419.598 203.125 419.403 203.63 419.403 204.25C419.403 204.87 419.598 205.38 419.988 205.78ZM432.168 200.5H434.103V208H432.168V205.15H429.183V208H427.248V200.5H429.183V203.335H432.168V200.5ZM441.786 200.5V202.36H439.446V208H437.511V202.36H435.141V200.5H441.786ZM448.234 200.5H449.674V208H447.784V203.74L444.259 208H442.819V200.5H444.709V204.76L448.234 200.5ZM461.947 206.185H462.937V210.01H461.047V208H456.397V210.01H454.507V206.185H455.422C455.852 205.545 456.067 204.66 456.067 203.53V200.5H461.947V206.185ZM457.492 206.185H460.057V202.24H457.957V203.53C457.957 204.59 457.802 205.475 457.492 206.185ZM470.597 200.5V208H468.662V202.36H466.592V204.865C466.592 207.185 465.537 208.23 463.427 208V206.185C463.827 206.285 464.132 206.22 464.342 205.99C464.552 205.75 464.657 205.34 464.657 204.76V200.5H470.597ZM478.365 200.5V208H476.475V205.66H475.8L474.075 208H471.84L473.715 205.435C473.235 205.235 472.85 204.92 472.56 204.49C472.28 204.05 472.14 203.58 472.14 203.08C472.14 202.38 472.39 201.775 472.89 201.265C473.39 200.755 474.045 200.5 474.855 200.5H478.365ZM475.005 202.225C474.725 202.225 474.49 202.31 474.3 202.48C474.12 202.64 474.03 202.86 474.03 203.14C474.03 203.41 474.12 203.625 474.3 203.785C474.49 203.945 474.725 204.025 475.005 204.025H476.475V202.225H475.005ZM489.279 204.16C489.979 204.5 490.329 205.07 490.329 205.87C490.329 206.5 490.109 207.015 489.669 207.415C489.239 207.805 488.624 208 487.824 208H483.879V200.5H487.524C488.314 200.5 488.924 200.695 489.354 201.085C489.794 201.475 490.014 201.985 490.014 202.615C490.014 203.275 489.769 203.79 489.279 204.16ZM487.344 202.09H485.694V203.44H487.344C487.894 203.44 488.169 203.215 488.169 202.765C488.169 202.315 487.894 202.09 487.344 202.09ZM487.599 206.365C488.159 206.365 488.439 206.125 488.439 205.645C488.439 205.435 488.364 205.27 488.214 205.15C488.064 205.03 487.859 204.97 487.599 204.97H485.694V206.365H487.599ZM497.24 200.5H499.175V208H497.24V207.115C496.66 207.845 495.845 208.21 494.795 208.21C493.795 208.21 492.935 207.83 492.215 207.07C491.505 206.3 491.15 205.36 491.15 204.25C491.15 203.14 491.505 202.205 492.215 201.445C492.935 200.675 493.795 200.29 494.795 200.29C495.845 200.29 496.66 200.655 497.24 201.385V200.5ZM493.67 205.78C494.06 206.17 494.555 206.365 495.155 206.365C495.755 206.365 496.25 206.17 496.64 205.78C497.04 205.38 497.24 204.87 497.24 204.25C497.24 203.63 497.04 203.125 496.64 202.735C496.25 202.335 495.755 202.135 495.155 202.135C494.555 202.135 494.06 202.335 493.67 202.735C493.28 203.125 493.085 203.63 493.085 204.25C493.085 204.87 493.28 205.38 493.67 205.78ZM509.719 200.5H511.654V208H500.929V200.5H502.864V206.185H505.324V200.5H507.259V206.185H509.719V200.5ZM519.815 207.07C519.045 207.83 518.105 208.21 516.995 208.21C515.885 208.21 514.945 207.83 514.175 207.07C513.415 206.3 513.035 205.36 513.035 204.25C513.035 203.14 513.415 202.205 514.175 201.445C514.945 200.675 515.885 200.29 516.995 200.29C518.105 200.29 519.045 200.675 519.815 201.445C520.585 202.205 520.97 203.14 520.97 204.25C520.97 205.36 520.585 206.3 519.815 207.07ZM515.54 205.735C515.93 206.125 516.415 206.32 516.995 206.32C517.575 206.32 518.06 206.125 518.45 205.735C518.84 205.345 519.035 204.85 519.035 204.25C519.035 203.65 518.84 203.155 518.45 202.765C518.06 202.375 517.575 202.18 516.995 202.18C516.415 202.18 515.93 202.375 515.54 202.765C515.16 203.155 514.97 203.65 514.97 204.25C514.97 204.85 515.16 205.345 515.54 205.735ZM527.461 200.5V202.36H524.266V208H522.331V200.5H527.461ZM534.595 207.07C533.825 207.83 532.885 208.21 531.775 208.21C530.665 208.21 529.725 207.83 528.955 207.07C528.195 206.3 527.815 205.36 527.815 204.25C527.815 203.14 528.195 202.205 528.955 201.445C529.725 200.675 530.665 200.29 531.775 200.29C532.885 200.29 533.825 200.675 534.595 201.445C535.365 202.205 535.75 203.14 535.75 204.25C535.75 205.36 535.365 206.3 534.595 207.07ZM530.32 205.735C530.71 206.125 531.195 206.32 531.775 206.32C532.355 206.32 532.84 206.125 533.23 205.735C533.62 205.345 533.815 204.85 533.815 204.25C533.815 203.65 533.62 203.155 533.23 202.765C532.84 202.375 532.355 202.18 531.775 202.18C531.195 202.18 530.71 202.375 530.32 202.765C529.94 203.155 529.75 203.65 529.75 204.25C529.75 204.85 529.94 205.345 530.32 205.735ZM547.251 207.07C546.481 207.83 545.541 208.21 544.431 208.21C543.321 208.21 542.381 207.83 541.611 207.07C540.851 206.3 540.471 205.36 540.471 204.25C540.471 203.14 540.851 202.205 541.611 201.445C542.381 200.675 543.321 200.29 544.431 200.29C545.541 200.29 546.481 200.675 547.251 201.445C548.021 202.205 548.406 203.14 548.406 204.25C548.406 205.36 548.021 206.3 547.251 207.07ZM542.976 205.735C543.366 206.125 543.851 206.32 544.431 206.32C545.011 206.32 545.496 206.125 545.886 205.735C546.276 205.345 546.471 204.85 546.471 204.25C546.471 203.65 546.276 203.155 545.886 202.765C545.496 202.375 545.011 202.18 544.431 202.18C543.851 202.18 543.366 202.375 542.976 202.765C542.596 203.155 542.406 203.65 542.406 204.25C542.406 204.85 542.596 205.345 542.976 205.735ZM553.322 208.21C552.142 208.21 551.187 207.83 550.457 207.07C549.737 206.31 549.377 205.345 549.377 204.175C549.377 202.895 549.567 201.91 549.947 201.22C550.327 200.52 551.092 199.885 552.242 199.315C552.412 199.235 552.652 199.125 552.962 198.985C553.272 198.835 553.482 198.73 553.592 198.67C553.712 198.61 553.872 198.52 554.072 198.4C554.272 198.28 554.412 198.175 554.492 198.085C554.582 197.985 554.677 197.86 554.777 197.71C554.877 197.56 554.957 197.395 555.017 197.215L556.607 198.13C556.477 198.74 556.182 199.215 555.722 199.555C555.272 199.885 554.592 200.225 553.682 200.575C553.042 200.825 552.577 201.075 552.287 201.325C551.997 201.575 551.787 201.875 551.657 202.225C552.217 201.655 552.967 201.37 553.907 201.37C554.737 201.37 555.477 201.675 556.127 202.285C556.777 202.885 557.102 203.685 557.102 204.685C557.102 205.715 556.752 206.56 556.052 207.22C555.362 207.88 554.452 208.21 553.322 208.21ZM551.942 205.93C552.312 206.27 552.767 206.44 553.307 206.44C553.847 206.44 554.292 206.275 554.642 205.945C554.992 205.615 555.167 205.195 555.167 204.685C555.167 204.175 554.992 203.755 554.642 203.425C554.292 203.085 553.842 202.915 553.292 202.915C552.802 202.915 552.362 203.07 551.972 203.38C551.592 203.69 551.402 204.105 551.402 204.625C551.402 205.155 551.582 205.59 551.942 205.93ZM566.078 200.5V208H564.203V203.62L562.298 206.62H562.058L560.138 203.59V208H558.278V200.5H560.183L562.178 203.65L564.173 200.5H566.078ZM568.803 199.6C568.483 199.6 568.203 199.485 567.963 199.255C567.733 199.015 567.618 198.735 567.618 198.415C567.618 198.095 567.733 197.815 567.963 197.575C568.203 197.335 568.483 197.215 568.803 197.215C569.133 197.215 569.413 197.335 569.643 197.575C569.883 197.815 570.003 198.095 570.003 198.415C570.003 198.735 569.883 199.015 569.643 199.255C569.413 199.485 569.133 199.6 568.803 199.6ZM567.843 208V200.5H569.778V208H567.843ZM576.47 200.5H578.405V208H576.47V205.15H573.485V208H571.55V200.5H573.485V203.335H576.47V200.5ZM585.067 200.5H587.137L584.407 208C583.647 210.11 582.327 211.11 580.447 211V209.2C580.957 209.21 581.357 209.115 581.647 208.915C581.947 208.715 582.187 208.38 582.367 207.91L579.337 200.5H581.392L583.402 205.54L585.067 200.5Z" fill="#404040"/>
<g filter="url(#filter0_d_801_2)">
<path d="M452 124.805C452 104.478 468.478 88 488.805 88V88C509.132 88 525.61 104.478 525.61 124.805V125.92C525.61 146.247 509.132 162.725 488.805 162.725V162.725C468.478 162.725 452 146.247 452 125.92V124.805Z" fill="white"/>
</g>
<path d="M486.993 110.164C478.691 110.164 471.936 116.919 471.936 125.221C471.936 133.522 478.691 140.277 486.993 140.277C490.333 140.276 493.577 139.158 496.209 137.1L504.482 145.374L507.144 142.712L498.87 134.439C500.929 131.807 502.048 128.562 502.049 125.221C502.049 116.919 495.294 110.164 486.993 110.164Z" fill="#FFD500"/>
<circle cx="1014.37" cy="60.8388" r="13.2177" fill="white" stroke="#C4C4C4" stroke-dasharray="2 2"/>
<path d="M1018.4 63.7625V65.0675H1017.13V67.0625H1015.73V65.0675H1010.38V63.7625L1014.14 56.5625H1015.64L1011.88 63.7625H1015.73V60.7925H1017.13V63.7625H1018.4Z" fill="#C4C4C4"/>
<path d="M1000.38 129.489C1001.3 130.019 1001.76 130.819 1001.76 131.889C1001.76 132.779 1001.44 133.509 1000.81 134.079C1000.18 134.649 999.407 134.934 998.487 134.934H994.032V124.434H998.172C999.072 124.434 999.827 124.714 1000.44 125.274C1001.06 125.824 1001.37 126.529 1001.37 127.389C1001.37 128.259 1001.04 128.959 1000.38 129.489ZM998.172 126.369H996.102V128.679H998.172C998.492 128.679 998.757 128.569 998.967 128.349C999.187 128.129 999.297 127.854 999.297 127.524C999.297 127.194 999.192 126.919 998.982 126.699C998.772 126.479 998.502 126.369 998.172 126.369ZM998.487 132.999C998.837 132.999 999.127 132.884 999.357 132.654C999.587 132.414 999.702 132.114 999.702 131.754C999.702 131.404 999.587 131.114 999.357 130.884C999.127 130.644 998.837 130.524 998.487 130.524H996.102V132.999H998.487ZM1008.84 127.434H1010.78V134.934H1008.84V134.049C1008.26 134.779 1007.45 135.144 1006.4 135.144C1005.4 135.144 1004.54 134.764 1003.82 134.004C1003.11 133.234 1002.75 132.294 1002.75 131.184C1002.75 130.074 1003.11 129.139 1003.82 128.379C1004.54 127.609 1005.4 127.224 1006.4 127.224C1007.45 127.224 1008.26 127.589 1008.84 128.319V127.434ZM1005.27 132.714C1005.66 133.104 1006.16 133.299 1006.76 133.299C1007.36 133.299 1007.85 133.104 1008.24 132.714C1008.64 132.314 1008.84 131.804 1008.84 131.184C1008.84 130.564 1008.64 130.059 1008.24 129.669C1007.85 129.269 1007.36 129.069 1006.76 129.069C1006.16 129.069 1005.66 129.269 1005.27 129.669C1004.88 130.059 1004.69 130.564 1004.69 131.184C1004.69 131.804 1004.88 132.314 1005.27 132.714ZM1021.32 127.434H1023.26V134.934H1012.53V127.434H1014.47V133.119H1016.93V127.434H1018.86V133.119H1021.32V127.434ZM1034.18 131.094C1034.88 131.434 1035.23 132.004 1035.23 132.804C1035.23 133.434 1035.01 133.949 1034.57 134.349C1034.14 134.739 1033.52 134.934 1032.72 134.934H1028.78V127.434H1032.42C1033.21 127.434 1033.82 127.629 1034.25 128.019C1034.69 128.409 1034.91 128.919 1034.91 129.549C1034.91 130.209 1034.67 130.724 1034.18 131.094ZM1032.24 129.024H1030.59V130.374H1032.24C1032.79 130.374 1033.07 130.149 1033.07 129.699C1033.07 129.249 1032.79 129.024 1032.24 129.024ZM1032.5 133.299C1033.06 133.299 1033.34 133.059 1033.34 132.579C1033.34 132.369 1033.26 132.204 1033.11 132.084C1032.96 131.964 1032.76 131.904 1032.5 131.904H1030.59V133.299H1032.5ZM1037.4 126.534C1037.08 126.534 1036.8 126.419 1036.56 126.189C1036.33 125.949 1036.21 125.669 1036.21 125.349C1036.21 125.029 1036.33 124.749 1036.56 124.509C1036.8 124.269 1037.08 124.149 1037.4 124.149C1037.73 124.149 1038.01 124.269 1038.24 124.509C1038.48 124.749 1038.6 125.029 1038.6 125.349C1038.6 125.669 1038.48 125.949 1038.24 126.189C1038.01 126.419 1037.73 126.534 1037.4 126.534ZM1036.44 134.934V127.434H1038.37V134.934H1036.44ZM1046.89 133.119H1047.88V136.944H1045.99V134.934H1041.34V136.944H1039.45V133.119H1040.37C1040.8 132.479 1041.01 131.594 1041.01 130.464V127.434H1046.89V133.119ZM1042.44 133.119H1045V129.174H1042.9V130.464C1042.9 131.524 1042.75 132.409 1042.44 133.119ZM1055.96 127.434V134.934H1054.03V129.249H1051.04V134.934H1049.11V127.434H1055.96ZM1064.13 134.004C1063.36 134.764 1062.42 135.144 1061.31 135.144C1060.2 135.144 1059.26 134.764 1058.49 134.004C1057.73 133.234 1057.35 132.294 1057.35 131.184C1057.35 130.074 1057.73 129.139 1058.49 128.379C1059.26 127.609 1060.2 127.224 1061.31 127.224C1062.42 127.224 1063.36 127.609 1064.13 128.379C1064.9 129.139 1065.28 130.074 1065.28 131.184C1065.28 132.294 1064.9 133.234 1064.13 134.004ZM1059.85 132.669C1060.24 133.059 1060.73 133.254 1061.31 133.254C1061.89 133.254 1062.37 133.059 1062.76 132.669C1063.15 132.279 1063.35 131.784 1063.35 131.184C1063.35 130.584 1063.15 130.089 1062.76 129.699C1062.37 129.309 1061.89 129.114 1061.31 129.114C1060.73 129.114 1060.24 129.309 1059.85 129.699C1059.47 130.089 1059.28 130.584 1059.28 131.184C1059.28 131.784 1059.47 132.279 1059.85 132.669ZM1070.91 127.434H1072.84V134.934H1070.91V132.549C1070.35 132.729 1069.75 132.819 1069.12 132.819C1068.21 132.819 1067.48 132.589 1066.93 132.129C1066.39 131.669 1066.12 130.999 1066.12 130.119V127.434H1068.06V129.894C1068.06 130.644 1068.52 131.019 1069.45 131.019C1069.99 131.019 1070.48 130.924 1070.91 130.734V127.434ZM1080.01 127.434H1081.45V134.934H1079.56V130.674L1076.04 134.934H1074.6V127.434H1076.49V131.694L1080.01 127.434ZM1088.14 127.434H1090.08V134.934H1088.14V132.084H1085.16V134.934H1083.22V127.434H1085.16V130.269H1088.14V127.434ZM1098.24 134.004C1097.47 134.764 1096.53 135.144 1095.42 135.144C1094.31 135.144 1093.37 134.764 1092.6 134.004C1091.84 133.234 1091.46 132.294 1091.46 131.184C1091.46 130.074 1091.84 129.139 1092.6 128.379C1093.37 127.609 1094.31 127.224 1095.42 127.224C1096.53 127.224 1097.47 127.609 1098.24 128.379C1099.01 129.139 1099.4 130.074 1099.4 131.184C1099.4 132.294 1099.01 133.234 1098.24 134.004ZM1093.97 132.669C1094.36 133.059 1094.84 133.254 1095.42 133.254C1096 133.254 1096.49 133.059 1096.88 132.669C1097.27 132.279 1097.46 131.784 1097.46 131.184C1097.46 130.584 1097.27 130.089 1096.88 129.699C1096.49 129.309 1096 129.114 1095.42 129.114C1094.84 129.114 1094.36 129.309 1093.97 129.699C1093.59 130.089 1093.4 130.584 1093.4 131.184C1093.4 131.784 1093.59 132.279 1093.97 132.669ZM1107.67 134.934H1105.42L1102.69 131.529V134.934H1100.76V127.434H1102.69V130.734L1105.27 127.434H1107.58L1104.57 131.139L1107.67 134.934ZM1116.78 131.109C1117.54 131.479 1117.92 132.074 1117.92 132.894C1117.92 133.534 1117.66 134.069 1117.13 134.499C1116.6 134.929 1115.85 135.144 1114.89 135.144C1113.37 135.144 1112.34 134.544 1111.79 133.344L1113.36 132.414C1113.6 133.094 1114.12 133.434 1114.91 133.434C1115.27 133.434 1115.54 133.364 1115.73 133.224C1115.93 133.084 1116.03 132.894 1116.03 132.654C1116.03 132.194 1115.74 131.964 1115.15 131.964H1114.08V130.314H1114.89C1115.47 130.314 1115.76 130.084 1115.76 129.624C1115.76 129.404 1115.68 129.229 1115.51 129.099C1115.34 128.969 1115.11 128.904 1114.83 128.904C1114.18 128.904 1113.72 129.219 1113.44 129.849L1111.88 128.949C1112.45 127.799 1113.42 127.224 1114.8 127.224C1115.66 127.224 1116.34 127.444 1116.84 127.884C1117.35 128.314 1117.61 128.839 1117.61 129.459C1117.61 130.189 1117.33 130.739 1116.78 131.109ZM1124.84 127.434H1126.78V134.934H1124.84V134.049C1124.26 134.779 1123.45 135.144 1122.4 135.144C1121.4 135.144 1120.54 134.764 1119.82 134.004C1119.11 133.234 1118.75 132.294 1118.75 131.184C1118.75 130.074 1119.11 129.139 1119.82 128.379C1120.54 127.609 1121.4 127.224 1122.4 127.224C1123.45 127.224 1124.26 127.589 1124.84 128.319V127.434ZM1121.27 132.714C1121.66 133.104 1122.16 133.299 1122.76 133.299C1123.36 133.299 1123.85 133.104 1124.24 132.714C1124.64 132.314 1124.84 131.804 1124.84 131.184C1124.84 130.564 1124.64 130.059 1124.24 129.669C1123.85 129.269 1123.36 129.069 1122.76 129.069C1122.16 129.069 1121.66 129.269 1121.27 129.669C1120.88 130.059 1120.69 130.564 1120.69 131.184C1120.69 131.804 1120.88 132.314 1121.27 132.714ZM1138.67 134.004C1137.9 134.764 1136.96 135.144 1135.85 135.144C1134.74 135.144 1133.8 134.764 1133.03 134.004C1132.27 133.234 1131.89 132.294 1131.89 131.184C1131.89 130.074 1132.27 129.139 1133.03 128.379C1133.8 127.609 1134.74 127.224 1135.85 127.224C1136.96 127.224 1137.9 127.609 1138.67 128.379C1139.44 129.139 1139.83 130.074 1139.83 131.184C1139.83 132.294 1139.44 133.234 1138.67 134.004ZM1134.4 132.669C1134.79 133.059 1135.27 133.254 1135.85 133.254C1136.43 133.254 1136.92 133.059 1137.31 132.669C1137.7 132.279 1137.89 131.784 1137.89 131.184C1137.89 130.584 1137.7 130.089 1137.31 129.699C1136.92 129.309 1136.43 129.114 1135.85 129.114C1135.27 129.114 1134.79 129.309 1134.4 129.699C1134.02 130.089 1133.83 130.584 1133.83 131.184C1133.83 131.784 1134.02 132.279 1134.4 132.669ZM1144.74 135.144C1143.56 135.144 1142.61 134.764 1141.88 134.004C1141.16 133.244 1140.8 132.279 1140.8 131.109C1140.8 129.829 1140.99 128.844 1141.37 128.154C1141.75 127.454 1142.51 126.819 1143.66 126.249C1143.83 126.169 1144.07 126.059 1144.38 125.919C1144.69 125.769 1144.9 125.664 1145.01 125.604C1145.13 125.544 1145.29 125.454 1145.49 125.334C1145.69 125.214 1145.83 125.109 1145.91 125.019C1146 124.919 1146.1 124.794 1146.2 124.644C1146.3 124.494 1146.38 124.329 1146.44 124.149L1148.03 125.064C1147.9 125.674 1147.6 126.149 1147.14 126.489C1146.69 126.819 1146.01 127.159 1145.1 127.509C1144.46 127.759 1144 128.009 1143.71 128.259C1143.42 128.509 1143.21 128.809 1143.08 129.159C1143.64 128.589 1144.39 128.304 1145.33 128.304C1146.16 128.304 1146.9 128.609 1147.55 129.219C1148.2 129.819 1148.52 130.619 1148.52 131.619C1148.52 132.649 1148.17 133.494 1147.47 134.154C1146.78 134.814 1145.87 135.144 1144.74 135.144ZM1143.36 132.864C1143.73 133.204 1144.19 133.374 1144.73 133.374C1145.27 133.374 1145.71 133.209 1146.06 132.879C1146.41 132.549 1146.59 132.129 1146.59 131.619C1146.59 131.109 1146.41 130.689 1146.06 130.359C1145.71 130.019 1145.26 129.849 1144.71 129.849C1144.22 129.849 1143.78 130.004 1143.39 130.314C1143.01 130.624 1142.82 131.039 1142.82 131.559C1142.82 132.089 1143 132.524 1143.36 132.864ZM1157.5 127.434V134.934H1155.62V130.554L1153.72 133.554H1153.48L1151.56 130.524V134.934H1149.7V127.434H1151.6L1153.6 130.584L1155.59 127.434H1157.5ZM1160.22 126.534C1159.9 126.534 1159.62 126.419 1159.38 126.189C1159.15 125.949 1159.04 125.669 1159.04 125.349C1159.04 125.029 1159.15 124.749 1159.38 124.509C1159.62 124.269 1159.9 124.149 1160.22 124.149C1160.55 124.149 1160.83 124.269 1161.06 124.509C1161.3 124.749 1161.42 125.029 1161.42 125.349C1161.42 125.669 1161.3 125.949 1161.06 126.189C1160.83 126.419 1160.55 126.534 1160.22 126.534ZM1159.26 134.934V127.434H1161.2V134.934H1159.26ZM1167.89 127.434H1169.83V134.934H1167.89V132.084H1164.91V134.934H1162.97V127.434H1164.91V130.269H1167.89V127.434ZM1177.99 134.004C1177.22 134.764 1176.28 135.144 1175.17 135.144C1174.06 135.144 1173.12 134.764 1172.35 134.004C1171.59 133.234 1171.21 132.294 1171.21 131.184C1171.21 130.074 1171.59 129.139 1172.35 128.379C1173.12 127.609 1174.06 127.224 1175.17 127.224C1176.28 127.224 1177.22 127.609 1177.99 128.379C1178.76 129.139 1179.14 130.074 1179.14 131.184C1179.14 132.294 1178.76 133.234 1177.99 134.004ZM1173.71 132.669C1174.1 133.059 1174.59 133.254 1175.17 133.254C1175.75 133.254 1176.23 133.059 1176.62 132.669C1177.01 132.279 1177.21 131.784 1177.21 131.184C1177.21 130.584 1177.01 130.089 1176.62 129.699C1176.23 129.309 1175.75 129.114 1175.17 129.114C1174.59 129.114 1174.1 129.309 1173.71 129.699C1173.33 130.089 1173.14 130.584 1173.14 131.184C1173.14 131.784 1173.33 132.279 1173.71 132.669ZM1188.3 127.434V134.934H1186.43V130.554L1184.52 133.554H1184.28L1182.36 130.524V134.934H1180.5V127.434H1182.41L1184.4 130.584L1186.4 127.434H1188.3ZM1022.08 149.094C1022.78 149.434 1023.13 150.004 1023.13 150.804C1023.13 151.434 1022.91 151.949 1022.47 152.349C1022.04 152.739 1021.42 152.934 1020.62 152.934H1016.68V145.434H1020.32C1021.11 145.434 1021.72 145.629 1022.15 146.019C1022.59 146.409 1022.81 146.919 1022.81 147.549C1022.81 148.209 1022.57 148.724 1022.08 149.094ZM1020.14 147.024H1018.49V148.374H1020.14C1020.69 148.374 1020.97 148.149 1020.97 147.699C1020.97 147.249 1020.69 147.024 1020.14 147.024ZM1020.4 151.299C1020.96 151.299 1021.24 151.059 1021.24 150.579C1021.24 150.369 1021.16 150.204 1021.01 150.084C1020.86 149.964 1020.66 149.904 1020.4 149.904H1018.49V151.299H1020.4ZM1025.3 144.534C1024.98 144.534 1024.7 144.419 1024.46 144.189C1024.23 143.949 1024.11 143.669 1024.11 143.349C1024.11 143.029 1024.23 142.749 1024.46 142.509C1024.7 142.269 1024.98 142.149 1025.3 142.149C1025.63 142.149 1025.91 142.269 1026.14 142.509C1026.38 142.749 1026.5 143.029 1026.5 143.349C1026.5 143.669 1026.38 143.949 1026.14 144.189C1025.91 144.419 1025.63 144.534 1025.3 144.534ZM1024.34 152.934V145.434H1026.27V152.934H1024.34ZM1034.79 151.119H1035.78V154.944H1033.89V152.934H1029.24V154.944H1027.35V151.119H1028.27C1028.7 150.479 1028.91 149.594 1028.91 148.464V145.434H1034.79V151.119ZM1030.34 151.119H1032.9V147.174H1030.8V148.464C1030.8 149.524 1030.65 150.409 1030.34 151.119ZM1040.27 153.144C1039.09 153.144 1038.14 152.764 1037.41 152.004C1036.69 151.244 1036.33 150.279 1036.33 149.109C1036.33 147.829 1036.52 146.844 1036.9 146.154C1037.28 145.454 1038.04 144.819 1039.19 144.249C1039.36 144.169 1039.6 144.059 1039.91 143.919C1040.22 143.769 1040.43 143.664 1040.54 143.604C1040.66 143.544 1040.82 143.454 1041.02 143.334C1041.22 143.214 1041.36 143.109 1041.44 143.019C1041.53 142.919 1041.63 142.794 1041.73 142.644C1041.83 142.494 1041.91 142.329 1041.97 142.149L1043.56 143.064C1043.43 143.674 1043.13 144.149 1042.67 144.489C1042.22 144.819 1041.54 145.159 1040.63 145.509C1039.99 145.759 1039.53 146.009 1039.24 146.259C1038.95 146.509 1038.74 146.809 1038.61 147.159C1039.17 146.589 1039.92 146.304 1040.86 146.304C1041.69 146.304 1042.43 146.609 1043.08 147.219C1043.73 147.819 1044.05 148.619 1044.05 149.619C1044.05 150.649 1043.7 151.494 1043 152.154C1042.31 152.814 1041.4 153.144 1040.27 153.144ZM1038.89 150.864C1039.26 151.204 1039.72 151.374 1040.26 151.374C1040.8 151.374 1041.24 151.209 1041.59 150.879C1041.94 150.549 1042.12 150.129 1042.12 149.619C1042.12 149.109 1041.94 148.689 1041.59 148.359C1041.24 148.019 1040.79 147.849 1040.24 147.849C1039.75 147.849 1039.31 148.004 1038.92 148.314C1038.54 148.624 1038.35 149.039 1038.35 149.559C1038.35 150.089 1038.53 150.524 1038.89 150.864ZM1049.82 145.434H1051.89L1049.16 152.934C1048.4 155.044 1047.08 156.044 1045.2 155.934V154.134C1045.71 154.144 1046.11 154.049 1046.4 153.849C1046.7 153.649 1046.94 153.314 1047.12 152.844L1044.09 145.434H1046.15L1048.16 150.474L1049.82 145.434ZM1058.21 149.094C1058.91 149.434 1059.26 150.004 1059.26 150.804C1059.26 151.434 1059.04 151.949 1058.6 152.349C1058.17 152.739 1057.56 152.934 1056.76 152.934H1052.81V145.434H1056.46C1057.25 145.434 1057.86 145.629 1058.29 146.019C1058.73 146.409 1058.95 146.919 1058.95 147.549C1058.95 148.209 1058.7 148.724 1058.21 149.094ZM1056.28 147.024H1054.63V148.374H1056.28C1056.83 148.374 1057.1 148.149 1057.1 147.699C1057.1 147.249 1056.83 147.024 1056.28 147.024ZM1056.53 151.299C1057.09 151.299 1057.37 151.059 1057.37 150.579C1057.37 150.369 1057.3 150.204 1057.15 150.084C1057 149.964 1056.79 149.904 1056.53 149.904H1054.63V151.299H1056.53ZM1066.18 145.434H1068.11V152.934H1066.18V152.049C1065.6 152.779 1064.78 153.144 1063.73 153.144C1062.73 153.144 1061.87 152.764 1061.15 152.004C1060.44 151.234 1060.09 150.294 1060.09 149.184C1060.09 148.074 1060.44 147.139 1061.15 146.379C1061.87 145.609 1062.73 145.224 1063.73 145.224C1064.78 145.224 1065.6 145.589 1066.18 146.319V145.434ZM1062.61 150.714C1063 151.104 1063.49 151.299 1064.09 151.299C1064.69 151.299 1065.19 151.104 1065.58 150.714C1065.98 150.314 1066.18 149.804 1066.18 149.184C1066.18 148.564 1065.98 148.059 1065.58 147.669C1065.19 147.269 1064.69 147.069 1064.09 147.069C1063.49 147.069 1063 147.269 1062.61 147.669C1062.22 148.059 1062.02 148.564 1062.02 149.184C1062.02 149.804 1062.22 150.314 1062.61 150.714ZM1075.2 150.249L1076.84 151.194C1076.54 151.784 1076.08 152.259 1075.47 152.619C1074.86 152.969 1074.17 153.144 1073.4 153.144C1072.25 153.144 1071.31 152.779 1070.57 152.049C1069.84 151.309 1069.47 150.354 1069.47 149.184C1069.47 148.014 1069.84 147.064 1070.57 146.334C1071.31 145.594 1072.25 145.224 1073.39 145.224C1074.15 145.224 1074.83 145.399 1075.43 145.749C1076.04 146.099 1076.5 146.569 1076.82 147.159L1075.19 148.104C1074.86 147.424 1074.25 147.084 1073.37 147.084C1072.95 147.084 1072.58 147.199 1072.25 147.429C1071.93 147.649 1071.69 147.944 1071.54 148.314H1074.09V150.054H1071.54C1071.69 150.424 1071.93 150.724 1072.25 150.954C1072.58 151.174 1072.95 151.284 1073.37 151.284C1073.82 151.284 1074.21 151.189 1074.53 150.999C1074.85 150.809 1075.07 150.559 1075.2 150.249ZM1083.73 145.434V147.294H1081.39V152.934H1079.45V147.294H1077.08V145.434H1083.73ZM1088.15 147.834C1089 147.834 1089.69 148.069 1090.21 148.539C1090.73 148.999 1090.99 149.614 1090.99 150.384C1090.99 151.154 1090.73 151.774 1090.21 152.244C1089.69 152.704 1089 152.934 1088.15 152.934H1084.76V145.434H1086.7V147.834H1088.15ZM1088.17 151.224C1088.44 151.224 1088.66 151.149 1088.83 150.999C1089.01 150.839 1089.1 150.634 1089.1 150.384C1089.1 150.134 1089.01 149.929 1088.83 149.769C1088.66 149.609 1088.44 149.529 1088.17 149.529H1086.7V151.224H1088.17ZM1095.7 153.144C1094.57 153.144 1093.63 152.764 1092.87 152.004C1092.12 151.244 1091.74 150.304 1091.74 149.184C1091.74 148.064 1092.12 147.124 1092.87 146.364C1093.63 145.604 1094.57 145.224 1095.7 145.224C1096.43 145.224 1097.1 145.399 1097.7 145.749C1098.3 146.099 1098.75 146.569 1099.06 147.159L1097.4 148.134C1097.25 147.824 1097.02 147.579 1096.71 147.399C1096.41 147.219 1096.07 147.129 1095.69 147.129C1095.11 147.129 1094.63 147.324 1094.25 147.714C1093.87 148.094 1093.68 148.584 1093.68 149.184C1093.68 149.774 1093.87 150.264 1094.25 150.654C1094.63 151.034 1095.11 151.224 1095.69 151.224C1096.08 151.224 1096.42 151.139 1096.72 150.969C1097.03 150.789 1097.26 150.544 1097.41 150.234L1099.09 151.194C1098.76 151.784 1098.3 152.259 1097.7 152.619C1097.1 152.969 1096.43 153.144 1095.7 153.144ZM1106.03 145.434V152.934H1104.14V150.594H1103.46L1101.74 152.934H1099.5L1101.38 150.369C1100.9 150.169 1100.51 149.854 1100.22 149.424C1099.94 148.984 1099.8 148.514 1099.8 148.014C1099.8 147.314 1100.05 146.709 1100.55 146.199C1101.05 145.689 1101.71 145.434 1102.52 145.434H1106.03ZM1102.67 147.159C1102.39 147.159 1102.15 147.244 1101.96 147.414C1101.78 147.574 1101.69 147.794 1101.69 148.074C1101.69 148.344 1101.78 148.559 1101.96 148.719C1102.15 148.879 1102.39 148.959 1102.67 148.959H1104.14V147.159H1102.67ZM1115.96 145.434H1117.9V152.934H1115.96V150.549C1115.4 150.729 1114.81 150.819 1114.18 150.819C1113.27 150.819 1112.54 150.589 1111.99 150.129C1111.45 149.669 1111.18 148.999 1111.18 148.119V145.434H1113.11V147.894C1113.11 148.644 1113.58 149.019 1114.51 149.019C1115.05 149.019 1115.53 148.924 1115.96 148.734V145.434ZM1125.35 145.434H1127.29V152.934H1125.35V152.049C1124.77 152.779 1123.96 153.144 1122.91 153.144C1121.91 153.144 1121.05 152.764 1120.33 152.004C1119.62 151.234 1119.26 150.294 1119.26 149.184C1119.26 148.074 1119.62 147.139 1120.33 146.379C1121.05 145.609 1121.91 145.224 1122.91 145.224C1123.96 145.224 1124.77 145.589 1125.35 146.319V145.434ZM1121.78 150.714C1122.17 151.104 1122.67 151.299 1123.27 151.299C1123.87 151.299 1124.36 151.104 1124.75 150.714C1125.15 150.314 1125.35 149.804 1125.35 149.184C1125.35 148.564 1125.15 148.059 1124.75 147.669C1124.36 147.269 1123.87 147.069 1123.27 147.069C1122.67 147.069 1122.17 147.269 1121.78 147.669C1121.39 148.059 1121.2 148.564 1121.2 149.184C1121.2 149.804 1121.39 150.314 1121.78 150.714ZM1133.41 145.224C1134.42 145.224 1135.28 145.609 1135.99 146.379C1136.71 147.139 1137.07 148.074 1137.07 149.184C1137.07 150.294 1136.71 151.234 1135.99 152.004C1135.28 152.764 1134.42 153.144 1133.41 153.144C1132.36 153.144 1131.55 152.779 1130.98 152.049V155.934H1129.04V145.434H1130.98V146.319C1131.55 145.589 1132.36 145.224 1133.41 145.224ZM1131.56 150.714C1131.95 151.104 1132.45 151.299 1133.05 151.299C1133.65 151.299 1134.14 151.104 1134.53 150.714C1134.93 150.314 1135.13 149.804 1135.13 149.184C1135.13 148.564 1134.93 148.059 1134.53 147.669C1134.14 147.269 1133.65 147.069 1133.05 147.069C1132.45 147.069 1131.95 147.269 1131.56 147.669C1131.17 148.059 1130.98 148.564 1130.98 149.184C1130.98 149.804 1131.17 150.314 1131.56 150.714ZM1139.39 144.534C1139.07 144.534 1138.79 144.419 1138.55 144.189C1138.32 143.949 1138.21 143.669 1138.21 143.349C1138.21 143.029 1138.32 142.749 1138.55 142.509C1138.79 142.269 1139.07 142.149 1139.39 142.149C1139.72 142.149 1140 142.269 1140.23 142.509C1140.47 142.749 1140.59 143.029 1140.59 143.349C1140.59 143.669 1140.47 143.949 1140.23 144.189C1140 144.419 1139.72 144.534 1139.39 144.534ZM1138.43 152.934V145.434H1140.37V152.934H1138.43ZM1147.54 149.094C1148.24 149.434 1148.59 150.004 1148.59 150.804C1148.59 151.434 1148.37 151.949 1147.93 152.349C1147.5 152.739 1146.89 152.934 1146.09 152.934H1142.14V145.434H1145.79C1146.58 145.434 1147.19 145.629 1147.62 146.019C1148.06 146.409 1148.28 146.919 1148.28 147.549C1148.28 148.209 1148.03 148.724 1147.54 149.094ZM1145.61 147.024H1143.96V148.374H1145.61C1146.16 148.374 1146.43 148.149 1146.43 147.699C1146.43 147.249 1146.16 147.024 1145.61 147.024ZM1145.86 151.299C1146.42 151.299 1146.7 151.059 1146.7 150.579C1146.7 150.369 1146.63 150.204 1146.48 150.084C1146.33 149.964 1146.12 149.904 1145.86 149.904H1143.96V151.299H1145.86ZM1154.72 145.434H1156.66V152.934H1154.72V150.084H1151.74V152.934H1149.8V145.434H1151.74V148.269H1154.72V145.434ZM1164.82 152.004C1164.05 152.764 1163.11 153.144 1162 153.144C1160.89 153.144 1159.95 152.764 1159.18 152.004C1158.42 151.234 1158.04 150.294 1158.04 149.184C1158.04 148.074 1158.42 147.139 1159.18 146.379C1159.95 145.609 1160.89 145.224 1162 145.224C1163.11 145.224 1164.05 145.609 1164.82 146.379C1165.59 147.139 1165.97 148.074 1165.97 149.184C1165.97 150.294 1165.59 151.234 1164.82 152.004ZM1160.54 150.669C1160.93 151.059 1161.42 151.254 1162 151.254C1162.58 151.254 1163.06 151.059 1163.45 150.669C1163.84 150.279 1164.04 149.784 1164.04 149.184C1164.04 148.584 1163.84 148.089 1163.45 147.699C1163.06 147.309 1162.58 147.114 1162 147.114C1161.42 147.114 1160.93 147.309 1160.54 147.699C1160.16 148.089 1159.97 148.584 1159.97 149.184C1159.97 149.784 1160.16 150.279 1160.54 150.669Z" fill="#404040"/>
<g filter="url(#filter1_d_801_2)">
<path d="M1054 53C1054 32.5655 1070.57 16 1091 16V16C1111.43 16 1128 32.5655 1128 53V54.1212C1128 74.5557 1111.43 91.1212 1091 91.1212V91.1212C1070.57 91.1212 1054 74.5557 1054 54.1212V53Z" fill="white"/>
</g>
<g filter="url(#filter2_d_801_2)">
<path d="M139 67.0596C139 47.1455 155.143 31.002 175.057 31.002V31.002C194.972 31.002 211.115 47.1455 211.115 67.0596V69.9443C211.115 89.8584 194.972 106.002 175.057 106.002V106.002C155.143 106.002 139 89.8584 139 69.9443V67.0596Z" fill="white"/>
</g>
<circle cx="95.9311" cy="101.339" r="13.2177" fill="white" stroke="#C4C4C4" stroke-dasharray="2 2"/>
<path d="M96.2275 97.0625H97.4275V107.562H96.0475V98.5625L93.8125 99.2225L93.4675 98.0225L96.2275 97.0625Z" fill="#C4C4C4"/>
<path d="M93.9396 157.555C94.8596 158.085 95.3196 158.885 95.3196 159.955C95.3196 160.845 95.0046 161.575 94.3746 162.145C93.7446 162.715 92.9696 163 92.0496 163H87.5946V152.5H91.7346C92.6346 152.5 93.3896 152.78 93.9996 153.34C94.6196 153.89 94.9296 154.595 94.9296 155.455C94.9296 156.325 94.5996 157.025 93.9396 157.555ZM91.7346 154.435H89.6646V156.745H91.7346C92.0546 156.745 92.3196 156.635 92.5296 156.415C92.7496 156.195 92.8596 155.92 92.8596 155.59C92.8596 155.26 92.7546 154.985 92.5446 154.765C92.3346 154.545 92.0646 154.435 91.7346 154.435ZM92.0496 161.065C92.3996 161.065 92.6896 160.95 92.9196 160.72C93.1496 160.48 93.2646 160.18 93.2646 159.82C93.2646 159.47 93.1496 159.18 92.9196 158.95C92.6896 158.71 92.3996 158.59 92.0496 158.59H89.6646V161.065H92.0496ZM102.002 155.5H103.442V163H101.552V158.74L98.0267 163H96.5867V155.5H98.4767V159.76L102.002 155.5ZM114.365 159.16C115.065 159.5 115.415 160.07 115.415 160.87C115.415 161.5 115.195 162.015 114.755 162.415C114.325 162.805 113.71 163 112.91 163H108.965V155.5H112.61C113.4 155.5 114.01 155.695 114.44 156.085C114.88 156.475 115.1 156.985 115.1 157.615C115.1 158.275 114.855 158.79 114.365 159.16ZM112.43 157.09H110.78V158.44H112.43C112.98 158.44 113.255 158.215 113.255 157.765C113.255 157.315 112.98 157.09 112.43 157.09ZM112.685 161.365C113.245 161.365 113.525 161.125 113.525 160.645C113.525 160.435 113.45 160.27 113.3 160.15C113.15 160.03 112.945 159.97 112.685 159.97H110.78V161.365H112.685ZM123.541 163H121.291L118.561 159.595V163H116.626V155.5H118.561V158.8L121.141 155.5H123.451L120.436 159.205L123.541 163ZM129.665 155.5H131.6V163H129.665V162.115C129.085 162.845 128.27 163.21 127.22 163.21C126.22 163.21 125.36 162.83 124.64 162.07C123.93 161.3 123.575 160.36 123.575 159.25C123.575 158.14 123.93 157.205 124.64 156.445C125.36 155.675 126.22 155.29 127.22 155.29C128.27 155.29 129.085 155.655 129.665 156.385V155.5ZM126.095 160.78C126.485 161.17 126.98 161.365 127.58 161.365C128.18 161.365 128.675 161.17 129.065 160.78C129.465 160.38 129.665 159.87 129.665 159.25C129.665 158.63 129.465 158.125 129.065 157.735C128.675 157.335 128.18 157.135 127.58 157.135C126.98 157.135 126.485 157.335 126.095 157.735C125.705 158.125 125.51 158.63 125.51 159.25C125.51 159.87 125.705 160.38 126.095 160.78ZM137.749 159.175C138.509 159.545 138.889 160.14 138.889 160.96C138.889 161.6 138.624 162.135 138.094 162.565C137.564 162.995 136.819 163.21 135.859 163.21C134.339 163.21 133.304 162.61 132.754 161.41L134.329 160.48C134.569 161.16 135.084 161.5 135.874 161.5C136.234 161.5 136.509 161.43 136.699 161.29C136.899 161.15 136.999 160.96 136.999 160.72C136.999 160.26 136.704 160.03 136.114 160.03H135.049V158.38H135.859C136.439 158.38 136.729 158.15 136.729 157.69C136.729 157.47 136.644 157.295 136.474 157.165C136.304 157.035 136.079 156.97 135.799 156.97C135.149 156.97 134.684 157.285 134.404 157.915L132.844 157.015C133.414 155.865 134.389 155.29 135.769 155.29C136.629 155.29 137.309 155.51 137.809 155.95C138.319 156.38 138.574 156.905 138.574 157.525C138.574 158.255 138.299 158.805 137.749 159.175ZM144.704 155.5H146.774L144.044 163C143.284 165.11 141.964 166.11 140.084 166V164.2C140.594 164.21 140.994 164.115 141.284 163.915C141.584 163.715 141.824 163.38 142.004 162.91L138.974 155.5H141.029L143.039 160.54L144.704 155.5ZM152.742 160.315L154.377 161.26C154.077 161.85 153.622 162.325 153.012 162.685C152.402 163.035 151.712 163.21 150.942 163.21C149.792 163.21 148.847 162.845 148.107 162.115C147.377 161.375 147.012 160.42 147.012 159.25C147.012 158.08 147.377 157.13 148.107 156.4C148.847 155.66 149.787 155.29 150.927 155.29C151.687 155.29 152.367 155.465 152.967 155.815C153.577 156.165 154.042 156.635 154.362 157.225L152.727 158.17C152.397 157.49 151.792 157.15 150.912 157.15C150.492 157.15 150.117 157.265 149.787 157.495C149.467 157.715 149.232 158.01 149.082 158.38H151.632V160.12H149.082C149.232 160.49 149.467 160.79 149.787 161.02C150.117 161.24 150.492 161.35 150.912 161.35C151.362 161.35 151.747 161.255 152.067 161.065C152.387 160.875 152.612 160.625 152.742 160.315ZM161.266 155.5V157.36H158.926V163H156.991V157.36H154.621V155.5H161.266ZM163.642 160.045C163.902 160.985 164.607 161.455 165.757 161.455C166.497 161.455 167.057 161.205 167.437 160.705L168.997 161.605C168.257 162.675 167.167 163.21 165.727 163.21C164.487 163.21 163.492 162.835 162.742 162.085C161.992 161.335 161.617 160.39 161.617 159.25C161.617 158.12 161.987 157.18 162.727 156.43C163.467 155.67 164.417 155.29 165.577 155.29C166.677 155.29 167.582 155.67 168.292 156.43C169.012 157.19 169.372 158.13 169.372 159.25C169.372 159.5 169.347 159.765 169.297 160.045H163.642ZM163.612 158.545H167.437C167.327 158.035 167.097 157.655 166.747 157.405C166.407 157.155 166.017 157.03 165.577 157.03C165.057 157.03 164.627 157.165 164.287 157.435C163.947 157.695 163.722 158.065 163.612 158.545ZM178.027 163.21C176.847 163.21 175.892 162.83 175.162 162.07C174.442 161.31 174.082 160.345 174.082 159.175C174.082 157.895 174.272 156.91 174.652 156.22C175.032 155.52 175.797 154.885 176.947 154.315C177.117 154.235 177.357 154.125 177.667 153.985C177.977 153.835 178.187 153.73 178.297 153.67C178.417 153.61 178.577 153.52 178.777 153.4C178.977 153.28 179.117 153.175 179.197 153.085C179.287 152.985 179.382 152.86 179.482 152.71C179.582 152.56 179.662 152.395 179.722 152.215L181.312 153.13C181.182 153.74 180.887 154.215 180.427 154.555C179.977 154.885 179.297 155.225 178.387 155.575C177.747 155.825 177.282 156.075 176.992 156.325C176.702 156.575 176.492 156.875 176.362 157.225C176.922 156.655 177.672 156.37 178.612 156.37C179.442 156.37 180.182 156.675 180.832 157.285C181.482 157.885 181.807 158.685 181.807 159.685C181.807 160.715 181.457 161.56 180.757 162.22C180.067 162.88 179.157 163.21 178.027 163.21ZM176.647 160.93C177.017 161.27 177.472 161.44 178.012 161.44C178.552 161.44 178.997 161.275 179.347 160.945C179.697 160.615 179.872 160.195 179.872 159.685C179.872 159.175 179.697 158.755 179.347 158.425C178.997 158.085 178.547 157.915 177.997 157.915C177.507 157.915 177.067 158.07 176.677 158.38C176.297 158.69 176.107 159.105 176.107 159.625C176.107 160.155 176.287 160.59 176.647 160.93ZM188.683 155.5H190.618V163H188.683V162.115C188.103 162.845 187.288 163.21 186.238 163.21C185.238 163.21 184.378 162.83 183.658 162.07C182.948 161.3 182.593 160.36 182.593 159.25C182.593 158.14 182.948 157.205 183.658 156.445C184.378 155.675 185.238 155.29 186.238 155.29C187.288 155.29 188.103 155.655 188.683 156.385V155.5ZM185.113 160.78C185.503 161.17 185.998 161.365 186.598 161.365C187.198 161.365 187.693 161.17 188.083 160.78C188.483 160.38 188.683 159.87 188.683 159.25C188.683 158.63 188.483 158.125 188.083 157.735C187.693 157.335 187.198 157.135 186.598 157.135C185.998 157.135 185.503 157.335 185.113 157.735C184.723 158.125 184.528 158.63 184.528 159.25C184.528 159.87 184.723 160.38 185.113 160.78ZM202.498 163H200.323L198.028 159.64V163H196.138V159.64L193.843 163H191.683L194.383 159.205L191.833 155.5H193.993L196.138 158.755V155.5H198.028V158.755L200.173 155.5H202.348L199.783 159.205L202.498 163ZM208.664 155.5H210.599V163H208.664V162.115C208.084 162.845 207.269 163.21 206.219 163.21C205.219 163.21 204.359 162.83 203.639 162.07C202.929 161.3 202.574 160.36 202.574 159.25C202.574 158.14 202.929 157.205 203.639 156.445C204.359 155.675 205.219 155.29 206.219 155.29C207.269 155.29 208.084 155.655 208.664 156.385V155.5ZM205.094 160.78C205.484 161.17 205.979 161.365 206.579 161.365C207.179 161.365 207.674 161.17 208.064 160.78C208.464 160.38 208.664 159.87 208.664 159.25C208.664 158.63 208.464 158.125 208.064 157.735C207.674 157.335 207.179 157.135 206.579 157.135C205.979 157.135 205.484 157.335 205.094 157.735C204.704 158.125 204.509 158.63 204.509 159.25C204.509 159.87 204.704 160.38 205.094 160.78ZM217.273 155.5H219.208V163H217.273V160.15H214.288V163H212.353V155.5H214.288V158.335H217.273V155.5ZM222.616 160.045C222.876 160.985 223.581 161.455 224.731 161.455C225.471 161.455 226.031 161.205 226.411 160.705L227.971 161.605C227.231 162.675 226.141 163.21 224.701 163.21C223.461 163.21 222.466 162.835 221.716 162.085C220.966 161.335 220.591 160.39 220.591 159.25C220.591 158.12 220.961 157.18 221.701 156.43C222.441 155.67 223.391 155.29 224.551 155.29C225.651 155.29 226.556 155.67 227.266 156.43C227.986 157.19 228.346 158.13 228.346 159.25C228.346 159.5 228.321 159.765 228.271 160.045H222.616ZM222.586 158.545H226.411C226.301 158.035 226.071 157.655 225.721 157.405C225.381 157.155 224.991 157.03 224.551 157.03C224.031 157.03 223.601 157.165 223.261 157.435C222.921 157.695 222.696 158.065 222.586 158.545ZM241.247 155.5V163H239.372V158.62L237.467 161.62H237.227L235.307 158.59V163H233.447V155.5H235.352L237.347 158.65L239.342 155.5H241.247ZM243.972 154.6C243.652 154.6 243.372 154.485 243.132 154.255C242.902 154.015 242.787 153.735 242.787 153.415C242.787 153.095 242.902 152.815 243.132 152.575C243.372 152.335 243.652 152.215 243.972 152.215C244.302 152.215 244.582 152.335 244.812 152.575C245.052 152.815 245.172 153.095 245.172 153.415C245.172 153.735 245.052 154.015 244.812 154.255C244.582 154.485 244.302 154.6 243.972 154.6ZM243.012 163V155.5H244.947V163H243.012ZM250.288 163.21C249.158 163.21 248.213 162.83 247.453 162.07C246.703 161.31 246.328 160.37 246.328 159.25C246.328 158.13 246.703 157.19 247.453 156.43C248.213 155.67 249.158 155.29 250.288 155.29C251.018 155.29 251.683 155.465 252.283 155.815C252.883 156.165 253.338 156.635 253.648 157.225L251.983 158.2C251.833 157.89 251.603 157.645 251.293 157.465C250.993 157.285 250.653 157.195 250.273 157.195C249.693 157.195 249.213 157.39 248.833 157.78C248.453 158.16 248.263 158.65 248.263 159.25C248.263 159.84 248.453 160.33 248.833 160.72C249.213 161.1 249.693 161.29 250.273 161.29C250.663 161.29 251.008 161.205 251.308 161.035C251.618 160.855 251.848 160.61 251.998 160.3L253.678 161.26C253.348 161.85 252.883 162.325 252.283 162.685C251.683 163.035 251.018 163.21 250.288 163.21ZM261.36 161.185H262.62V165.01H260.73V163H254.76V155.5H256.695V161.185H259.425V155.5H261.36V161.185ZM265.185 160.045C265.445 160.985 266.15 161.455 267.3 161.455C268.04 161.455 268.6 161.205 268.98 160.705L270.54 161.605C269.8 162.675 268.71 163.21 267.27 163.21C266.03 163.21 265.035 162.835 264.285 162.085C263.535 161.335 263.16 160.39 263.16 159.25C263.16 158.12 263.53 157.18 264.27 156.43C265.01 155.67 265.96 155.29 267.12 155.29C268.22 155.29 269.125 155.67 269.835 156.43C270.555 157.19 270.915 158.13 270.915 159.25C270.915 159.5 270.89 159.765 270.84 160.045H265.185ZM265.155 158.545H268.98C268.87 158.035 268.64 157.655 268.29 157.405C267.95 157.155 267.56 157.03 267.12 157.03C266.6 157.03 266.17 157.165 265.83 157.435C265.49 157.695 265.265 158.065 265.155 158.545ZM77.868 177.16C78.568 177.5 78.918 178.07 78.918 178.87C78.918 179.5 78.698 180.015 78.258 180.415C77.828 180.805 77.213 181 76.413 181H72.468V173.5H76.113C76.903 173.5 77.513 173.695 77.943 174.085C78.383 174.475 78.603 174.985 78.603 175.615C78.603 176.275 78.358 176.79 77.868 177.16ZM75.933 175.09H74.283V176.44H75.933C76.483 176.44 76.758 176.215 76.758 175.765C76.758 175.315 76.483 175.09 75.933 175.09ZM76.188 179.365C76.748 179.365 77.028 179.125 77.028 178.645C77.028 178.435 76.953 178.27 76.803 178.15C76.653 178.03 76.448 177.97 76.188 177.97H74.283V179.365H76.188ZM81.0891 172.6C80.7691 172.6 80.4891 172.485 80.2491 172.255C80.0191 172.015 79.9041 171.735 79.9041 171.415C79.9041 171.095 80.0191 170.815 80.2491 170.575C80.4891 170.335 80.7691 170.215 81.0891 170.215C81.4191 170.215 81.6991 170.335 81.9291 170.575C82.1691 170.815 82.2891 171.095 82.2891 171.415C82.2891 171.735 82.1691 172.015 81.9291 172.255C81.6991 172.485 81.4191 172.6 81.0891 172.6ZM80.1291 181V173.5H82.0641V181H80.1291ZM90.5852 179.185H91.5752V183.01H89.6852V181H85.0352V183.01H83.1452V179.185H84.0602C84.4902 178.545 84.7052 177.66 84.7052 176.53V173.5H90.5852V179.185ZM86.1302 179.185H88.6952V175.24H86.5952V176.53C86.5952 177.59 86.4402 178.475 86.1302 179.185ZM99.655 173.5V181H97.72V175.315H94.735V181H92.8V173.5H99.655ZM107.818 180.07C107.048 180.83 106.108 181.21 104.998 181.21C103.888 181.21 102.948 180.83 102.178 180.07C101.418 179.3 101.038 178.36 101.038 177.25C101.038 176.14 101.418 175.205 102.178 174.445C102.948 173.675 103.888 173.29 104.998 173.29C106.108 173.29 107.048 173.675 107.818 174.445C108.588 175.205 108.973 176.14 108.973 177.25C108.973 178.36 108.588 179.3 107.818 180.07ZM103.543 178.735C103.933 179.125 104.418 179.32 104.998 179.32C105.578 179.32 106.063 179.125 106.453 178.735C106.843 178.345 107.038 177.85 107.038 177.25C107.038 176.65 106.843 176.155 106.453 175.765C106.063 175.375 105.578 175.18 104.998 175.18C104.418 175.18 103.933 175.375 103.543 175.765C103.163 176.155 102.973 176.65 102.973 177.25C102.973 177.85 103.163 178.345 103.543 178.735ZM114.598 173.5H116.533V181H114.598V178.615C114.038 178.795 113.443 178.885 112.813 178.885C111.903 178.885 111.173 178.655 110.623 178.195C110.083 177.735 109.813 177.065 109.813 176.185V173.5H111.748V175.96C111.748 176.71 112.213 177.085 113.143 177.085C113.683 177.085 114.168 176.99 114.598 176.8V173.5ZM123.703 173.5H125.143V181H123.253V176.74L119.728 181H118.288V173.5H120.178V177.76L123.703 173.5ZM131.836 173.5H133.771V181H131.836V178.15H128.851V181H126.916V173.5H128.851V176.335H131.836V173.5ZM142.459 181H140.209L137.479 177.595V181H135.544V173.5H137.479V176.8L140.059 173.5H142.369L139.354 177.205L142.459 181ZM148.242 173.5H150.312L147.582 181C146.822 183.11 145.502 184.11 143.622 184V182.2C144.132 182.21 144.532 182.115 144.822 181.915C145.122 181.715 145.362 181.38 145.542 180.91L142.512 173.5H144.567L146.577 178.54L148.242 173.5ZM160.893 173.5V175.36H158.553V181H156.618V175.36H154.248V173.5H160.893ZM167.333 173.5H169.268V181H167.333V180.115C166.753 180.845 165.938 181.21 164.888 181.21C163.888 181.21 163.028 180.83 162.308 180.07C161.598 179.3 161.243 178.36 161.243 177.25C161.243 176.14 161.598 175.205 162.308 174.445C163.028 173.675 163.888 173.29 164.888 173.29C165.938 173.29 166.753 173.655 167.333 174.385V173.5ZM163.763 178.78C164.153 179.17 164.648 179.365 165.248 179.365C165.848 179.365 166.343 179.17 166.733 178.78C167.133 178.38 167.333 177.87 167.333 177.25C167.333 176.63 167.133 176.125 166.733 175.735C166.343 175.335 165.848 175.135 165.248 175.135C164.648 175.135 164.153 175.335 163.763 175.735C163.373 176.125 163.178 176.63 163.178 177.25C163.178 177.87 163.373 178.38 163.763 178.78ZM179.168 177.175C179.928 177.545 180.308 178.14 180.308 178.96C180.308 179.6 180.043 180.135 179.513 180.565C178.983 180.995 178.238 181.21 177.278 181.21C175.758 181.21 174.723 180.61 174.173 179.41L175.748 178.48C175.988 179.16 176.503 179.5 177.293 179.5C177.653 179.5 177.928 179.43 178.118 179.29C178.318 179.15 178.418 178.96 178.418 178.72C178.418 178.26 178.123 178.03 177.533 178.03H176.468V176.38H177.278C177.858 176.38 178.148 176.15 178.148 175.69C178.148 175.47 178.063 175.295 177.893 175.165C177.723 175.035 177.498 174.97 177.218 174.97C176.568 174.97 176.103 175.285 175.823 175.915L174.263 175.015C174.833 173.865 175.808 173.29 177.188 173.29C178.048 173.29 178.728 173.51 179.228 173.95C179.738 174.38 179.993 174.905 179.993 175.525C179.993 176.255 179.718 176.805 179.168 177.175ZM187.226 173.5H189.161V181H187.226V180.115C186.646 180.845 185.831 181.21 184.781 181.21C183.781 181.21 182.921 180.83 182.201 180.07C181.491 179.3 181.136 178.36 181.136 177.25C181.136 176.14 181.491 175.205 182.201 174.445C182.921 173.675 183.781 173.29 184.781 173.29C185.831 173.29 186.646 173.655 187.226 174.385V173.5ZM183.656 178.78C184.046 179.17 184.541 179.365 185.141 179.365C185.741 179.365 186.236 179.17 186.626 178.78C187.026 178.38 187.226 177.87 187.226 177.25C187.226 176.63 187.026 176.125 186.626 175.735C186.236 175.335 185.741 175.135 185.141 175.135C184.541 175.135 184.046 175.335 183.656 175.735C183.266 176.125 183.071 176.63 183.071 177.25C183.071 177.87 183.266 178.38 183.656 178.78ZM197.77 173.5V181H195.835V175.315H192.85V181H190.915V173.5H197.77ZM203.908 173.29C204.918 173.29 205.778 173.675 206.488 174.445C207.208 175.205 207.568 176.14 207.568 177.25C207.568 178.36 207.208 179.3 206.488 180.07C205.778 180.83 204.918 181.21 203.908 181.21C202.858 181.21 202.048 180.845 201.478 180.115V184H199.543V173.5H201.478V174.385C202.048 173.655 202.858 173.29 203.908 173.29ZM202.063 178.78C202.453 179.17 202.948 179.365 203.548 179.365C204.148 179.365 204.643 179.17 205.033 178.78C205.433 178.38 205.633 177.87 205.633 177.25C205.633 176.63 205.433 176.125 205.033 175.735C204.643 175.335 204.148 175.135 203.548 175.135C202.948 175.135 202.453 175.335 202.063 175.735C201.673 176.125 201.478 176.63 201.478 177.25C201.478 177.87 201.673 178.38 202.063 178.78ZM215.323 180.07C214.553 180.83 213.613 181.21 212.503 181.21C211.393 181.21 210.453 180.83 209.683 180.07C208.923 179.3 208.543 178.36 208.543 177.25C208.543 176.14 208.923 175.205 209.683 174.445C210.453 173.675 211.393 173.29 212.503 173.29C213.613 173.29 214.553 173.675 215.323 174.445C216.093 175.205 216.478 176.14 216.478 177.25C216.478 178.36 216.093 179.3 215.323 180.07ZM211.048 178.735C211.438 179.125 211.923 179.32 212.503 179.32C213.083 179.32 213.568 179.125 213.958 178.735C214.348 178.345 214.543 177.85 214.543 177.25C214.543 176.65 214.348 176.155 213.958 175.765C213.568 175.375 213.083 175.18 212.503 175.18C211.923 175.18 211.438 175.375 211.048 175.765C210.668 176.155 210.478 176.65 210.478 177.25C210.478 177.85 210.668 178.345 211.048 178.735ZM224.694 173.5V181H222.759V175.315H219.774V181H217.839V173.5H224.694ZM232.857 180.07C232.087 180.83 231.147 181.21 230.037 181.21C228.927 181.21 227.987 180.83 227.217 180.07C226.457 179.3 226.077 178.36 226.077 177.25C226.077 176.14 226.457 175.205 227.217 174.445C227.987 173.675 228.927 173.29 230.037 173.29C231.147 173.29 232.087 173.675 232.857 174.445C233.627 175.205 234.012 176.14 234.012 177.25C234.012 178.36 233.627 179.3 232.857 180.07ZM228.582 178.735C228.972 179.125 229.457 179.32 230.037 179.32C230.617 179.32 231.102 179.125 231.492 178.735C231.882 178.345 232.077 177.85 232.077 177.25C232.077 176.65 231.882 176.155 231.492 175.765C231.102 175.375 230.617 175.18 230.037 175.18C229.457 175.18 228.972 175.375 228.582 175.765C228.202 176.155 228.012 176.65 228.012 177.25C228.012 177.85 228.202 178.345 228.582 178.735ZM240.293 173.5H242.228V181H240.293V178.15H237.308V181H235.373V173.5H237.308V176.335H240.293V173.5ZM250.391 180.07C249.621 180.83 248.681 181.21 247.571 181.21C246.461 181.21 245.521 180.83 244.751 180.07C243.991 179.3 243.611 178.36 243.611 177.25C243.611 176.14 243.991 175.205 244.751 174.445C245.521 173.675 246.461 173.29 247.571 173.29C248.681 173.29 249.621 173.675 250.391 174.445C251.161 175.205 251.546 176.14 251.546 177.25C251.546 178.36 251.161 179.3 250.391 180.07ZM246.116 178.735C246.506 179.125 246.991 179.32 247.571 179.32C248.151 179.32 248.636 179.125 249.026 178.735C249.416 178.345 249.611 177.85 249.611 177.25C249.611 176.65 249.416 176.155 249.026 175.765C248.636 175.375 248.151 175.18 247.571 175.18C246.991 175.18 246.506 175.375 246.116 175.765C245.736 176.155 245.546 176.65 245.546 177.25C245.546 177.85 245.736 178.345 246.116 178.735ZM258.307 177.16C259.007 177.5 259.357 178.07 259.357 178.87C259.357 179.5 259.137 180.015 258.697 180.415C258.267 180.805 257.652 181 256.852 181H252.907V173.5H256.552C257.342 173.5 257.952 173.695 258.382 174.085C258.822 174.475 259.042 174.985 259.042 175.615C259.042 176.275 258.797 176.79 258.307 177.16ZM256.372 175.09H254.722V176.44H256.372C256.922 176.44 257.197 176.215 257.197 175.765C257.197 175.315 256.922 175.09 256.372 175.09ZM256.627 179.365C257.187 179.365 257.467 179.125 257.467 178.645C257.467 178.435 257.392 178.27 257.242 178.15C257.092 178.03 256.887 177.97 256.627 177.97H254.722V179.365H256.627ZM266.269 173.5H268.204V181H266.269V180.115C265.689 180.845 264.874 181.21 263.824 181.21C262.824 181.21 261.964 180.83 261.244 180.07C260.534 179.3 260.179 178.36 260.179 177.25C260.179 176.14 260.534 175.205 261.244 174.445C261.964 173.675 262.824 173.29 263.824 173.29C264.874 173.29 265.689 173.655 266.269 174.385V173.5ZM262.699 178.78C263.089 179.17 263.584 179.365 264.184 179.365C264.784 179.365 265.279 179.17 265.669 178.78C266.069 178.38 266.269 177.87 266.269 177.25C266.269 176.63 266.069 176.125 265.669 175.735C265.279 175.335 264.784 175.135 264.184 175.135C263.584 175.135 263.089 175.335 262.699 175.735C262.309 176.125 262.114 176.63 262.114 177.25C262.114 177.87 262.309 178.38 262.699 178.78ZM274.878 173.5H276.813V181H274.878V178.15H271.893V181H269.958V173.5H271.893V176.335H274.878V173.5ZM280.221 178.045C280.481 178.985 281.186 179.455 282.336 179.455C283.076 179.455 283.636 179.205 284.016 178.705L285.576 179.605C284.836 180.675 283.746 181.21 282.306 181.21C281.066 181.21 280.071 180.835 279.321 180.085C278.571 179.335 278.196 178.39 278.196 177.25C278.196 176.12 278.566 175.18 279.306 174.43C280.046 173.67 280.996 173.29 282.156 173.29C283.256 173.29 284.161 173.67 284.871 174.43C285.591 175.19 285.951 176.13 285.951 177.25C285.951 177.5 285.926 177.765 285.876 178.045H280.221ZM280.191 176.545H284.016C283.906 176.035 283.676 175.655 283.326 175.405C282.986 175.155 282.596 175.03 282.156 175.03C281.636 175.03 281.206 175.165 280.866 175.435C280.526 175.695 280.301 176.065 280.191 176.545ZM146.379 195.16C147.079 195.5 147.429 196.07 147.429 196.87C147.429 197.5 147.209 198.015 146.769 198.415C146.339 198.805 145.724 199 144.924 199H140.979V191.5H144.624C145.414 191.5 146.024 191.695 146.454 192.085C146.894 192.475 147.114 192.985 147.114 193.615C147.114 194.275 146.869 194.79 146.379 195.16ZM144.444 193.09H142.794V194.44H144.444C144.994 194.44 145.269 194.215 145.269 193.765C145.269 193.315 144.994 193.09 144.444 193.09ZM144.699 197.365C145.259 197.365 145.539 197.125 145.539 196.645C145.539 196.435 145.464 196.27 145.314 196.15C145.164 196.03 144.959 195.97 144.699 195.97H142.794V197.365H144.699ZM154.34 191.5H156.275V199H154.34V198.115C153.76 198.845 152.945 199.21 151.895 199.21C150.895 199.21 150.035 198.83 149.315 198.07C148.605 197.3 148.25 196.36 148.25 195.25C148.25 194.14 148.605 193.205 149.315 192.445C150.035 191.675 150.895 191.29 151.895 191.29C152.945 191.29 153.76 191.655 154.34 192.385V191.5ZM150.77 196.78C151.16 197.17 151.655 197.365 152.255 197.365C152.855 197.365 153.35 197.17 153.74 196.78C154.14 196.38 154.34 195.87 154.34 195.25C154.34 194.63 154.14 194.125 153.74 193.735C153.35 193.335 152.855 193.135 152.255 193.135C151.655 193.135 151.16 193.335 150.77 193.735C150.38 194.125 150.185 194.63 150.185 195.25C150.185 195.87 150.38 196.38 150.77 196.78ZM165.83 191.5V199H163.955V194.62L162.05 197.62H161.81L159.89 194.59V199H158.03V191.5H159.935L161.93 194.65L163.925 191.5H165.83ZM173.01 191.5H174.45V199H172.56V194.74L169.035 199H167.595V191.5H169.485V195.76L173.01 191.5ZM187.773 191.5V199H185.898V194.62L183.993 197.62H183.753L181.833 194.59V199H179.973V191.5H181.878L183.873 194.65L185.868 191.5H187.773ZM190.498 190.6C190.178 190.6 189.898 190.485 189.658 190.255C189.428 190.015 189.313 189.735 189.313 189.415C189.313 189.095 189.428 188.815 189.658 188.575C189.898 188.335 190.178 188.215 190.498 188.215C190.828 188.215 191.108 188.335 191.338 188.575C191.578 188.815 191.698 189.095 191.698 189.415C191.698 189.735 191.578 190.015 191.338 190.255C191.108 190.485 190.828 190.6 190.498 190.6ZM189.538 199V191.5H191.473V199H189.538ZM196.814 199.21C195.684 199.21 194.739 198.83 193.979 198.07C193.229 197.31 192.854 196.37 192.854 195.25C192.854 194.13 193.229 193.19 193.979 192.43C194.739 191.67 195.684 191.29 196.814 191.29C197.544 191.29 198.209 191.465 198.809 191.815C199.409 192.165 199.864 192.635 200.174 193.225L198.509 194.2C198.359 193.89 198.129 193.645 197.819 193.465C197.519 193.285 197.179 193.195 196.799 193.195C196.219 193.195 195.739 193.39 195.359 193.78C194.979 194.16 194.789 194.65 194.789 195.25C194.789 195.84 194.979 196.33 195.359 196.72C195.739 197.1 196.219 197.29 196.799 197.29C197.189 197.29 197.534 197.205 197.834 197.035C198.144 196.855 198.374 196.61 198.524 196.3L200.204 197.26C199.874 197.85 199.409 198.325 198.809 198.685C198.209 199.035 197.544 199.21 196.814 199.21ZM207.886 197.185H209.146V201.01H207.256V199H201.286V191.5H203.221V197.185H205.951V191.5H207.886V197.185ZM211.71 196.045C211.97 196.985 212.675 197.455 213.825 197.455C214.565 197.455 215.125 197.205 215.505 196.705L217.065 197.605C216.325 198.675 215.235 199.21 213.795 199.21C212.555 199.21 211.56 198.835 210.81 198.085C210.06 197.335 209.685 196.39 209.685 195.25C209.685 194.12 210.055 193.18 210.795 192.43C211.535 191.67 212.485 191.29 213.645 191.29C214.745 191.29 215.65 191.67 216.36 192.43C217.08 193.19 217.44 194.13 217.44 195.25C217.44 195.5 217.415 195.765 217.365 196.045H211.71ZM211.68 194.545H215.505C215.395 194.035 215.165 193.655 214.815 193.405C214.475 193.155 214.085 193.03 213.645 193.03C213.125 193.03 212.695 193.165 212.355 193.435C212.015 193.695 211.79 194.065 211.68 194.545Z" fill="#404040"/>
<g filter="url(#filter3_d_801_2)">
<path d="M799 133.901C799 113.521 815.521 97 835.901 97V97C856.28 97 872.801 113.521 872.801 133.901V135.019C872.801 155.399 856.28 171.92 835.901 171.92V171.92C815.521 171.92 799 155.399 799 135.019V133.901Z" fill="white"/>
</g>
<g clip-path="url(#clip0_801_2)">
<path d="M1095.14 59.7848H1097.75V62.3986H1095.14V59.7848ZM1104.17 59.7848H1106.79V62.3986H1104.17V59.7848ZM1101.98 50.5148V47.9023H1098.36V49.1748L1099.71 50.5161L1101.98 50.5148Z" fill="#FFD500"/>
<path d="M1110.94 64.6402V59.1289H1111.77L1112.54 58.3652L1103.39 49.2127H1102.26V50.7989H1099.59L1098.01 49.2127H1093.61L1084.47 58.3552L1085.24 59.1277H1086.47V64.6389H1084.08C1080.5 61.2214 1079.55 53.4702 1079.89 47.7039L1079.95 47.5864H1079.98C1081.54 47.5864 1082.92 48.3439 1083.79 49.5114L1083.79 49.5239C1084.44 50.4027 1084.84 51.5089 1084.84 52.7052C1084.84 53.5302 1084.65 54.3114 1084.32 55.0102L1084.33 54.9777C1085.03 54.799 1085.68 54.4658 1086.23 54.0027L1086.22 54.0089C1086.8 53.5092 1087.26 52.892 1087.57 52.1991C1087.89 51.5063 1088.05 50.7538 1088.05 49.9927C1088.05 48.7989 1087.66 47.6977 1086.99 46.8102L1087 46.8239C1086.43 46.0312 1085.63 45.4379 1084.71 45.1285C1083.78 44.819 1082.78 44.8091 1081.85 45.1002L1081.88 45.0914C1082.21 44.8852 1082.6 44.7027 1083 44.5639L1083.04 44.5514C1083.58 44.35 1084.16 44.2479 1084.74 44.2502C1086.09 44.2502 1087.32 44.7914 1088.22 45.6677L1088.22 45.6664C1088.35 44.9653 1088.31 44.2424 1088.1 43.5602L1088.11 43.5914C1087.9 42.9834 1087.57 42.424 1087.14 41.9472C1086.71 41.4704 1086.19 41.0863 1085.6 40.8181C1085.02 40.5499 1084.39 40.4034 1083.75 40.3874C1083.1 40.3715 1082.47 40.4864 1081.87 40.7252L1081.9 40.7139C1081.6 40.8179 1081.31 40.9445 1081.02 41.0927L1081.06 41.0752C1080.97 40.6842 1080.85 40.3034 1080.68 39.9389L1080.7 39.9752C1079.6 37.5089 1077.08 36.3439 1075.06 37.3627C1074.51 37.641 1074.05 38.0488 1073.7 38.5502L1073.69 38.5627C1074.4 38.6323 1075.08 38.8667 1075.69 39.2471C1076.29 39.6275 1076.79 40.1435 1077.16 40.7539L1077.17 40.7739C1076.71 40.5397 1076.21 40.3647 1075.7 40.2527L1075.66 40.2452C1072.56 39.5789 1069.61 41.2627 1069.08 44.0139C1068.94 44.7686 1068.98 45.5466 1069.22 46.2789L1069.21 46.2464C1069.9 45.4594 1070.8 44.8793 1071.8 44.5701C1072.8 44.2608 1073.87 44.2345 1074.89 44.4939L1074.85 44.4852C1075.36 44.5927 1075.81 44.7477 1076.23 44.9514L1076.2 44.9352C1075.18 44.8001 1074.15 44.9705 1073.23 45.4248C1072.32 45.879 1071.56 46.5964 1071.05 47.4852L1071.04 47.5102C1070.51 48.4016 1070.23 49.4198 1070.23 50.4564C1070.23 52.4164 1071.2 54.1489 1072.69 55.1989L1072.71 55.2114C1073.35 55.6415 1074.08 55.9187 1074.85 56.0214L1074.87 56.0239C1074.32 55.1101 1074.03 54.0625 1074.04 52.9952C1074.04 51.9039 1074.33 50.8814 1074.85 50.0052L1074.83 50.0327C1075.22 49.3635 1075.75 48.7872 1076.38 48.3447C1077.01 47.9023 1077.73 47.6045 1078.49 47.4727L1078.52 47.4677C1076.75 55.5339 1076.26 61.1539 1077.72 64.6377H1073.47V66.9877H1113.65V64.6377H1110.94V64.6402ZM1101 59.2564H1109.96V64.6402H1101V59.2564ZM1087.43 58.1889L1093.61 52.0014L1099.8 58.1889V64.6402H1093.01V59.7852H1089.57V64.6402H1087.42V58.1889H1087.43Z" fill="#FFD500"/>
</g>
<path d="M175 44C171.288 44.0047 167.73 45.579 165.105 48.3776C162.481 51.1763 161.004 54.9707 161 58.9286C160.996 62.1629 161.986 65.3096 163.82 67.8857C163.82 67.8857 164.202 68.4218 164.265 68.4991L175 82L185.741 68.4924C185.797 68.4204 186.18 67.8857 186.18 67.8857L186.181 67.8816C188.014 65.3066 189.004 62.1615 189 58.9286C188.996 54.9707 187.519 51.1763 184.895 48.3776C182.27 45.579 178.712 44.0047 175 44V44ZM175 64.3571C173.993 64.3571 173.009 64.0388 172.172 63.4423C171.334 62.8458 170.682 61.9979 170.297 61.006C169.911 60.0141 169.81 58.9225 170.007 57.8695C170.203 56.8165 170.688 55.8492 171.4 55.09C172.112 54.3308 173.019 53.8138 174.007 53.6043C174.994 53.3948 176.018 53.5023 176.948 53.9132C177.878 54.3241 178.674 55.0199 179.233 55.9126C179.792 56.8053 180.091 57.8549 180.091 58.9286C180.089 60.3678 179.552 61.7475 178.598 62.7652C177.644 63.7828 176.35 64.3553 175 64.3571V64.3571Z" fill="#FFD500"/>
<g clip-path="url(#clip1_801_2)">
<path d="M823.761 123.567C823.761 122.356 824.236 121.194 825.081 120.338C825.926 119.481 827.073 119 828.268 119H841.79C842.985 119 844.131 119.481 844.977 120.338C845.822 121.194 846.297 122.356 846.297 123.567V150.971C846.297 152.182 845.822 153.344 844.977 154.201C844.131 155.057 842.985 155.538 841.79 155.538H828.268C827.073 155.538 825.926 155.057 825.081 154.201C824.236 153.344 823.761 152.182 823.761 150.971V123.567ZM837.282 148.687C837.282 148.082 837.045 147.501 836.622 147.073C836.2 146.644 835.626 146.404 835.029 146.404C834.431 146.404 833.858 146.644 833.435 147.073C833.013 147.501 832.775 148.082 832.775 148.687C832.775 149.293 833.013 149.874 833.435 150.302C833.858 150.731 834.431 150.971 835.029 150.971C835.626 150.971 836.2 150.731 836.622 150.302C837.045 149.874 837.282 149.293 837.282 148.687Z" fill="#FFD500"/>
</g>
<defs>
<filter id="filter0_d_801_2" x="432" y="72" width="113.609" height="114.725" filterUnits="userSpaceOnUse" color-interpolation-filters="sRGB">
<feFlood flood-opacity="0" result="BackgroundImageFix"/>
<feColorMatrix in="SourceAlpha" type="matrix" values="0 0 0 0 0 0 0 0 0 0 0 0 0 0 0 0 0 0 127 0" result="hardAlpha"/>
<feOffset dy="4"/>
<feGaussianBlur stdDeviation="10"/>
<feComposite in2="hardAlpha" operator="out"/>
<feColorMatrix type="matrix" values="0 0 0 0 0.0627451 0 0 0 0 0.0627451 0 0 0 0 0.0627451 0 0 0 0.1 0"/>
<feBlend mode="normal" in2="BackgroundImageFix" result="effect1_dropShadow_801_2"/>
<feBlend mode="normal" in="SourceGraphic" in2="effect1_dropShadow_801_2" result="shape"/>
</filter>
<filter id="filter1_d_801_2" x="1034" y="0" width="114" height="115.121" filterUnits="userSpaceOnUse" color-interpolation-filters="sRGB">
<feFlood flood-opacity="0" result="BackgroundImageFix"/>
<feColorMatrix in="SourceAlpha" type="matrix" values="0 0 0 0 0 0 0 0 0 0 0 0 0 0 0 0 0 0 127 0" result="hardAlpha"/>
<feOffset dy="4"/>
<feGaussianBlur stdDeviation="10"/>
<feComposite in2="hardAlpha" operator="out"/>
<feColorMatrix type="matrix" values="0 0 0 0 0.0627451 0 0 0 0 0.0627451 0 0 0 0 0.0627451 0 0 0 0.1 0"/>
<feBlend mode="normal" in2="BackgroundImageFix" result="effect1_dropShadow_801_2"/>
<feBlend mode="normal" in="SourceGraphic" in2="effect1_dropShadow_801_2" result="shape"/>
</filter>
<filter id="filter2_d_801_2" x="119" y="15.002" width="112.115" height="115" filterUnits="userSpaceOnUse" color-interpolation-filters="sRGB">
<feFlood flood-opacity="0" result="BackgroundImageFix"/>
<feColorMatrix in="SourceAlpha" type="matrix" values="0 0 0 0 0 0 0 0 0 0 0 0 0 0 0 0 0 0 127 0" result="hardAlpha"/>
<feOffset dy="4"/>
<feGaussianBlur stdDeviation="10"/>
<feComposite in2="hardAlpha" operator="out"/>
<feColorMatrix type="matrix" values="0 0 0 0 0.0627451 0 0 0 0 0.0627451 0 0 0 0 0.0627451 0 0 0 0.1 0"/>
<feBlend mode="normal" in2="BackgroundImageFix" result="effect1_dropShadow_801_2"/>
<feBlend mode="normal" in="SourceGraphic" in2="effect1_dropShadow_801_2" result="shape"/>
</filter>
<filter id="filter3_d_801_2" x="779" y="81" width="113.801" height="114.92" filterUnits="userSpaceOnUse" color-interpolation-filters="sRGB">
<feFlood flood-opacity="0" result="BackgroundImageFix"/>
<feColorMatrix in="SourceAlpha" type="matrix" values="0 0 0 0 0 0 0 0 0 0 0 0 0 0 0 0 0 0 127 0" result="hardAlpha"/>
<feOffset dy="4"/>
<feGaussianBlur stdDeviation="10"/>
<feComposite in2="hardAlpha" operator="out"/>
<feColorMatrix type="matrix" values="0 0 0 0 0.0627451 0 0 0 0 0.0627451 0 0 0 0 0.0627451 0 0 0 0.1 0"/>
<feBlend mode="normal" in2="BackgroundImageFix" result="effect1_dropShadow_801_2"/>
<feBlend mode="normal" in="SourceGraphic" in2="effect1_dropShadow_801_2" result="shape"/>
</filter>
<clipPath id="clip0_801_2">
<rect width="45" height="30" fill="white" transform="translate(1069 37)"/>
</clipPath>
<clipPath id="clip1_801_2">
<rect width="36.0577" height="36.5385" fill="white" transform="translate(817 119)"/>
</clipPath>
</defs>
</svg>
