<svg width="1366" height="253" viewBox="0 0 1366 253" fill="none" xmlns="http://www.w3.org/2000/svg">
<path d="M-10 224.458C58.9559 109.929 288.469 18.6305 444.913 116.471C665.179 254.227 700.801 231 900.806 116.471C1003.99 57.3845 1267.48 51.0933 1375 231" stroke="#C4C4C4" stroke-linecap="round" stroke-linejoin="round" stroke-dasharray="2 2"/>
<circle cx="780.408" cy="179.782" r="13.2177" fill="white" stroke="#C4C4C4" stroke-dasharray="2 2"/>
<path d="M781.134 179.811C781.934 179.961 782.589 180.306 783.099 180.846C783.609 181.386 783.864 182.071 783.864 182.901C783.864 183.921 783.514 184.726 782.814 185.316C782.114 185.906 781.264 186.201 780.264 186.201C779.464 186.201 778.754 186.021 778.134 185.661C777.514 185.291 777.074 184.761 776.814 184.071L777.984 183.381C778.294 184.351 779.054 184.836 780.264 184.836C780.914 184.836 781.444 184.666 781.854 184.326C782.264 183.986 782.469 183.511 782.469 182.901C782.469 182.291 782.264 181.816 781.854 181.476C781.444 181.126 780.914 180.951 780.264 180.951H779.904L779.349 180.096L781.779 176.811H777.114V175.506H783.414V176.736L781.134 179.811Z" fill="#C4C4C4"/>
<path d="M765.525 226.555C766.445 227.085 766.905 227.885 766.905 228.955C766.905 229.845 766.59 230.575 765.96 231.145C765.33 231.715 764.555 232 763.635 232H759.18V221.5H763.32C764.22 221.5 764.975 221.78 765.585 222.34C766.205 222.89 766.515 223.595 766.515 224.455C766.515 225.325 766.185 226.025 765.525 226.555ZM763.32 223.435H761.25V225.745H763.32C763.64 225.745 763.905 225.635 764.115 225.415C764.335 225.195 764.445 224.92 764.445 224.59C764.445 224.26 764.34 223.985 764.13 223.765C763.92 223.545 763.65 223.435 763.32 223.435ZM763.635 230.065C763.985 230.065 764.275 229.95 764.505 229.72C764.735 229.48 764.85 229.18 764.85 228.82C764.85 228.47 764.735 228.18 764.505 227.95C764.275 227.71 763.985 227.59 763.635 227.59H761.25V230.065H763.635ZM774.679 231.07C773.909 231.83 772.969 232.21 771.859 232.21C770.749 232.21 769.809 231.83 769.039 231.07C768.279 230.3 767.899 229.36 767.899 228.25C767.899 227.14 768.279 226.205 769.039 225.445C769.809 224.675 770.749 224.29 771.859 224.29C772.969 224.29 773.909 224.675 774.679 225.445C775.449 226.205 775.834 227.14 775.834 228.25C775.834 229.36 775.449 230.3 774.679 231.07ZM770.404 229.735C770.794 230.125 771.279 230.32 771.859 230.32C772.439 230.32 772.924 230.125 773.314 229.735C773.704 229.345 773.899 228.85 773.899 228.25C773.899 227.65 773.704 227.155 773.314 226.765C772.924 226.375 772.439 226.18 771.859 226.18C771.279 226.18 770.794 226.375 770.404 226.765C770.024 227.155 769.834 227.65 769.834 228.25C769.834 228.85 770.024 229.345 770.404 229.735ZM783.653 230.185H784.643V234.01H782.753V232H778.103V234.01H776.213V230.185H777.128C777.558 229.545 777.773 228.66 777.773 227.53V224.5H783.653V230.185ZM779.198 230.185H781.763V226.24H779.663V227.53C779.663 228.59 779.508 229.475 779.198 230.185ZM786.827 223.6C786.507 223.6 786.227 223.485 785.987 223.255C785.757 223.015 785.642 222.735 785.642 222.415C785.642 222.095 785.757 221.815 785.987 221.575C786.227 221.335 786.507 221.215 786.827 221.215C787.157 221.215 787.437 221.335 787.667 221.575C787.907 221.815 788.027 222.095 788.027 222.415C788.027 222.735 787.907 223.015 787.667 223.255C787.437 223.485 787.157 223.6 786.827 223.6ZM785.867 232V224.5H787.802V232H785.867ZM790.833 223.54V221.86H795.183V223.54H790.833ZM794.988 224.5H796.428V232H794.538V227.74L791.013 232H789.573V224.5H791.463V228.76L794.988 224.5ZM807.351 228.16C808.051 228.5 808.401 229.07 808.401 229.87C808.401 230.5 808.181 231.015 807.741 231.415C807.311 231.805 806.696 232 805.896 232H801.951V224.5H805.596C806.386 224.5 806.996 224.695 807.426 225.085C807.866 225.475 808.086 225.985 808.086 226.615C808.086 227.275 807.841 227.79 807.351 228.16ZM805.416 226.09H803.766V227.44H805.416C805.966 227.44 806.241 227.215 806.241 226.765C806.241 226.315 805.966 226.09 805.416 226.09ZM805.671 230.365C806.231 230.365 806.511 230.125 806.511 229.645C806.511 229.435 806.436 229.27 806.286 229.15C806.136 229.03 805.931 228.97 805.671 228.97H803.766V230.365H805.671ZM815.028 224.5H816.468V232H814.578V227.74L811.053 232H809.613V224.5H811.503V228.76L815.028 224.5ZM822.605 224.29C823.615 224.29 824.475 224.675 825.185 225.445C825.905 226.205 826.265 227.14 826.265 228.25C826.265 229.36 825.905 230.3 825.185 231.07C824.475 231.83 823.615 232.21 822.605 232.21C821.555 232.21 820.745 231.845 820.175 231.115V235H818.24V224.5H820.175V225.385C820.745 224.655 821.555 224.29 822.605 224.29ZM820.76 229.78C821.15 230.17 821.645 230.365 822.245 230.365C822.845 230.365 823.34 230.17 823.73 229.78C824.13 229.38 824.33 228.87 824.33 228.25C824.33 227.63 824.13 227.125 823.73 226.735C823.34 226.335 822.845 226.135 822.245 226.135C821.645 226.135 821.15 226.335 820.76 226.735C820.37 227.125 820.175 227.63 820.175 228.25C820.175 228.87 820.37 229.38 820.76 229.78ZM832.227 224.5H834.297L831.567 232C830.807 234.11 829.487 235.11 827.607 235V233.2C828.117 233.21 828.517 233.115 828.807 232.915C829.107 232.715 829.347 232.38 829.527 231.91L826.497 224.5H828.552L830.562 229.54L832.227 224.5ZM844.008 224.5H845.943V232H835.218V224.5H837.153V230.185H839.613V224.5H841.548V230.185H844.008V224.5ZM853.413 224.5H855.348V232H853.413V231.115C852.833 231.845 852.018 232.21 850.968 232.21C849.968 232.21 849.108 231.83 848.388 231.07C847.678 230.3 847.323 229.36 847.323 228.25C847.323 227.14 847.678 226.205 848.388 225.445C849.108 224.675 849.968 224.29 850.968 224.29C852.018 224.29 852.833 224.655 853.413 225.385V224.5ZM849.843 229.78C850.233 230.17 850.728 230.365 851.328 230.365C851.928 230.365 852.423 230.17 852.813 229.78C853.213 229.38 853.413 228.87 853.413 228.25C853.413 227.63 853.213 227.125 852.813 226.735C852.423 226.335 851.928 226.135 851.328 226.135C850.728 226.135 850.233 226.335 849.843 226.735C849.453 227.125 849.258 227.63 849.258 228.25C849.258 228.87 849.453 229.38 849.843 229.78ZM862.443 229.315L864.078 230.26C863.778 230.85 863.323 231.325 862.713 231.685C862.103 232.035 861.413 232.21 860.643 232.21C859.493 232.21 858.548 231.845 857.808 231.115C857.078 230.375 856.713 229.42 856.713 228.25C856.713 227.08 857.078 226.13 857.808 225.4C858.548 224.66 859.488 224.29 860.628 224.29C861.388 224.29 862.068 224.465 862.668 224.815C863.278 225.165 863.743 225.635 864.063 226.225L862.428 227.17C862.098 226.49 861.493 226.15 860.613 226.15C860.193 226.15 859.818 226.265 859.488 226.495C859.168 226.715 858.933 227.01 858.783 227.38H861.333V229.12H858.783C858.933 229.49 859.168 229.79 859.488 230.02C859.818 230.24 860.193 230.35 860.613 230.35C861.063 230.35 861.448 230.255 861.768 230.065C862.088 229.875 862.313 229.625 862.443 229.315ZM873.304 228.175C874.064 228.545 874.444 229.14 874.444 229.96C874.444 230.6 874.179 231.135 873.649 231.565C873.119 231.995 872.374 232.21 871.414 232.21C869.894 232.21 868.859 231.61 868.309 230.41L869.884 229.48C870.124 230.16 870.639 230.5 871.429 230.5C871.789 230.5 872.064 230.43 872.254 230.29C872.454 230.15 872.554 229.96 872.554 229.72C872.554 229.26 872.259 229.03 871.669 229.03H870.604V227.38H871.414C871.994 227.38 872.284 227.15 872.284 226.69C872.284 226.47 872.199 226.295 872.029 226.165C871.859 226.035 871.634 225.97 871.354 225.97C870.704 225.97 870.239 226.285 869.959 226.915L868.399 226.015C868.969 224.865 869.944 224.29 871.324 224.29C872.184 224.29 872.864 224.51 873.364 224.95C873.874 225.38 874.129 225.905 874.129 226.525C874.129 227.255 873.854 227.805 873.304 228.175ZM881.362 224.5H883.297V232H881.362V231.115C880.782 231.845 879.967 232.21 878.917 232.21C877.917 232.21 877.057 231.83 876.337 231.07C875.627 230.3 875.272 229.36 875.272 228.25C875.272 227.14 875.627 226.205 876.337 225.445C877.057 224.675 877.917 224.29 878.917 224.29C879.967 224.29 880.782 224.655 881.362 225.385V224.5ZM877.792 229.78C878.182 230.17 878.677 230.365 879.277 230.365C879.877 230.365 880.372 230.17 880.762 229.78C881.162 229.38 881.362 228.87 881.362 228.25C881.362 227.63 881.162 227.125 880.762 226.735C880.372 226.335 879.877 226.135 879.277 226.135C878.677 226.135 878.182 226.335 877.792 226.735C877.402 227.125 877.207 227.63 877.207 228.25C877.207 228.87 877.402 229.38 877.792 229.78ZM894.202 228.16C894.902 228.5 895.252 229.07 895.252 229.87C895.252 230.5 895.032 231.015 894.592 231.415C894.162 231.805 893.547 232 892.747 232H888.802V224.5H892.447C893.237 224.5 893.847 224.695 894.277 225.085C894.717 225.475 894.937 225.985 894.937 226.615C894.937 227.275 894.692 227.79 894.202 228.16ZM892.267 226.09H890.617V227.44H892.267C892.817 227.44 893.092 227.215 893.092 226.765C893.092 226.315 892.817 226.09 892.267 226.09ZM892.522 230.365C893.082 230.365 893.362 230.125 893.362 229.645C893.362 229.435 893.287 229.27 893.137 229.15C892.987 229.03 892.782 228.97 892.522 228.97H890.617V230.365H892.522ZM902.163 224.5H904.098V232H902.163V231.115C901.583 231.845 900.768 232.21 899.718 232.21C898.718 232.21 897.858 231.83 897.138 231.07C896.428 230.3 896.073 229.36 896.073 228.25C896.073 227.14 896.428 226.205 897.138 225.445C897.858 224.675 898.718 224.29 899.718 224.29C900.768 224.29 901.583 224.655 902.163 225.385V224.5ZM898.593 229.78C898.983 230.17 899.478 230.365 900.078 230.365C900.678 230.365 901.173 230.17 901.563 229.78C901.963 229.38 902.163 228.87 902.163 228.25C902.163 227.63 901.963 227.125 901.563 226.735C901.173 226.335 900.678 226.135 900.078 226.135C899.478 226.135 898.983 226.335 898.593 226.735C898.203 227.125 898.008 227.63 898.008 228.25C898.008 228.87 898.203 229.38 898.593 229.78ZM913.653 224.5V232H911.778V227.62L909.873 230.62H909.633L907.713 227.59V232H905.853V224.5H907.758L909.753 227.65L911.748 224.5H913.653ZM920.833 224.5H922.273V232H920.383V227.74L916.858 232H915.418V224.5H917.308V228.76L920.833 224.5ZM933.706 224.5V226.36H931.366V232H929.431V226.36H927.061V224.5H933.706ZM940.147 224.5H942.082V232H940.147V231.115C939.567 231.845 938.752 232.21 937.702 232.21C936.702 232.21 935.842 231.83 935.122 231.07C934.412 230.3 934.057 229.36 934.057 228.25C934.057 227.14 934.412 226.205 935.122 225.445C935.842 224.675 936.702 224.29 937.702 224.29C938.752 224.29 939.567 224.655 940.147 225.385V224.5ZM936.577 229.78C936.967 230.17 937.462 230.365 938.062 230.365C938.662 230.365 939.157 230.17 939.547 229.78C939.947 229.38 940.147 228.87 940.147 228.25C940.147 227.63 939.947 227.125 939.547 226.735C939.157 226.335 938.662 226.135 938.062 226.135C937.462 226.135 936.967 226.335 936.577 226.735C936.187 227.125 935.992 227.63 935.992 228.25C935.992 228.87 936.187 229.38 936.577 229.78ZM947.826 223.48C947.636 223.67 947.401 223.765 947.121 223.765C946.841 223.765 946.601 223.67 946.401 223.48C946.201 223.28 946.101 223.04 946.101 222.76C946.101 222.48 946.201 222.24 946.401 222.04C946.601 221.84 946.841 221.74 947.121 221.74C947.401 221.74 947.636 221.84 947.826 222.04C948.026 222.24 948.126 222.48 948.126 222.76C948.126 223.04 948.026 223.28 947.826 223.48ZM950.676 223.48C950.486 223.67 950.251 223.765 949.971 223.765C949.691 223.765 949.451 223.67 949.251 223.48C949.051 223.28 948.951 223.04 948.951 222.76C948.951 222.48 949.051 222.24 949.251 222.04C949.451 221.84 949.691 221.74 949.971 221.74C950.251 221.74 950.486 221.84 950.676 222.04C950.876 222.24 950.976 222.48 950.976 222.76C950.976 223.04 950.876 223.28 950.676 223.48ZM947.586 232V224.5H949.521V232H947.586ZM958.042 230.185H959.032V234.01H957.142V232H952.492V234.01H950.602V230.185H951.517C951.947 229.545 952.162 228.66 952.162 227.53V224.5H958.042V230.185ZM953.587 230.185H956.152V226.24H954.052V227.53C954.052 228.59 953.897 229.475 953.587 230.185ZM961.599 229.045C961.859 229.985 962.564 230.455 963.714 230.455C964.454 230.455 965.014 230.205 965.394 229.705L966.954 230.605C966.214 231.675 965.124 232.21 963.684 232.21C962.444 232.21 961.449 231.835 960.699 231.085C959.949 230.335 959.574 229.39 959.574 228.25C959.574 227.12 959.944 226.18 960.684 225.43C961.424 224.67 962.374 224.29 963.534 224.29C964.634 224.29 965.539 224.67 966.249 225.43C966.969 226.19 967.329 227.13 967.329 228.25C967.329 228.5 967.304 228.765 967.254 229.045H961.599ZM961.569 227.545H965.394C965.284 227.035 965.054 226.655 964.704 226.405C964.364 226.155 963.974 226.03 963.534 226.03C963.014 226.03 962.584 226.165 962.244 226.435C961.904 226.695 961.679 227.065 961.569 227.545ZM792.449 248.185H793.439V252.01H791.549V250H786.899V252.01H785.009V248.185H785.924C786.354 247.545 786.569 246.66 786.569 245.53V242.5H792.449V248.185ZM787.994 248.185H790.559V244.24H788.459V245.53C788.459 246.59 788.304 247.475 787.994 248.185ZM800.761 249.07C799.991 249.83 799.051 250.21 797.941 250.21C796.831 250.21 795.891 249.83 795.121 249.07C794.361 248.3 793.981 247.36 793.981 246.25C793.981 245.14 794.361 244.205 795.121 243.445C795.891 242.675 796.831 242.29 797.941 242.29C799.051 242.29 799.991 242.675 800.761 243.445C801.531 244.205 801.916 245.14 801.916 246.25C801.916 247.36 801.531 248.3 800.761 249.07ZM796.486 247.735C796.876 248.125 797.361 248.32 797.941 248.32C798.521 248.32 799.006 248.125 799.396 247.735C799.786 247.345 799.981 246.85 799.981 246.25C799.981 245.65 799.786 245.155 799.396 244.765C799.006 244.375 798.521 244.18 797.941 244.18C797.361 244.18 796.876 244.375 796.486 244.765C796.106 245.155 795.916 245.65 795.916 246.25C795.916 246.85 796.106 247.345 796.486 247.735ZM814.827 242.5V250H812.952V245.62L811.047 248.62H810.807L808.887 245.59V250H807.027V242.5H808.932L810.927 245.65L812.922 242.5H814.827ZM817.553 241.6C817.233 241.6 816.953 241.485 816.713 241.255C816.483 241.015 816.368 240.735 816.368 240.415C816.368 240.095 816.483 239.815 816.713 239.575C816.953 239.335 817.233 239.215 817.553 239.215C817.883 239.215 818.163 239.335 818.393 239.575C818.633 239.815 818.753 240.095 818.753 240.415C818.753 240.735 818.633 241.015 818.393 241.255C818.163 241.485 817.883 241.6 817.553 241.6ZM816.593 250V242.5H818.528V250H816.593ZM823.869 250.21C822.739 250.21 821.794 249.83 821.034 249.07C820.284 248.31 819.909 247.37 819.909 246.25C819.909 245.13 820.284 244.19 821.034 243.43C821.794 242.67 822.739 242.29 823.869 242.29C824.599 242.29 825.264 242.465 825.864 242.815C826.464 243.165 826.919 243.635 827.229 244.225L825.564 245.2C825.414 244.89 825.184 244.645 824.874 244.465C824.574 244.285 824.234 244.195 823.854 244.195C823.274 244.195 822.794 244.39 822.414 244.78C822.034 245.16 821.844 245.65 821.844 246.25C821.844 246.84 822.034 247.33 822.414 247.72C822.794 248.1 823.274 248.29 823.854 248.29C824.244 248.29 824.589 248.205 824.889 248.035C825.199 247.855 825.429 247.61 825.579 247.3L827.259 248.26C826.929 248.85 826.464 249.325 825.864 249.685C825.264 250.035 824.599 250.21 823.869 250.21ZM834.941 248.185H836.201V252.01H834.311V250H828.341V242.5H830.276V248.185H833.006V242.5H834.941V248.185ZM843.276 242.5V250H841.386V247.66H840.711L838.986 250H836.751L838.626 247.435C838.146 247.235 837.761 246.92 837.471 246.49C837.191 246.05 837.051 245.58 837.051 245.08C837.051 244.38 837.301 243.775 837.801 243.265C838.301 242.755 838.956 242.5 839.766 242.5H843.276ZM839.916 244.225C839.636 244.225 839.401 244.31 839.211 244.48C839.031 244.64 838.941 244.86 838.941 245.14C838.941 245.41 839.031 245.625 839.211 245.785C839.401 245.945 839.636 246.025 839.916 246.025H841.386V244.225H839.916ZM855.645 242.5V250H853.71V244.315H850.725V250H848.79V242.5H855.645ZM861.783 242.29C862.793 242.29 863.653 242.675 864.363 243.445C865.083 244.205 865.443 245.14 865.443 246.25C865.443 247.36 865.083 248.3 864.363 249.07C863.653 249.83 862.793 250.21 861.783 250.21C860.733 250.21 859.923 249.845 859.353 249.115V253H857.418V242.5H859.353V243.385C859.923 242.655 860.733 242.29 861.783 242.29ZM859.938 247.78C860.328 248.17 860.823 248.365 861.423 248.365C862.023 248.365 862.518 248.17 862.908 247.78C863.308 247.38 863.508 246.87 863.508 246.25C863.508 245.63 863.308 245.125 862.908 244.735C862.518 244.335 862.023 244.135 861.423 244.135C860.823 244.135 860.328 244.335 859.938 244.735C859.548 245.125 859.353 245.63 859.353 246.25C859.353 246.87 859.548 247.38 859.938 247.78ZM872.222 242.5H873.662V250H871.772V245.74L868.247 250H866.807V242.5H868.697V246.76L872.222 242.5ZM879.83 246.175C880.59 246.545 880.97 247.14 880.97 247.96C880.97 248.6 880.705 249.135 880.175 249.565C879.645 249.995 878.9 250.21 877.94 250.21C876.42 250.21 875.385 249.61 874.835 248.41L876.41 247.48C876.65 248.16 877.165 248.5 877.955 248.5C878.315 248.5 878.59 248.43 878.78 248.29C878.98 248.15 879.08 247.96 879.08 247.72C879.08 247.26 878.785 247.03 878.195 247.03H877.13V245.38H877.94C878.52 245.38 878.81 245.15 878.81 244.69C878.81 244.47 878.725 244.295 878.555 244.165C878.385 244.035 878.16 243.97 877.88 243.97C877.23 243.97 876.765 244.285 876.485 244.915L874.925 244.015C875.495 242.865 876.47 242.29 877.85 242.29C878.71 242.29 879.39 242.51 879.89 242.95C880.4 243.38 880.655 243.905 880.655 244.525C880.655 245.255 880.38 245.805 879.83 246.175ZM887.108 242.5H889.043V250H887.108V247.15H884.123V250H882.188V242.5H884.123V245.335H887.108V242.5ZM896.516 242.5H898.451V250H896.516V249.115C895.936 249.845 895.121 250.21 894.071 250.21C893.071 250.21 892.211 249.83 891.491 249.07C890.781 248.3 890.426 247.36 890.426 246.25C890.426 245.14 890.781 244.205 891.491 243.445C892.211 242.675 893.071 242.29 894.071 242.29C895.121 242.29 895.936 242.655 896.516 243.385V242.5ZM892.946 247.78C893.336 248.17 893.831 248.365 894.431 248.365C895.031 248.365 895.526 248.17 895.916 247.78C896.316 247.38 896.516 246.87 896.516 246.25C896.516 245.63 896.316 245.125 895.916 244.735C895.526 244.335 895.031 244.135 894.431 244.135C893.831 244.135 893.336 244.335 892.946 244.735C892.556 245.125 892.361 245.63 892.361 246.25C892.361 246.87 892.556 247.38 892.946 247.78ZM904.631 242.5H906.566V250H904.631V247.615C904.071 247.795 903.476 247.885 902.846 247.885C901.936 247.885 901.206 247.655 900.656 247.195C900.116 246.735 899.846 246.065 899.846 245.185V242.5H901.781V244.96C901.781 245.71 902.246 246.085 903.176 246.085C903.716 246.085 904.201 245.99 904.631 245.8V242.5ZM909.956 247.045C910.216 247.985 910.921 248.455 912.071 248.455C912.811 248.455 913.371 248.205 913.751 247.705L915.311 248.605C914.571 249.675 913.481 250.21 912.041 250.21C910.801 250.21 909.806 249.835 909.056 249.085C908.306 248.335 907.931 247.39 907.931 246.25C907.931 245.12 908.301 244.18 909.041 243.43C909.781 242.67 910.731 242.29 911.891 242.29C912.991 242.29 913.896 242.67 914.606 243.43C915.326 244.19 915.686 245.13 915.686 246.25C915.686 246.5 915.661 246.765 915.611 247.045H909.956ZM909.926 245.545H913.751C913.641 245.035 913.411 244.655 913.061 244.405C912.721 244.155 912.331 244.03 911.891 244.03C911.371 244.03 910.941 244.165 910.601 244.435C910.261 244.695 910.036 245.065 909.926 245.545ZM921.957 242.5H923.892V250H921.957V247.15H918.972V250H917.037V242.5H918.972V245.335H921.957V242.5ZM930.585 242.5H932.52V250H930.585V247.15H927.6V250H925.665V242.5H927.6V245.335H930.585V242.5ZM940.308 242.5V250H938.418V247.66H937.743L936.018 250H933.783L935.658 247.435C935.178 247.235 934.793 246.92 934.503 246.49C934.223 246.05 934.083 245.58 934.083 245.08C934.083 244.38 934.333 243.775 934.833 243.265C935.333 242.755 935.988 242.5 936.798 242.5H940.308ZM936.948 244.225C936.668 244.225 936.433 244.31 936.243 244.48C936.063 244.64 935.973 244.86 935.973 245.14C935.973 245.41 936.063 245.625 936.243 245.785C936.433 245.945 936.668 246.025 936.948 246.025H938.418V244.225H936.948Z" fill="#404040"/>
<g clip-path="url(#clip0_703_5)">
<path d="M789.625 121.259L787.41 117.517C786.561 116.084 786.711 114.272 787.783 112.997L792.546 107.337C793.619 106.062 795.378 105.606 796.936 106.197L801.001 107.739C801.911 107.267 803.058 107.356 803.892 108.058L809.889 113.105C810.442 113.571 810.513 114.393 810.048 114.946L809.207 115.946C808.741 116.499 807.919 116.569 807.366 116.104L805.866 114.842L797.455 124.839L798.954 126.1C799.507 126.566 799.577 127.389 799.113 127.941L798.271 128.941C797.807 129.493 796.984 129.565 796.431 129.099L790.433 124.052C789.599 123.35 789.314 122.237 789.625 121.259ZM791.302 118.962L799.025 109.784L796.008 108.638C795.49 108.442 794.903 108.594 794.546 109.019L789.783 114.68C789.425 115.104 789.376 115.708 789.657 116.186L791.302 118.962ZM792.956 121.053C792.492 121.605 792.562 122.429 793.115 122.894C793.668 123.359 794.491 123.288 794.956 122.736C795.421 122.183 795.35 121.36 794.797 120.895C794.244 120.43 793.422 120.5 792.956 121.053ZM803.367 112.739C803.833 112.187 803.762 111.364 803.209 110.899C802.656 110.433 801.833 110.504 801.368 111.057C800.903 111.61 800.974 112.433 801.527 112.898C802.079 113.363 802.902 113.292 803.367 112.739Z" fill="#C4C4C4"/>
</g>
<path d="M826.194 103.014C826.194 103.014 824.676 103.565 824.126 102.047C823.576 100.529 823.444 95.4249 831.033 92.6746C838.623 89.9242 841.791 93.9279 842.341 95.4458C842.891 96.9637 841.373 97.5137 841.373 97.5137L826.194 103.014ZM830.483 91.1566C831.691 90.719 832.675 89.8195 833.22 88.656C833.764 87.4925 833.825 86.1604 833.387 84.9527C832.949 83.745 832.05 82.7606 830.886 82.2161C829.723 81.6715 828.391 81.6115 827.183 82.0492C825.975 82.4868 824.991 83.3863 824.446 84.5498C823.902 85.7133 823.842 87.0454 824.279 88.2531C824.717 89.4609 825.617 90.4452 826.78 90.9898C827.943 91.5343 829.276 91.5943 830.483 91.1566V91.1566Z" fill="#C4C4C4"/>
<circle cx="427.013" cy="104.663" r="13.2177" fill="white" stroke="#C4C4C4" stroke-dasharray="2 2"/>
<path d="M423.597 109.887V108.747L427.302 104.967C428.292 103.977 428.787 103.127 428.787 102.417C428.787 101.827 428.607 101.367 428.247 101.037C427.887 100.707 427.447 100.542 426.927 100.542C425.937 100.542 425.217 101.012 424.767 101.952L423.597 101.262C423.927 100.582 424.382 100.067 424.962 99.7167C425.552 99.3667 426.202 99.1917 426.912 99.1917C427.792 99.1917 428.557 99.4817 429.207 100.062C429.857 100.642 430.182 101.422 430.182 102.402C430.182 103.462 429.557 104.617 428.307 105.867L425.622 108.537H430.377V109.887H423.597Z" fill="#C4C4C4"/>
<path d="M422.748 198.305V208.805H420.693V201.995L417.738 206.87H417.498L414.543 202.01V208.805H412.473V198.305H414.603L417.618 203.27L420.618 198.305H422.748ZM430.03 201.305H431.47V208.805H429.58V204.545L426.055 208.805H424.615V201.305H426.505V205.565L430.03 201.305ZM445.783 201.305H447.718V208.805H436.993V201.305H438.928V206.99H441.388V201.305H443.323V206.99H445.783V201.305ZM454.378 201.305H456.448L453.718 208.805C452.958 210.915 451.638 211.915 449.758 211.805V210.005C450.268 210.015 450.668 209.92 450.958 209.72C451.258 209.52 451.498 209.185 451.678 208.715L448.648 201.305H450.703L452.713 206.345L454.378 201.305ZM464.284 208.805H462.034L459.304 205.4V208.805H457.369V201.305H459.304V204.605L461.884 201.305H464.194L461.179 205.01L464.284 208.805ZM470.407 201.305H472.342V208.805H470.407V207.92C469.827 208.65 469.012 209.015 467.962 209.015C466.962 209.015 466.102 208.635 465.382 207.875C464.672 207.105 464.317 206.165 464.317 205.055C464.317 203.945 464.672 203.01 465.382 202.25C466.102 201.48 466.962 201.095 467.962 201.095C469.012 201.095 469.827 201.46 470.407 202.19V201.305ZM466.837 206.585C467.227 206.975 467.722 207.17 468.322 207.17C468.922 207.17 469.417 206.975 469.807 206.585C470.207 206.185 470.407 205.675 470.407 205.055C470.407 204.435 470.207 203.93 469.807 203.54C469.417 203.14 468.922 202.94 468.322 202.94C467.722 202.94 467.227 203.14 466.837 203.54C466.447 203.93 466.252 204.435 466.252 205.055C466.252 205.675 466.447 206.185 466.837 206.585ZM479.437 206.12L481.072 207.065C480.772 207.655 480.317 208.13 479.707 208.49C479.097 208.84 478.407 209.015 477.637 209.015C476.487 209.015 475.542 208.65 474.802 207.92C474.072 207.18 473.707 206.225 473.707 205.055C473.707 203.885 474.072 202.935 474.802 202.205C475.542 201.465 476.482 201.095 477.622 201.095C478.382 201.095 479.062 201.27 479.662 201.62C480.272 201.97 480.737 202.44 481.057 203.03L479.422 203.975C479.092 203.295 478.487 202.955 477.607 202.955C477.187 202.955 476.812 203.07 476.482 203.3C476.162 203.52 475.927 203.815 475.777 204.185H478.327V205.925H475.777C475.927 206.295 476.162 206.595 476.482 206.825C476.812 207.045 477.187 207.155 477.607 207.155C478.057 207.155 478.442 207.06 478.762 206.87C479.082 206.68 479.307 206.43 479.437 206.12ZM489.954 201.305V208.805H488.079V204.425L486.174 207.425H485.934L484.014 204.395V208.805H482.154V201.305H484.059L486.054 204.455L488.049 201.305H489.954ZM498.109 207.875C497.339 208.635 496.399 209.015 495.289 209.015C494.179 209.015 493.239 208.635 492.469 207.875C491.709 207.105 491.329 206.165 491.329 205.055C491.329 203.945 491.709 203.01 492.469 202.25C493.239 201.48 494.179 201.095 495.289 201.095C496.399 201.095 497.339 201.48 498.109 202.25C498.879 203.01 499.264 203.945 499.264 205.055C499.264 206.165 498.879 207.105 498.109 207.875ZM493.834 206.54C494.224 206.93 494.709 207.125 495.289 207.125C495.869 207.125 496.354 206.93 496.744 206.54C497.134 206.15 497.329 205.655 497.329 205.055C497.329 204.455 497.134 203.96 496.744 203.57C496.354 203.18 495.869 202.985 495.289 202.985C494.709 202.985 494.224 203.18 493.834 203.57C493.454 203.96 493.264 204.455 493.264 205.055C493.264 205.655 493.454 206.15 493.834 206.54ZM509.295 201.305H511.23V208.805H509.295V205.955H506.31V208.805H504.375V201.305H506.31V204.14H509.295V201.305ZM518.703 201.305H520.638V208.805H518.703V207.92C518.123 208.65 517.308 209.015 516.258 209.015C515.258 209.015 514.398 208.635 513.678 207.875C512.968 207.105 512.613 206.165 512.613 205.055C512.613 203.945 512.968 203.01 513.678 202.25C514.398 201.48 515.258 201.095 516.258 201.095C517.308 201.095 518.123 201.46 518.703 202.19V201.305ZM515.133 206.585C515.523 206.975 516.018 207.17 516.618 207.17C517.218 207.17 517.713 206.975 518.103 206.585C518.503 206.185 518.703 205.675 518.703 205.055C518.703 204.435 518.503 203.93 518.103 203.54C517.713 203.14 517.218 202.94 516.618 202.94C516.018 202.94 515.523 203.14 515.133 203.54C514.743 203.93 514.548 204.435 514.548 205.055C514.548 205.675 514.743 206.185 515.133 206.585ZM529.308 208.805H527.058L524.328 205.4V208.805H522.393V201.305H524.328V204.605L526.908 201.305H529.218L526.203 205.01L529.308 208.805ZM534.639 201.095C535.649 201.095 536.509 201.48 537.219 202.25C537.939 203.01 538.299 203.945 538.299 205.055C538.299 206.165 537.939 207.105 537.219 207.875C536.509 208.635 535.649 209.015 534.639 209.015C533.589 209.015 532.779 208.65 532.209 207.92V211.805H530.274V201.305H532.209V202.19C532.779 201.46 533.589 201.095 534.639 201.095ZM532.794 206.585C533.184 206.975 533.679 207.17 534.279 207.17C534.879 207.17 535.374 206.975 535.764 206.585C536.164 206.185 536.364 205.675 536.364 205.055C536.364 204.435 536.164 203.93 535.764 203.54C535.374 203.14 534.879 202.94 534.279 202.94C533.679 202.94 533.184 203.14 532.794 203.54C532.404 203.93 532.209 204.435 532.209 205.055C532.209 205.675 532.404 206.185 532.794 206.585ZM545.363 201.305H547.298V208.805H545.363V207.92C544.783 208.65 543.968 209.015 542.918 209.015C541.918 209.015 541.058 208.635 540.338 207.875C539.628 207.105 539.273 206.165 539.273 205.055C539.273 203.945 539.628 203.01 540.338 202.25C541.058 201.48 541.918 201.095 542.918 201.095C543.968 201.095 544.783 201.46 545.363 202.19V201.305ZM541.793 206.585C542.183 206.975 542.678 207.17 543.278 207.17C543.878 207.17 544.373 206.975 544.763 206.585C545.163 206.185 545.363 205.675 545.363 205.055C545.363 204.435 545.163 203.93 544.763 203.54C544.373 203.14 543.878 202.94 543.278 202.94C542.678 202.94 542.183 203.14 541.793 203.54C541.403 203.93 541.208 204.435 541.208 205.055C541.208 205.675 541.403 206.185 541.793 206.585ZM559.553 206.99H560.543V210.815H558.653V208.805H549.053V201.305H550.988V206.99H553.328V201.305H555.263V206.99H557.618V201.305H559.553V206.99ZM567.865 207.875C567.095 208.635 566.155 209.015 565.045 209.015C563.935 209.015 562.995 208.635 562.225 207.875C561.465 207.105 561.085 206.165 561.085 205.055C561.085 203.945 561.465 203.01 562.225 202.25C562.995 201.48 563.935 201.095 565.045 201.095C566.155 201.095 567.095 201.48 567.865 202.25C568.635 203.01 569.02 203.945 569.02 205.055C569.02 206.165 568.635 207.105 567.865 207.875ZM563.59 206.54C563.98 206.93 564.465 207.125 565.045 207.125C565.625 207.125 566.11 206.93 566.5 206.54C566.89 206.15 567.085 205.655 567.085 205.055C567.085 204.455 566.89 203.96 566.5 203.57C566.11 203.18 565.625 202.985 565.045 202.985C564.465 202.985 563.98 203.18 563.59 203.57C563.21 203.96 563.02 204.455 563.02 205.055C563.02 205.655 563.21 206.15 563.59 206.54ZM575.511 201.305V203.165H572.316V208.805H570.381V201.305H575.511ZM582.645 207.875C581.875 208.635 580.935 209.015 579.825 209.015C578.715 209.015 577.775 208.635 577.005 207.875C576.245 207.105 575.865 206.165 575.865 205.055C575.865 203.945 576.245 203.01 577.005 202.25C577.775 201.48 578.715 201.095 579.825 201.095C580.935 201.095 581.875 201.48 582.645 202.25C583.415 203.01 583.8 203.945 583.8 205.055C583.8 206.165 583.415 207.105 582.645 207.875ZM578.37 206.54C578.76 206.93 579.245 207.125 579.825 207.125C580.405 207.125 580.89 206.93 581.28 206.54C581.67 206.15 581.865 205.655 581.865 205.055C581.865 204.455 581.67 203.96 581.28 203.57C580.89 203.18 580.405 202.985 579.825 202.985C579.245 202.985 578.76 203.18 578.37 203.57C577.99 203.96 577.8 204.455 577.8 205.055C577.8 205.655 577.99 206.15 578.37 206.54ZM436.548 222.965C437.248 223.305 437.598 223.875 437.598 224.675C437.598 225.305 437.378 225.82 436.938 226.22C436.508 226.61 435.893 226.805 435.093 226.805H431.148V219.305H434.793C435.583 219.305 436.193 219.5 436.623 219.89C437.063 220.28 437.283 220.79 437.283 221.42C437.283 222.08 437.038 222.595 436.548 222.965ZM434.613 220.895H432.963V222.245H434.613C435.163 222.245 435.438 222.02 435.438 221.57C435.438 221.12 435.163 220.895 434.613 220.895ZM434.868 225.17C435.428 225.17 435.708 224.93 435.708 224.45C435.708 224.24 435.633 224.075 435.483 223.955C435.333 223.835 435.128 223.775 434.868 223.775H432.963V225.17H434.868ZM445.199 225.875C444.429 226.635 443.489 227.015 442.379 227.015C441.269 227.015 440.329 226.635 439.559 225.875C438.799 225.105 438.419 224.165 438.419 223.055C438.419 221.945 438.799 221.01 439.559 220.25C440.329 219.48 441.269 219.095 442.379 219.095C443.489 219.095 444.429 219.48 445.199 220.25C445.969 221.01 446.354 221.945 446.354 223.055C446.354 224.165 445.969 225.105 445.199 225.875ZM440.924 224.54C441.314 224.93 441.799 225.125 442.379 225.125C442.959 225.125 443.444 224.93 443.834 224.54C444.224 224.15 444.419 223.655 444.419 223.055C444.419 222.455 444.224 221.96 443.834 221.57C443.444 221.18 442.959 220.985 442.379 220.985C441.799 220.985 441.314 221.18 440.924 221.57C440.544 221.96 440.354 222.455 440.354 223.055C440.354 223.655 440.544 224.15 440.924 224.54ZM454.172 224.99H455.162V228.815H453.272V226.805H448.622V228.815H446.732V224.99H447.647C448.077 224.35 448.292 223.465 448.292 222.335V219.305H454.172V224.99ZM449.717 224.99H452.282V221.045H450.182V222.335C450.182 223.395 450.027 224.28 449.717 224.99ZM457.347 218.405C457.027 218.405 456.747 218.29 456.507 218.06C456.277 217.82 456.162 217.54 456.162 217.22C456.162 216.9 456.277 216.62 456.507 216.38C456.747 216.14 457.027 216.02 457.347 216.02C457.677 216.02 457.957 216.14 458.187 216.38C458.427 216.62 458.547 216.9 458.547 217.22C458.547 217.54 458.427 217.82 458.187 218.06C457.957 218.29 457.677 218.405 457.347 218.405ZM456.387 226.805V219.305H458.322V226.805H456.387ZM466.108 219.305V226.805H464.218V224.465H463.543L461.818 226.805H459.583L461.458 224.24C460.978 224.04 460.593 223.725 460.303 223.295C460.023 222.855 459.883 222.385 459.883 221.885C459.883 221.185 460.133 220.58 460.633 220.07C461.133 219.56 461.788 219.305 462.598 219.305H466.108ZM462.748 221.03C462.468 221.03 462.233 221.115 462.043 221.285C461.863 221.445 461.773 221.665 461.773 221.945C461.773 222.215 461.863 222.43 462.043 222.59C462.233 222.75 462.468 222.83 462.748 222.83H464.218V221.03H462.748ZM477.531 219.305V221.165H475.191V226.805H473.256V221.165H470.886V219.305H477.531ZM483.972 219.305H485.907V226.805H483.972V225.92C483.392 226.65 482.577 227.015 481.527 227.015C480.527 227.015 479.667 226.635 478.947 225.875C478.237 225.105 477.882 224.165 477.882 223.055C477.882 221.945 478.237 221.01 478.947 220.25C479.667 219.48 480.527 219.095 481.527 219.095C482.577 219.095 483.392 219.46 483.972 220.19V219.305ZM480.402 224.585C480.792 224.975 481.287 225.17 481.887 225.17C482.487 225.17 482.982 224.975 483.372 224.585C483.772 224.185 483.972 223.675 483.972 223.055C483.972 222.435 483.772 221.93 483.372 221.54C482.982 221.14 482.487 220.94 481.887 220.94C481.287 220.94 480.792 221.14 480.402 221.54C480.012 221.93 479.817 222.435 479.817 223.055C479.817 223.675 480.012 224.185 480.402 224.585ZM497.112 219.305H499.047V226.805H497.112V225.92C496.532 226.65 495.717 227.015 494.667 227.015C493.667 227.015 492.807 226.635 492.087 225.875C491.377 225.105 491.022 224.165 491.022 223.055C491.022 221.945 491.377 221.01 492.087 220.25C492.807 219.48 493.667 219.095 494.667 219.095C495.717 219.095 496.532 219.46 497.112 220.19V219.305ZM493.542 224.585C493.932 224.975 494.427 225.17 495.027 225.17C495.627 225.17 496.122 224.975 496.512 224.585C496.912 224.185 497.112 223.675 497.112 223.055C497.112 222.435 496.912 221.93 496.512 221.54C496.122 221.14 495.627 220.94 495.027 220.94C494.427 220.94 493.932 221.14 493.542 221.54C493.152 221.93 492.957 222.435 492.957 223.055C492.957 223.675 493.152 224.185 493.542 224.585ZM506.201 222.965C506.901 223.305 507.251 223.875 507.251 224.675C507.251 225.305 507.031 225.82 506.591 226.22C506.161 226.61 505.546 226.805 504.746 226.805H500.801V219.305H504.446C505.236 219.305 505.846 219.5 506.276 219.89C506.716 220.28 506.936 220.79 506.936 221.42C506.936 222.08 506.691 222.595 506.201 222.965ZM504.266 220.895H502.616V222.245H504.266C504.816 222.245 505.091 222.02 505.091 221.57C505.091 221.12 504.816 220.895 504.266 220.895ZM504.521 225.17C505.081 225.17 505.361 224.93 505.361 224.45C505.361 224.24 505.286 224.075 505.136 223.955C504.986 223.835 504.781 223.775 504.521 223.775H502.616V225.17H504.521ZM514.182 219.305V221.165H511.842V226.805H509.907V221.165H507.537V219.305H514.182ZM521.312 225.875C520.542 226.635 519.602 227.015 518.492 227.015C517.382 227.015 516.442 226.635 515.672 225.875C514.912 225.105 514.532 224.165 514.532 223.055C514.532 221.945 514.912 221.01 515.672 220.25C516.442 219.48 517.382 219.095 518.492 219.095C519.602 219.095 520.542 219.48 521.312 220.25C522.082 221.01 522.467 221.945 522.467 223.055C522.467 224.165 522.082 225.105 521.312 225.875ZM517.037 224.54C517.427 224.93 517.912 225.125 518.492 225.125C519.072 225.125 519.557 224.93 519.947 224.54C520.337 224.15 520.532 223.655 520.532 223.055C520.532 222.455 520.337 221.96 519.947 221.57C519.557 221.18 519.072 220.985 518.492 220.985C517.912 220.985 517.427 221.18 517.037 221.57C516.657 221.96 516.467 222.455 516.467 223.055C516.467 223.655 516.657 224.15 517.037 224.54ZM531.629 219.305V226.805H529.754V222.425L527.849 225.425H527.609L525.689 222.395V226.805H523.829V219.305H525.734L527.729 222.455L529.724 219.305H531.629ZM539.784 225.875C539.014 226.635 538.074 227.015 536.964 227.015C535.854 227.015 534.914 226.635 534.144 225.875C533.384 225.105 533.004 224.165 533.004 223.055C533.004 221.945 533.384 221.01 534.144 220.25C534.914 219.48 535.854 219.095 536.964 219.095C538.074 219.095 539.014 219.48 539.784 220.25C540.554 221.01 540.939 221.945 540.939 223.055C540.939 224.165 540.554 225.105 539.784 225.875ZM535.509 224.54C535.899 224.93 536.384 225.125 536.964 225.125C537.544 225.125 538.029 224.93 538.419 224.54C538.809 224.15 539.004 223.655 539.004 223.055C539.004 222.455 538.809 221.96 538.419 221.57C538.029 221.18 537.544 220.985 536.964 220.985C536.384 220.985 535.899 221.18 535.509 221.57C535.129 221.96 534.939 222.455 534.939 223.055C534.939 223.655 535.129 224.15 535.509 224.54ZM545.855 227.015C544.675 227.015 543.72 226.635 542.99 225.875C542.27 225.115 541.91 224.15 541.91 222.98C541.91 221.7 542.1 220.715 542.48 220.025C542.86 219.325 543.625 218.69 544.775 218.12C544.945 218.04 545.185 217.93 545.495 217.79C545.805 217.64 546.015 217.535 546.125 217.475C546.245 217.415 546.405 217.325 546.605 217.205C546.805 217.085 546.945 216.98 547.025 216.89C547.115 216.79 547.21 216.665 547.31 216.515C547.41 216.365 547.49 216.2 547.55 216.02L549.14 216.935C549.01 217.545 548.715 218.02 548.255 218.36C547.805 218.69 547.125 219.03 546.215 219.38C545.575 219.63 545.11 219.88 544.82 220.13C544.53 220.38 544.32 220.68 544.19 221.03C544.75 220.46 545.5 220.175 546.44 220.175C547.27 220.175 548.01 220.48 548.66 221.09C549.31 221.69 549.635 222.49 549.635 223.49C549.635 224.52 549.285 225.365 548.585 226.025C547.895 226.685 546.985 227.015 545.855 227.015ZM544.475 224.735C544.845 225.075 545.3 225.245 545.84 225.245C546.38 225.245 546.825 225.08 547.175 224.75C547.525 224.42 547.7 224 547.7 223.49C547.7 222.98 547.525 222.56 547.175 222.23C546.825 221.89 546.375 221.72 545.825 221.72C545.335 221.72 544.895 221.875 544.505 222.185C544.125 222.495 543.935 222.91 543.935 223.43C543.935 223.96 544.115 224.395 544.475 224.735ZM551.771 218.405C551.451 218.405 551.171 218.29 550.931 218.06C550.701 217.82 550.586 217.54 550.586 217.22C550.586 216.9 550.701 216.62 550.931 216.38C551.171 216.14 551.451 216.02 551.771 216.02C552.101 216.02 552.381 216.14 552.611 216.38C552.851 216.62 552.971 216.9 552.971 217.22C552.971 217.54 552.851 217.82 552.611 218.06C552.381 218.29 552.101 218.405 551.771 218.405ZM550.811 226.805V219.305H552.746V226.805H550.811ZM560.952 219.305V226.805H559.017V221.165H556.947V223.67C556.947 225.99 555.892 227.035 553.782 226.805V224.99C554.182 225.09 554.487 225.025 554.697 224.795C554.907 224.555 555.012 224.145 555.012 223.565V219.305H560.952ZM566.095 221.705C566.945 221.705 567.63 221.94 568.15 222.41C568.67 222.87 568.93 223.485 568.93 224.255C568.93 225.025 568.67 225.645 568.15 226.115C567.63 226.575 566.945 226.805 566.095 226.805H562.705V219.305H564.64V221.705H566.095ZM566.11 225.095C566.38 225.095 566.6 225.02 566.77 224.87C566.95 224.71 567.04 224.505 567.04 224.255C567.04 224.005 566.95 223.8 566.77 223.64C566.6 223.48 566.38 223.4 566.11 223.4H564.64V225.095H566.11Z" fill="#404040"/>
<g filter="url(#filter0_d_703_5)">
<path d="M463 143.805C463 123.478 479.478 107 499.805 107V107C520.131 107 536.609 123.478 536.609 143.805V144.92C536.609 165.247 520.131 181.725 499.805 181.725V181.725C479.478 181.725 463 165.247 463 144.92V143.805Z" fill="white"/>
</g>
<path d="M497.992 129.164C489.69 129.164 482.936 135.919 482.936 144.221C482.936 152.522 489.69 159.277 497.992 159.277C501.333 159.276 504.577 158.158 507.209 156.1L515.482 164.374L518.143 161.712L509.87 153.439C511.929 150.807 513.048 147.562 513.049 144.221C513.049 135.919 506.294 129.164 497.992 129.164Z" fill="#FFD500"/>
<g clip-path="url(#clip1_703_5)">
<path d="M481.665 80.124L482.397 75.8384C482.677 74.1965 483.964 72.9113 485.606 72.6335L492.9 71.3997C494.543 71.1219 496.179 71.9124 496.985 73.3707L499.087 77.177C500.086 77.4055 500.902 78.2157 501.084 79.2905L502.391 87.0194C502.512 87.7319 502.033 88.4049 501.321 88.5254L500.033 88.7433C499.32 88.8639 498.647 88.3856 498.527 87.6731L498.2 85.7409L485.318 87.9198L485.645 89.8521C485.766 90.5646 485.286 91.2378 484.575 91.3581L483.287 91.576C482.575 91.6963 481.901 91.2183 481.781 90.5057L480.473 82.7768C480.291 81.702 480.794 80.6688 481.665 80.124ZM484.429 79.4576L496.256 77.4571L494.698 74.6318C494.429 74.1472 493.884 73.8834 493.336 73.976L486.042 75.2098C485.494 75.3024 485.066 75.731 484.972 76.2769L484.429 79.4576ZM484.338 82.1231C483.626 82.2435 483.147 82.9167 483.267 83.6292C483.388 84.3417 484.062 84.8198 484.774 84.6994C485.486 84.5789 485.964 83.9059 485.844 83.1934C485.723 82.4809 485.05 82.0026 484.338 82.1231ZM497.655 82.5205C498.368 82.4 498.846 81.7269 498.725 81.0144C498.605 80.3019 497.932 79.8236 497.219 79.9442C496.507 80.0647 496.028 80.7377 496.149 81.4502C496.27 82.1627 496.943 82.641 497.655 82.5205Z" fill="#C4C4C4"/>
</g>
<g clip-path="url(#clip2_703_5)">
<path d="M521.353 89.8742C521.353 89.8742 519.84 89.3114 520.403 87.7982C520.966 86.2849 524.167 82.3079 531.733 85.1216C539.3 87.9354 539.125 93.0379 538.562 94.5511C537.999 96.0644 536.486 95.5017 536.486 95.5017L521.353 89.8742ZM532.296 83.6084C533.5 84.0561 534.833 84.0072 536.001 83.4725C537.169 82.9377 538.076 81.9609 538.524 80.7568C538.972 79.5528 538.923 78.2202 538.388 77.0523C537.853 75.8843 536.877 74.9766 535.673 74.5288C534.469 74.0811 533.136 74.13 531.968 74.6647C530.8 75.1995 529.892 76.1763 529.445 77.3804C528.997 78.5844 529.046 79.917 529.58 81.0849C530.115 82.2529 531.092 83.1606 532.296 83.6084V83.6084Z" fill="#C4C4C4"/>
</g>
<path d="M517.693 78.5905L513.832 77.9171L514.506 74.0561L513.219 73.8316L512.545 77.6927L508.684 77.0193L508.46 78.3063L512.321 78.9797L511.647 82.8408L512.935 83.0652L513.608 79.2042L517.469 79.8776L517.693 78.5905Z" fill="#C4C4C4"/>
<circle cx="1025.37" cy="79.8388" r="13.2177" fill="white" stroke="#C4C4C4" stroke-dasharray="2 2"/>
<path d="M1029.4 82.7625V84.0675H1028.13V86.0625H1026.73V84.0675H1021.38V82.7625L1025.14 75.5625H1026.64L1022.88 82.7625H1026.73V79.7925H1028.13V82.7625H1029.4Z" fill="#C4C4C4"/>
<path d="M1024.47 148.489C1025.39 149.019 1025.85 149.819 1025.85 150.889C1025.85 151.779 1025.53 152.509 1024.9 153.079C1024.27 153.649 1023.5 153.934 1022.58 153.934H1018.12V143.434H1022.26C1023.16 143.434 1023.92 143.714 1024.53 144.274C1025.15 144.824 1025.46 145.529 1025.46 146.389C1025.46 147.259 1025.13 147.959 1024.47 148.489ZM1022.26 145.369H1020.19V147.679H1022.26C1022.58 147.679 1022.85 147.569 1023.06 147.349C1023.28 147.129 1023.39 146.854 1023.39 146.524C1023.39 146.194 1023.28 145.919 1023.07 145.699C1022.86 145.479 1022.59 145.369 1022.26 145.369ZM1022.58 151.999C1022.93 151.999 1023.22 151.884 1023.45 151.654C1023.68 151.414 1023.79 151.114 1023.79 150.754C1023.79 150.404 1023.68 150.114 1023.45 149.884C1023.22 149.644 1022.93 149.524 1022.58 149.524H1020.19V151.999H1022.58ZM1033.62 153.004C1032.85 153.764 1031.91 154.144 1030.8 154.144C1029.69 154.144 1028.75 153.764 1027.98 153.004C1027.22 152.234 1026.84 151.294 1026.84 150.184C1026.84 149.074 1027.22 148.139 1027.98 147.379C1028.75 146.609 1029.69 146.224 1030.8 146.224C1031.91 146.224 1032.85 146.609 1033.62 147.379C1034.39 148.139 1034.77 149.074 1034.77 150.184C1034.77 151.294 1034.39 152.234 1033.62 153.004ZM1029.34 151.669C1029.73 152.059 1030.22 152.254 1030.8 152.254C1031.38 152.254 1031.86 152.059 1032.25 151.669C1032.64 151.279 1032.84 150.784 1032.84 150.184C1032.84 149.584 1032.64 149.089 1032.25 148.699C1031.86 148.309 1031.38 148.114 1030.8 148.114C1030.22 148.114 1029.73 148.309 1029.34 148.699C1028.96 149.089 1028.77 149.584 1028.77 150.184C1028.77 150.784 1028.96 151.279 1029.34 151.669ZM1042.59 152.119H1043.58V155.944H1041.69V153.934H1037.04V155.944H1035.15V152.119H1036.07C1036.5 151.479 1036.71 150.594 1036.71 149.464V146.434H1042.59V152.119ZM1038.14 152.119H1040.7V148.174H1038.6V149.464C1038.6 150.524 1038.45 151.409 1038.14 152.119ZM1045.77 145.534C1045.45 145.534 1045.17 145.419 1044.93 145.189C1044.7 144.949 1044.58 144.669 1044.58 144.349C1044.58 144.029 1044.7 143.749 1044.93 143.509C1045.17 143.269 1045.45 143.149 1045.77 143.149C1046.1 143.149 1046.38 143.269 1046.61 143.509C1046.85 143.749 1046.97 144.029 1046.97 144.349C1046.97 144.669 1046.85 144.949 1046.61 145.189C1046.38 145.419 1046.1 145.534 1045.77 145.534ZM1044.81 153.934V146.434H1046.74V153.934H1044.81ZM1049.77 145.474V143.794H1054.12V145.474H1049.77ZM1053.93 146.434H1055.37V153.934H1053.48V149.674L1049.95 153.934H1048.51V146.434H1050.4V150.694L1053.93 146.434ZM1067.64 152.119H1068.63V155.944H1066.74V153.934H1062.09V155.944H1060.2V152.119H1061.12C1061.55 151.479 1061.76 150.594 1061.76 149.464V146.434H1067.64V152.119ZM1063.19 152.119H1065.75V148.174H1063.65V149.464C1063.65 150.524 1063.5 151.409 1063.19 152.119ZM1075.95 153.004C1075.18 153.764 1074.24 154.144 1073.13 154.144C1072.02 154.144 1071.08 153.764 1070.31 153.004C1069.55 152.234 1069.17 151.294 1069.17 150.184C1069.17 149.074 1069.55 148.139 1070.31 147.379C1071.08 146.609 1072.02 146.224 1073.13 146.224C1074.24 146.224 1075.18 146.609 1075.95 147.379C1076.72 148.139 1077.11 149.074 1077.11 150.184C1077.11 151.294 1076.72 152.234 1075.95 153.004ZM1071.68 151.669C1072.07 152.059 1072.55 152.254 1073.13 152.254C1073.71 152.254 1074.2 152.059 1074.59 151.669C1074.98 151.279 1075.17 150.784 1075.17 150.184C1075.17 149.584 1074.98 149.089 1074.59 148.699C1074.2 148.309 1073.71 148.114 1073.13 148.114C1072.55 148.114 1072.07 148.309 1071.68 148.699C1071.3 149.089 1071.11 149.584 1071.11 150.184C1071.11 150.784 1071.3 151.279 1071.68 151.669ZM1082.04 154.144C1080.91 154.144 1079.96 153.764 1079.2 153.004C1078.45 152.244 1078.08 151.304 1078.08 150.184C1078.08 149.064 1078.45 148.124 1079.2 147.364C1079.96 146.604 1080.91 146.224 1082.04 146.224C1082.77 146.224 1083.43 146.399 1084.03 146.749C1084.63 147.099 1085.09 147.569 1085.4 148.159L1083.73 149.134C1083.58 148.824 1083.35 148.579 1083.04 148.399C1082.74 148.219 1082.4 148.129 1082.02 148.129C1081.44 148.129 1080.96 148.324 1080.58 148.714C1080.2 149.094 1080.01 149.584 1080.01 150.184C1080.01 150.774 1080.2 151.264 1080.58 151.654C1080.96 152.034 1081.44 152.224 1082.02 152.224C1082.41 152.224 1082.76 152.139 1083.06 151.969C1083.37 151.789 1083.6 151.544 1083.75 151.234L1085.43 152.194C1085.1 152.784 1084.63 153.259 1084.03 153.619C1083.43 153.969 1082.77 154.144 1082.04 154.144ZM1092.32 146.434V148.294H1089.98V153.934H1088.04V148.294H1085.67V146.434H1092.32ZM1098.76 146.434H1100.69V153.934H1098.76V153.049C1098.18 153.779 1097.36 154.144 1096.31 154.144C1095.31 154.144 1094.45 153.764 1093.73 153.004C1093.02 152.234 1092.67 151.294 1092.67 150.184C1092.67 149.074 1093.02 148.139 1093.73 147.379C1094.45 146.609 1095.31 146.224 1096.31 146.224C1097.36 146.224 1098.18 146.589 1098.76 147.319V146.434ZM1095.19 151.714C1095.58 152.104 1096.07 152.299 1096.67 152.299C1097.27 152.299 1097.77 152.104 1098.16 151.714C1098.56 151.314 1098.76 150.804 1098.76 150.184C1098.76 149.564 1098.56 149.059 1098.16 148.669C1097.77 148.269 1097.27 148.069 1096.67 148.069C1096.07 148.069 1095.58 148.269 1095.19 148.669C1094.8 149.059 1094.6 149.564 1094.6 150.184C1094.6 150.804 1094.8 151.314 1095.19 151.714ZM1107.85 150.094C1108.55 150.434 1108.9 151.004 1108.9 151.804C1108.9 152.434 1108.68 152.949 1108.24 153.349C1107.81 153.739 1107.19 153.934 1106.39 153.934H1102.45V146.434H1106.09C1106.88 146.434 1107.49 146.629 1107.92 147.019C1108.36 147.409 1108.58 147.919 1108.58 148.549C1108.58 149.209 1108.34 149.724 1107.85 150.094ZM1105.91 148.024H1104.26V149.374H1105.91C1106.46 149.374 1106.74 149.149 1106.74 148.699C1106.74 148.249 1106.46 148.024 1105.91 148.024ZM1106.17 152.299C1106.73 152.299 1107.01 152.059 1107.01 151.579C1107.01 151.369 1106.93 151.204 1106.78 151.084C1106.63 150.964 1106.43 150.904 1106.17 150.904H1104.26V152.299H1106.17ZM1116.47 146.434V153.934H1114.54V148.294H1112.47V150.799C1112.47 153.119 1111.41 154.164 1109.3 153.934V152.119C1109.7 152.219 1110.01 152.154 1110.22 151.924C1110.43 151.684 1110.53 151.274 1110.53 150.694V146.434H1116.47ZM1124.24 146.434V153.934H1122.35V151.594H1121.68L1119.95 153.934H1117.72L1119.59 151.369C1119.11 151.169 1118.73 150.854 1118.44 150.424C1118.16 149.984 1118.02 149.514 1118.02 149.014C1118.02 148.314 1118.27 147.709 1118.77 147.199C1119.27 146.689 1119.92 146.434 1120.73 146.434H1124.24ZM1120.88 148.159C1120.6 148.159 1120.37 148.244 1120.18 148.414C1120 148.574 1119.91 148.794 1119.91 149.074C1119.91 149.344 1120 149.559 1120.18 149.719C1120.37 149.879 1120.6 149.959 1120.88 149.959H1122.35V148.159H1120.88ZM1131.34 151.249L1132.98 152.194C1132.68 152.784 1132.22 153.259 1131.61 153.619C1131 153.969 1130.31 154.144 1129.54 154.144C1128.39 154.144 1127.45 153.779 1126.71 153.049C1125.98 152.309 1125.61 151.354 1125.61 150.184C1125.61 149.014 1125.98 148.064 1126.71 147.334C1127.45 146.594 1128.39 146.224 1129.53 146.224C1130.29 146.224 1130.97 146.399 1131.57 146.749C1132.18 147.099 1132.64 147.569 1132.96 148.159L1131.33 149.104C1131 148.424 1130.39 148.084 1129.51 148.084C1129.09 148.084 1128.72 148.199 1128.39 148.429C1128.07 148.649 1127.83 148.944 1127.68 149.314H1130.23V151.054H1127.68C1127.83 151.424 1128.07 151.724 1128.39 151.954C1128.72 152.174 1129.09 152.284 1129.51 152.284C1129.96 152.284 1130.35 152.189 1130.67 151.999C1130.99 151.809 1131.21 151.559 1131.34 151.249ZM1143.21 150.094C1143.91 150.434 1144.26 151.004 1144.26 151.804C1144.26 152.434 1144.04 152.949 1143.6 153.349C1143.17 153.739 1142.56 153.934 1141.76 153.934H1137.81V146.434H1141.46C1142.25 146.434 1142.86 146.629 1143.29 147.019C1143.73 147.409 1143.95 147.919 1143.95 148.549C1143.95 149.209 1143.7 149.724 1143.21 150.094ZM1141.28 148.024H1139.63V149.374H1141.28C1141.83 149.374 1142.1 149.149 1142.1 148.699C1142.1 148.249 1141.83 148.024 1141.28 148.024ZM1141.53 152.299C1142.09 152.299 1142.37 152.059 1142.37 151.579C1142.37 151.369 1142.3 151.204 1142.15 151.084C1142 150.964 1141.79 150.904 1141.53 150.904H1139.63V152.299H1141.53ZM1151.17 146.434H1153.11V153.934H1151.17V153.049C1150.59 153.779 1149.78 154.144 1148.73 154.144C1147.73 154.144 1146.87 153.764 1146.15 153.004C1145.44 152.234 1145.08 151.294 1145.08 150.184C1145.08 149.074 1145.44 148.139 1146.15 147.379C1146.87 146.609 1147.73 146.224 1148.73 146.224C1149.78 146.224 1150.59 146.589 1151.17 147.319V146.434ZM1147.6 151.714C1147.99 152.104 1148.49 152.299 1149.09 152.299C1149.69 152.299 1150.18 152.104 1150.57 151.714C1150.97 151.314 1151.17 150.804 1151.17 150.184C1151.17 149.564 1150.97 149.059 1150.57 148.669C1150.18 148.269 1149.69 148.069 1149.09 148.069C1148.49 148.069 1147.99 148.269 1147.6 148.669C1147.21 149.059 1147.02 149.564 1147.02 150.184C1147.02 150.804 1147.21 151.314 1147.6 151.714ZM1158.43 154.144C1157.3 154.144 1156.36 153.764 1155.6 153.004C1154.85 152.244 1154.47 151.304 1154.47 150.184C1154.47 149.064 1154.85 148.124 1155.6 147.364C1156.36 146.604 1157.3 146.224 1158.43 146.224C1159.16 146.224 1159.83 146.399 1160.43 146.749C1161.03 147.099 1161.48 147.569 1161.79 148.159L1160.13 149.134C1159.98 148.824 1159.75 148.579 1159.44 148.399C1159.14 148.219 1158.8 148.129 1158.42 148.129C1157.84 148.129 1157.36 148.324 1156.98 148.714C1156.6 149.094 1156.41 149.584 1156.41 150.184C1156.41 150.774 1156.6 151.264 1156.98 151.654C1157.36 152.034 1157.84 152.224 1158.42 152.224C1158.81 152.224 1159.15 152.139 1159.45 151.969C1159.76 151.789 1159.99 151.544 1160.14 151.234L1161.82 152.194C1161.49 152.784 1161.03 153.259 1160.43 153.619C1159.83 153.969 1159.16 154.144 1158.43 154.144ZM1173.4 152.119H1174.39V155.944H1172.5V153.934H1167.85V155.944H1165.96V152.119H1166.88C1167.31 151.479 1167.52 150.594 1167.52 149.464V146.434H1173.4V152.119ZM1168.95 152.119H1171.51V148.174H1169.41V149.464C1169.41 150.524 1169.26 151.409 1168.95 152.119ZM1181.72 153.004C1180.95 153.764 1180.01 154.144 1178.9 154.144C1177.79 154.144 1176.85 153.764 1176.08 153.004C1175.32 152.234 1174.94 151.294 1174.94 150.184C1174.94 149.074 1175.32 148.139 1176.08 147.379C1176.85 146.609 1177.79 146.224 1178.9 146.224C1180.01 146.224 1180.95 146.609 1181.72 147.379C1182.49 148.139 1182.87 149.074 1182.87 150.184C1182.87 151.294 1182.49 152.234 1181.72 153.004ZM1177.44 151.669C1177.83 152.059 1178.32 152.254 1178.9 152.254C1179.48 152.254 1179.96 152.059 1180.35 151.669C1180.74 151.279 1180.94 150.784 1180.94 150.184C1180.94 149.584 1180.74 149.089 1180.35 148.699C1179.96 148.309 1179.48 148.114 1178.9 148.114C1178.32 148.114 1177.83 148.309 1177.44 148.699C1177.06 149.089 1176.87 149.584 1176.87 150.184C1176.87 150.784 1177.06 151.279 1177.44 151.669ZM1043.28 164.434V171.934H1041.41V167.554L1039.5 170.554H1039.26L1037.34 167.524V171.934H1035.48V164.434H1037.39L1039.38 167.584L1041.38 164.434H1043.28ZM1046.01 163.534C1045.69 163.534 1045.41 163.419 1045.17 163.189C1044.94 162.949 1044.82 162.669 1044.82 162.349C1044.82 162.029 1044.94 161.749 1045.17 161.509C1045.41 161.269 1045.69 161.149 1046.01 161.149C1046.34 161.149 1046.62 161.269 1046.85 161.509C1047.09 161.749 1047.21 162.029 1047.21 162.349C1047.21 162.669 1047.09 162.949 1046.85 163.189C1046.62 163.419 1046.34 163.534 1046.01 163.534ZM1045.05 171.934V164.434H1046.98V171.934H1045.05ZM1052.33 172.144C1051.2 172.144 1050.25 171.764 1049.49 171.004C1048.74 170.244 1048.37 169.304 1048.37 168.184C1048.37 167.064 1048.74 166.124 1049.49 165.364C1050.25 164.604 1051.2 164.224 1052.33 164.224C1053.06 164.224 1053.72 164.399 1054.32 164.749C1054.92 165.099 1055.38 165.569 1055.69 166.159L1054.02 167.134C1053.87 166.824 1053.64 166.579 1053.33 166.399C1053.03 166.219 1052.69 166.129 1052.31 166.129C1051.73 166.129 1051.25 166.324 1050.87 166.714C1050.49 167.094 1050.3 167.584 1050.3 168.184C1050.3 168.774 1050.49 169.264 1050.87 169.654C1051.25 170.034 1051.73 170.224 1052.31 170.224C1052.7 170.224 1053.05 170.139 1053.35 169.969C1053.66 169.789 1053.89 169.544 1054.04 169.234L1055.72 170.194C1055.39 170.784 1054.92 171.259 1054.32 171.619C1053.72 171.969 1053.06 172.144 1052.33 172.144ZM1063.4 170.119H1064.66V173.944H1062.77V171.934H1056.8V164.434H1058.73V170.119H1061.46V164.434H1063.4V170.119ZM1071.73 164.434V171.934H1069.84V169.594H1069.17L1067.44 171.934H1065.21L1067.08 169.369C1066.6 169.169 1066.22 168.854 1065.93 168.424C1065.65 167.984 1065.51 167.514 1065.51 167.014C1065.51 166.314 1065.76 165.709 1066.26 165.199C1066.76 164.689 1067.41 164.434 1068.22 164.434H1071.73ZM1068.37 166.159C1068.09 166.159 1067.86 166.244 1067.67 166.414C1067.49 166.574 1067.4 166.794 1067.4 167.074C1067.4 167.344 1067.49 167.559 1067.67 167.719C1067.86 167.879 1068.09 167.959 1068.37 167.959H1069.84V166.159H1068.37ZM1084.1 164.434V171.934H1082.17V166.249H1079.18V171.934H1077.25V164.434H1084.1ZM1090.24 164.224C1091.25 164.224 1092.11 164.609 1092.82 165.379C1093.54 166.139 1093.9 167.074 1093.9 168.184C1093.9 169.294 1093.54 170.234 1092.82 171.004C1092.11 171.764 1091.25 172.144 1090.24 172.144C1089.19 172.144 1088.38 171.779 1087.81 171.049V174.934H1085.87V164.434H1087.81V165.319C1088.38 164.589 1089.19 164.224 1090.24 164.224ZM1088.39 169.714C1088.78 170.104 1089.28 170.299 1089.88 170.299C1090.48 170.299 1090.97 170.104 1091.36 169.714C1091.76 169.314 1091.96 168.804 1091.96 168.184C1091.96 167.564 1091.76 167.059 1091.36 166.669C1090.97 166.269 1090.48 166.069 1089.88 166.069C1089.28 166.069 1088.78 166.269 1088.39 166.669C1088 167.059 1087.81 167.564 1087.81 168.184C1087.81 168.804 1088 169.314 1088.39 169.714ZM1100.68 164.434H1102.12V171.934H1100.23V167.674L1096.7 171.934H1095.26V164.434H1097.15V168.694L1100.68 164.434ZM1108.29 168.109C1109.05 168.479 1109.43 169.074 1109.43 169.894C1109.43 170.534 1109.16 171.069 1108.63 171.499C1108.1 171.929 1107.36 172.144 1106.4 172.144C1104.88 172.144 1103.84 171.544 1103.29 170.344L1104.87 169.414C1105.11 170.094 1105.62 170.434 1106.41 170.434C1106.77 170.434 1107.05 170.364 1107.24 170.224C1107.44 170.084 1107.54 169.894 1107.54 169.654C1107.54 169.194 1107.24 168.964 1106.65 168.964H1105.59V167.314H1106.4C1106.98 167.314 1107.27 167.084 1107.27 166.624C1107.27 166.404 1107.18 166.229 1107.01 166.099C1106.84 165.969 1106.62 165.904 1106.34 165.904C1105.69 165.904 1105.22 166.219 1104.94 166.849L1103.38 165.949C1103.95 164.799 1104.93 164.224 1106.31 164.224C1107.17 164.224 1107.85 164.444 1108.35 164.884C1108.86 165.314 1109.11 165.839 1109.11 166.459C1109.11 167.189 1108.84 167.739 1108.29 168.109ZM1115.57 164.434H1117.5V171.934H1115.57V169.084H1112.58V171.934H1110.65V164.434H1112.58V167.269H1115.57V164.434ZM1124.97 164.434H1126.91V171.934H1124.97V171.049C1124.39 171.779 1123.58 172.144 1122.53 172.144C1121.53 172.144 1120.67 171.764 1119.95 171.004C1119.24 170.234 1118.88 169.294 1118.88 168.184C1118.88 167.074 1119.24 166.139 1119.95 165.379C1120.67 164.609 1121.53 164.224 1122.53 164.224C1123.58 164.224 1124.39 164.589 1124.97 165.319V164.434ZM1121.4 169.714C1121.79 170.104 1122.29 170.299 1122.89 170.299C1123.49 170.299 1123.98 170.104 1124.37 169.714C1124.77 169.314 1124.97 168.804 1124.97 168.184C1124.97 167.564 1124.77 167.059 1124.37 166.669C1123.98 166.269 1123.49 166.069 1122.89 166.069C1122.29 166.069 1121.79 166.269 1121.4 166.669C1121.01 167.059 1120.82 167.564 1120.82 168.184C1120.82 168.804 1121.01 169.314 1121.4 169.714ZM1133.09 164.434H1135.02V171.934H1133.09V169.549C1132.53 169.729 1131.93 169.819 1131.3 169.819C1130.39 169.819 1129.66 169.589 1129.11 169.129C1128.57 168.669 1128.3 167.999 1128.3 167.119V164.434H1130.24V166.894C1130.24 167.644 1130.7 168.019 1131.63 168.019C1132.17 168.019 1132.66 167.924 1133.09 167.734V164.434ZM1138.41 168.979C1138.67 169.919 1139.38 170.389 1140.53 170.389C1141.27 170.389 1141.83 170.139 1142.21 169.639L1143.77 170.539C1143.03 171.609 1141.94 172.144 1140.5 172.144C1139.26 172.144 1138.26 171.769 1137.51 171.019C1136.76 170.269 1136.39 169.324 1136.39 168.184C1136.39 167.054 1136.76 166.114 1137.5 165.364C1138.24 164.604 1139.19 164.224 1140.35 164.224C1141.45 164.224 1142.35 164.604 1143.06 165.364C1143.78 166.124 1144.14 167.064 1144.14 168.184C1144.14 168.434 1144.12 168.699 1144.07 168.979H1138.41ZM1138.38 167.479H1142.21C1142.1 166.969 1141.87 166.589 1141.52 166.339C1141.18 166.089 1140.79 165.964 1140.35 165.964C1139.83 165.964 1139.4 166.099 1139.06 166.369C1138.72 166.629 1138.49 166.999 1138.38 167.479ZM1150.41 164.434H1152.35V171.934H1150.41V169.084H1147.43V171.934H1145.49V164.434H1147.43V167.269H1150.41V164.434ZM1159.04 164.434H1160.98V171.934H1159.04V169.084H1156.06V171.934H1154.12V164.434H1156.06V167.269H1159.04V164.434ZM1168.76 164.434V171.934H1166.87V169.594H1166.2L1164.47 171.934H1162.24L1164.11 169.369C1163.63 169.169 1163.25 168.854 1162.96 168.424C1162.68 167.984 1162.54 167.514 1162.54 167.014C1162.54 166.314 1162.79 165.709 1163.29 165.199C1163.79 164.689 1164.44 164.434 1165.25 164.434H1168.76ZM1165.4 166.159C1165.12 166.159 1164.89 166.244 1164.7 166.414C1164.52 166.574 1164.43 166.794 1164.43 167.074C1164.43 167.344 1164.52 167.559 1164.7 167.719C1164.89 167.879 1165.12 167.959 1165.4 167.959H1166.87V166.159H1165.4Z" fill="#404040"/>
<g filter="url(#filter1_d_703_5)">
<path d="M1065 72C1065 51.5655 1081.57 35 1102 35V35C1122.43 35 1139 51.5655 1139 72V73.1212C1139 93.5557 1122.43 110.121 1102 110.121V110.121C1081.57 110.121 1065 93.5557 1065 73.1212V72Z" fill="white"/>
</g>
<path d="M1105.85 54.2969C1107 54.2969 1107.93 55.2275 1107.93 56.375V58.4629C1110.44 58.6032 1112.62 60.2385 1113.46 62.629L1115.75 69.1558C1117.25 69.7792 1118.32 71.2664 1118.32 73.0004V85.4694C1118.32 86.6188 1117.39 87.5475 1116.24 87.5475H1114.16C1113.01 87.5475 1112.09 86.6188 1112.09 85.4694V82.3521H1091.3V85.4694C1091.3 86.6188 1090.37 87.5475 1089.23 87.5475H1087.15C1086 87.5475 1085.07 86.6188 1085.07 85.4694V73.0004C1085.07 71.2664 1086.13 69.7792 1087.64 69.1558L1089.93 62.629C1090.76 60.2385 1092.95 58.6032 1095.46 58.4629V56.375C1095.46 55.2275 1096.39 54.2969 1097.54 54.2969H1105.85ZM1095.81 62.6095C1094.93 62.6095 1094.14 63.168 1093.85 63.9993L1092.15 68.844H1111.23L1109.54 63.9993C1109.25 63.168 1108.46 62.6095 1107.58 62.6095H1095.81ZM1091.3 77.1567C1092.45 77.1567 1093.38 76.228 1093.38 75.0785C1093.38 73.929 1092.45 73.0004 1091.3 73.0004C1090.15 73.0004 1089.23 73.929 1089.23 75.0785C1089.23 76.228 1090.15 77.1567 1091.3 77.1567ZM1112.09 73.0004C1110.94 73.0004 1110.01 73.929 1110.01 75.0785C1110.01 76.228 1110.94 77.1567 1112.09 77.1567C1113.23 77.1567 1114.16 76.228 1114.16 75.0785C1114.16 73.929 1113.23 73.0004 1112.09 73.0004Z" fill="#FFD500"/>
<g clip-path="url(#clip3_703_5)">
<path d="M1073.66 13.124L1074.4 8.83841C1074.68 7.19648 1075.96 5.91133 1077.61 5.63351L1084.9 4.39967C1086.54 4.12185 1088.18 4.91244 1088.99 6.37073L1091.09 10.177C1092.09 10.4055 1092.9 11.2157 1093.08 12.2905L1094.39 20.0194C1094.51 20.7319 1094.03 21.4049 1093.32 21.5254L1092.03 21.7433C1091.32 21.8639 1090.65 21.3856 1090.53 20.6731L1090.2 18.7409L1077.32 20.9198L1077.65 22.8521C1077.77 23.5646 1077.29 24.2378 1076.57 24.3581L1075.29 24.576C1074.58 24.6963 1073.9 24.2183 1073.78 23.5057L1072.47 15.7768C1072.29 14.702 1072.79 13.6688 1073.66 13.124ZM1076.43 12.4576L1088.26 10.4571L1086.7 7.63179C1086.43 7.14717 1085.88 6.88337 1085.34 6.97597L1078.04 8.20982C1077.49 8.30242 1077.07 8.731 1076.97 9.27691L1076.43 12.4576ZM1076.34 15.1231C1075.63 15.2435 1075.15 15.9167 1075.27 16.6292C1075.39 17.3417 1076.06 17.8198 1076.77 17.6994C1077.49 17.5789 1077.96 16.9059 1077.84 16.1934C1077.72 15.4809 1077.05 15.0026 1076.34 15.1231ZM1089.66 15.5205C1090.37 15.4 1090.85 14.7269 1090.73 14.0144C1090.6 13.3019 1089.93 12.8236 1089.22 12.9442C1088.51 13.0647 1088.03 13.7377 1088.15 14.4502C1088.27 15.1627 1088.94 15.641 1089.66 15.5205Z" fill="#C4C4C4"/>
</g>
<g clip-path="url(#clip4_703_5)">
<path d="M1113.35 22.8742C1113.35 22.8742 1111.84 22.3114 1112.4 20.7982C1112.97 19.2849 1116.17 15.3079 1123.73 18.1216C1131.3 20.9354 1131.12 26.0379 1130.56 27.5511C1130 29.0644 1128.49 28.5017 1128.49 28.5017L1113.35 22.8742ZM1124.3 16.6084C1125.5 17.0561 1126.83 17.0072 1128 16.4725C1129.17 15.9377 1130.08 14.9609 1130.52 13.7568C1130.97 12.5528 1130.92 11.2202 1130.39 10.0523C1129.85 8.88428 1128.88 7.97657 1127.67 7.52882C1126.47 7.08108 1125.14 7.12996 1123.97 7.66473C1122.8 8.19949 1121.89 9.17634 1121.44 10.3804C1121 11.5844 1121.05 12.917 1121.58 14.0849C1122.11 15.2529 1123.09 16.1606 1124.3 16.6084V16.6084Z" fill="#C4C4C4"/>
</g>
<path d="M1109.69 11.5905L1105.83 10.9171L1106.51 7.05606L1105.22 6.8316L1104.55 10.6927L1100.68 10.0193L1100.46 11.3063L1104.32 11.9797L1103.65 15.8408L1104.93 16.0652L1105.61 12.2042L1109.47 12.8776L1109.69 11.5905Z" fill="#C4C4C4"/>
<path d="M1151.82 34.0077L1148.98 31.3081L1151.68 28.4667L1150.73 27.5668L1148.03 30.4082L1145.19 27.7085L1144.29 28.6557L1147.13 31.3553L1144.43 34.1967L1145.38 35.0965L1148.08 32.2552L1150.92 34.9548L1151.82 34.0077Z" fill="#C4C4C4"/>
<path d="M816.104 96.7796L812.724 98.7644L810.739 95.3848L809.613 96.0464L811.597 99.426L808.218 101.411L808.879 102.537L812.259 100.553L814.244 103.932L815.37 103.271L813.386 99.8909L816.765 97.9061L816.104 96.7796Z" fill="#C4C4C4"/>
<g filter="url(#filter2_d_703_5)">
<path d="M150 86.0596C150 66.1455 166.144 50.002 186.058 50.002V50.002C205.972 50.002 222.115 66.1455 222.115 86.0596V88.9443C222.115 108.858 205.972 125.002 186.058 125.002V125.002C166.144 125.002 150 108.858 150 88.9443V86.0596Z" fill="white"/>
</g>
<g clip-path="url(#clip5_703_5)">
<path d="M175.252 73.7997C175.252 72.5884 175.727 71.4267 176.572 70.5702C177.417 69.7136 178.564 69.2324 179.759 69.2324H193.281C194.476 69.2324 195.622 69.7136 196.468 70.5702C197.313 71.4267 197.788 72.5884 197.788 73.7997V101.204C197.788 102.415 197.313 103.577 196.468 104.433C195.622 105.29 194.476 105.771 193.281 105.771H179.759C178.564 105.771 177.417 105.29 176.572 104.433C175.727 103.577 175.252 102.415 175.252 101.204V73.7997ZM188.773 98.9199C188.773 98.3143 188.536 97.7334 188.113 97.3051C187.691 96.8769 187.117 96.6363 186.52 96.6363C185.922 96.6363 185.349 96.8769 184.926 97.3051C184.504 97.7334 184.266 98.3143 184.266 98.9199C184.266 99.5256 184.504 100.106 184.926 100.535C185.349 100.963 185.922 101.204 186.52 101.204C187.117 101.204 187.691 100.963 188.113 100.535C188.536 100.106 188.773 99.5256 188.773 98.9199Z" fill="#FFD500"/>
</g>
<g clip-path="url(#clip6_703_5)">
<path d="M117.337 50.8939C116.631 50.4206 116.143 49.6865 115.978 48.853C115.814 48.0195 115.988 47.155 116.461 46.4495L121.815 38.47C122.288 37.7646 123.022 37.276 123.856 37.1119C124.689 36.9477 125.554 37.1214 126.259 37.5947L142.218 48.302C142.924 48.7752 143.412 49.5094 143.577 50.3429C143.741 51.1764 143.567 52.0409 143.094 52.7463L137.74 60.7259C137.267 61.4313 136.533 61.9199 135.699 62.084C134.866 62.2482 134.001 62.0745 133.296 61.6012L117.337 50.8939ZM137.319 52.7294C136.967 52.4927 136.534 52.4059 136.118 52.488C135.701 52.57 135.334 52.8143 135.097 53.167C134.861 53.5197 134.774 53.952 134.856 54.3688C134.938 54.7855 135.182 55.1526 135.535 55.3892C135.888 55.6259 136.32 55.7127 136.737 55.6306C137.153 55.5486 137.52 55.3043 137.757 54.9516C137.994 54.5989 138.081 54.1666 137.998 53.7498C137.916 53.3331 137.672 52.966 137.319 52.7294Z" fill="#C4C4C4"/>
</g>
<circle cx="106.931" cy="120.339" r="13.2177" fill="white" stroke="#C4C4C4" stroke-dasharray="2 2"/>
<path d="M107.228 116.062H108.428V126.562H107.048V117.562L104.813 118.222L104.468 117.022L107.228 116.062Z" fill="#C4C4C4"/>
<path d="M113.943 176.595C114.943 177.125 115.443 177.955 115.443 179.085C115.443 180.025 115.088 180.785 114.378 181.365C113.668 181.945 112.753 182.235 111.633 182.235C109.683 182.235 108.378 181.41 107.718 179.76L109.503 178.755C109.823 179.775 110.533 180.285 111.633 180.285C112.203 180.285 112.638 180.165 112.938 179.925C113.238 179.685 113.388 179.36 113.388 178.95C113.388 178.54 113.238 178.215 112.938 177.975C112.648 177.735 112.228 177.615 111.678 177.615H110.373V175.77H111.363C111.883 175.77 112.288 175.66 112.578 175.44C112.868 175.21 113.013 174.9 113.013 174.51C113.013 174.12 112.888 173.815 112.638 173.595C112.388 173.365 112.018 173.25 111.528 173.25C110.628 173.25 109.998 173.69 109.638 174.57L107.883 173.55C108.593 172.06 109.808 171.315 111.528 171.315C112.568 171.315 113.418 171.595 114.078 172.155C114.738 172.715 115.068 173.455 115.068 174.375C115.068 175.315 114.693 176.055 113.943 176.595ZM122.396 174.525H124.331V182.025H122.396V181.14C121.816 181.87 121.001 182.235 119.951 182.235C118.951 182.235 118.091 181.855 117.371 181.095C116.661 180.325 116.306 179.385 116.306 178.275C116.306 177.165 116.661 176.23 117.371 175.47C118.091 174.7 118.951 174.315 119.951 174.315C121.001 174.315 121.816 174.68 122.396 175.41V174.525ZM118.826 179.805C119.216 180.195 119.711 180.39 120.311 180.39C120.911 180.39 121.406 180.195 121.796 179.805C122.196 179.405 122.396 178.895 122.396 178.275C122.396 177.655 122.196 177.15 121.796 176.76C121.406 176.36 120.911 176.16 120.311 176.16C119.711 176.16 119.216 176.36 118.826 176.76C118.436 177.15 118.241 177.655 118.241 178.275C118.241 178.895 118.436 179.405 118.826 179.805ZM133.886 174.525V182.025H132.011V177.645L130.106 180.645H129.866L127.946 177.615V182.025H126.086V174.525H127.991L129.986 177.675L131.981 174.525H133.886ZM142.041 181.095C141.271 181.855 140.331 182.235 139.221 182.235C138.111 182.235 137.171 181.855 136.401 181.095C135.641 180.325 135.261 179.385 135.261 178.275C135.261 177.165 135.641 176.23 136.401 175.47C137.171 174.7 138.111 174.315 139.221 174.315C140.331 174.315 141.271 174.7 142.041 175.47C142.811 176.23 143.196 177.165 143.196 178.275C143.196 179.385 142.811 180.325 142.041 181.095ZM137.766 179.76C138.156 180.15 138.641 180.345 139.221 180.345C139.801 180.345 140.286 180.15 140.676 179.76C141.066 179.37 141.261 178.875 141.261 178.275C141.261 177.675 141.066 177.18 140.676 176.79C140.286 176.4 139.801 176.205 139.221 176.205C138.641 176.205 138.156 176.4 137.766 176.79C137.386 177.18 137.196 177.675 137.196 178.275C137.196 178.875 137.386 179.37 137.766 179.76ZM149.958 178.185C150.658 178.525 151.008 179.095 151.008 179.895C151.008 180.525 150.788 181.04 150.348 181.44C149.918 181.83 149.303 182.025 148.503 182.025H144.558V174.525H148.203C148.993 174.525 149.603 174.72 150.033 175.11C150.473 175.5 150.693 176.01 150.693 176.64C150.693 177.3 150.448 177.815 149.958 178.185ZM148.023 176.115H146.373V177.465H148.023C148.573 177.465 148.848 177.24 148.848 176.79C148.848 176.34 148.573 176.115 148.023 176.115ZM148.278 180.39C148.838 180.39 149.118 180.15 149.118 179.67C149.118 179.46 149.043 179.295 148.893 179.175C148.743 179.055 148.538 178.995 148.278 178.995H146.373V180.39H148.278ZM158.58 174.525V182.025H156.645V176.385H154.575V178.89C154.575 181.21 153.52 182.255 151.41 182.025V180.21C151.81 180.31 152.115 180.245 152.325 180.015C152.535 179.775 152.64 179.365 152.64 178.785V174.525H158.58ZM166.349 174.525V182.025H164.459V179.685H163.784L162.059 182.025H159.824L161.699 179.46C161.219 179.26 160.834 178.945 160.544 178.515C160.264 178.075 160.124 177.605 160.124 177.105C160.124 176.405 160.374 175.8 160.874 175.29C161.374 174.78 162.029 174.525 162.839 174.525H166.349ZM162.989 176.25C162.709 176.25 162.474 176.335 162.284 176.505C162.104 176.665 162.014 176.885 162.014 177.165C162.014 177.435 162.104 177.65 162.284 177.81C162.474 177.97 162.709 178.05 162.989 178.05H164.459V176.25H162.989ZM173.452 179.34L175.087 180.285C174.787 180.875 174.332 181.35 173.722 181.71C173.112 182.06 172.422 182.235 171.652 182.235C170.502 182.235 169.557 181.87 168.817 181.14C168.087 180.4 167.722 179.445 167.722 178.275C167.722 177.105 168.087 176.155 168.817 175.425C169.557 174.685 170.497 174.315 171.637 174.315C172.397 174.315 173.077 174.49 173.677 174.84C174.287 175.19 174.752 175.66 175.072 176.25L173.437 177.195C173.107 176.515 172.502 176.175 171.622 176.175C171.202 176.175 170.827 176.29 170.497 176.52C170.177 176.74 169.942 177.035 169.792 177.405H172.342V179.145H169.792C169.942 179.515 170.177 179.815 170.497 180.045C170.827 180.265 171.202 180.375 171.622 180.375C172.072 180.375 172.457 180.28 172.777 180.09C173.097 179.9 173.322 179.65 173.452 179.34ZM181.976 174.525V176.385H179.636V182.025H177.701V176.385H175.331V174.525H181.976ZM184.352 179.07C184.612 180.01 185.317 180.48 186.467 180.48C187.207 180.48 187.767 180.23 188.147 179.73L189.707 180.63C188.967 181.7 187.877 182.235 186.437 182.235C185.197 182.235 184.202 181.86 183.452 181.11C182.702 180.36 182.327 179.415 182.327 178.275C182.327 177.145 182.697 176.205 183.437 175.455C184.177 174.695 185.127 174.315 186.287 174.315C187.387 174.315 188.292 174.695 189.002 175.455C189.722 176.215 190.082 177.155 190.082 178.275C190.082 178.525 190.057 178.79 190.007 179.07H184.352ZM184.322 177.57H188.147C188.037 177.06 187.807 176.68 187.457 176.43C187.117 176.18 186.727 176.055 186.287 176.055C185.767 176.055 185.337 176.19 184.997 176.46C184.657 176.72 184.432 177.09 184.322 177.57ZM200.883 174.525H202.818V182.025H200.883V181.14C200.303 181.87 199.488 182.235 198.438 182.235C197.438 182.235 196.578 181.855 195.858 181.095C195.148 180.325 194.793 179.385 194.793 178.275C194.793 177.165 195.148 176.23 195.858 175.47C196.578 174.7 197.438 174.315 198.438 174.315C199.488 174.315 200.303 174.68 200.883 175.41V174.525ZM197.313 179.805C197.703 180.195 198.198 180.39 198.798 180.39C199.398 180.39 199.893 180.195 200.283 179.805C200.683 179.405 200.883 178.895 200.883 178.275C200.883 177.655 200.683 177.15 200.283 176.76C199.893 176.36 199.398 176.16 198.798 176.16C198.198 176.16 197.703 176.36 197.313 176.76C196.923 177.15 196.728 177.655 196.728 178.275C196.728 178.895 196.923 179.405 197.313 179.805ZM209.972 178.185C210.672 178.525 211.022 179.095 211.022 179.895C211.022 180.525 210.802 181.04 210.362 181.44C209.932 181.83 209.317 182.025 208.517 182.025H204.572V174.525H208.217C209.007 174.525 209.617 174.72 210.047 175.11C210.487 175.5 210.707 176.01 210.707 176.64C210.707 177.3 210.462 177.815 209.972 178.185ZM208.037 176.115H206.387V177.465H208.037C208.587 177.465 208.862 177.24 208.862 176.79C208.862 176.34 208.587 176.115 208.037 176.115ZM208.292 180.39C208.852 180.39 209.132 180.15 209.132 179.67C209.132 179.46 209.057 179.295 208.907 179.175C208.757 179.055 208.552 178.995 208.292 178.995H206.387V180.39H208.292ZM217.953 174.525V176.385H215.613V182.025H213.678V176.385H211.308V174.525H217.953ZM225.083 181.095C224.313 181.855 223.373 182.235 222.263 182.235C221.153 182.235 220.213 181.855 219.443 181.095C218.683 180.325 218.303 179.385 218.303 178.275C218.303 177.165 218.683 176.23 219.443 175.47C220.213 174.7 221.153 174.315 222.263 174.315C223.373 174.315 224.313 174.7 225.083 175.47C225.853 176.23 226.238 177.165 226.238 178.275C226.238 179.385 225.853 180.325 225.083 181.095ZM220.808 179.76C221.198 180.15 221.683 180.345 222.263 180.345C222.843 180.345 223.328 180.15 223.718 179.76C224.108 179.37 224.303 178.875 224.303 178.275C224.303 177.675 224.108 177.18 223.718 176.79C223.328 176.4 222.843 176.205 222.263 176.205C221.683 176.205 221.198 176.4 220.808 176.79C220.428 177.18 220.238 177.675 220.238 178.275C220.238 178.875 220.428 179.37 220.808 179.76ZM235.4 174.525V182.025H233.525V177.645L231.62 180.645H231.38L229.46 177.615V182.025H227.6V174.525H229.505L231.5 177.675L233.495 174.525H235.4ZM243.555 181.095C242.785 181.855 241.845 182.235 240.735 182.235C239.625 182.235 238.685 181.855 237.915 181.095C237.155 180.325 236.775 179.385 236.775 178.275C236.775 177.165 237.155 176.23 237.915 175.47C238.685 174.7 239.625 174.315 240.735 174.315C241.845 174.315 242.785 174.7 243.555 175.47C244.325 176.23 244.71 177.165 244.71 178.275C244.71 179.385 244.325 180.325 243.555 181.095ZM239.28 179.76C239.67 180.15 240.155 180.345 240.735 180.345C241.315 180.345 241.8 180.15 242.19 179.76C242.58 179.37 242.775 178.875 242.775 178.275C242.775 177.675 242.58 177.18 242.19 176.79C241.8 176.4 241.315 176.205 240.735 176.205C240.155 176.205 239.67 176.4 239.28 176.79C238.9 177.18 238.71 177.675 238.71 178.275C238.71 178.875 238.9 179.37 239.28 179.76ZM249.626 182.235C248.446 182.235 247.491 181.855 246.761 181.095C246.041 180.335 245.681 179.37 245.681 178.2C245.681 176.92 245.871 175.935 246.251 175.245C246.631 174.545 247.396 173.91 248.546 173.34C248.716 173.26 248.956 173.15 249.266 173.01C249.576 172.86 249.786 172.755 249.896 172.695C250.016 172.635 250.176 172.545 250.376 172.425C250.576 172.305 250.716 172.2 250.796 172.11C250.886 172.01 250.981 171.885 251.081 171.735C251.181 171.585 251.261 171.42 251.321 171.24L252.911 172.155C252.781 172.765 252.486 173.24 252.026 173.58C251.576 173.91 250.896 174.25 249.986 174.6C249.346 174.85 248.881 175.1 248.591 175.35C248.301 175.6 248.091 175.9 247.961 176.25C248.521 175.68 249.271 175.395 250.211 175.395C251.041 175.395 251.781 175.7 252.431 176.31C253.081 176.91 253.406 177.71 253.406 178.71C253.406 179.74 253.056 180.585 252.356 181.245C251.666 181.905 250.756 182.235 249.626 182.235ZM248.246 179.955C248.616 180.295 249.071 180.465 249.611 180.465C250.151 180.465 250.596 180.3 250.946 179.97C251.296 179.64 251.471 179.22 251.471 178.71C251.471 178.2 251.296 177.78 250.946 177.45C250.596 177.11 250.146 176.94 249.596 176.94C249.106 176.94 248.666 177.095 248.276 177.405C247.896 177.715 247.706 178.13 247.706 178.65C247.706 179.18 247.886 179.615 248.246 179.955ZM255.542 173.625C255.222 173.625 254.942 173.51 254.702 173.28C254.472 173.04 254.357 172.76 254.357 172.44C254.357 172.12 254.472 171.84 254.702 171.6C254.942 171.36 255.222 171.24 255.542 171.24C255.872 171.24 256.152 171.36 256.382 171.6C256.622 171.84 256.742 172.12 256.742 172.44C256.742 172.76 256.622 173.04 256.382 173.28C256.152 173.51 255.872 173.625 255.542 173.625ZM254.582 182.025V174.525H256.517V182.025H254.582ZM264.723 174.525V182.025H262.788V176.385H260.718V178.89C260.718 181.21 259.663 182.255 257.553 182.025V180.21C257.953 180.31 258.258 180.245 258.468 180.015C258.678 179.775 258.783 179.365 258.783 178.785V174.525H264.723ZM269.866 176.925C270.716 176.925 271.401 177.16 271.921 177.63C272.441 178.09 272.701 178.705 272.701 179.475C272.701 180.245 272.441 180.865 271.921 181.335C271.401 181.795 270.716 182.025 269.866 182.025H266.476V174.525H268.411V176.925H269.866ZM269.881 180.315C270.151 180.315 270.371 180.24 270.541 180.09C270.721 179.93 270.811 179.725 270.811 179.475C270.811 179.225 270.721 179.02 270.541 178.86C270.371 178.7 270.151 178.62 269.881 178.62H268.411V180.315H269.881Z" fill="#404040"/>
<path d="M158.743 35.3189C158.743 35.3189 157.221 35.8587 156.681 34.3371C156.142 32.8155 156.044 27.711 163.652 25.0119C171.26 22.3129 174.401 26.3379 174.941 27.8595C175.48 29.3811 173.959 29.9209 173.959 29.9209L158.743 35.3189ZM163.112 23.4904C164.323 23.0609 165.313 22.168 165.866 21.0083C166.418 19.8485 166.487 18.5168 166.057 17.3062C165.628 16.0955 164.735 15.1051 163.575 14.5527C162.416 14.0003 161.084 13.9313 159.873 14.3608C158.663 14.7903 157.672 15.6831 157.12 16.8429C156.567 18.0026 156.498 19.3343 156.928 20.545C157.357 21.7556 158.25 22.7461 159.41 23.2985C160.57 23.8508 161.901 23.9198 163.112 23.4904V23.4904Z" fill="#C4C4C4"/>
<g filter="url(#filter3_d_703_5)">
<path d="M810 152.901C810 132.521 826.521 116 846.901 116V116C867.28 116 883.801 132.521 883.801 152.901V154.019C883.801 174.399 867.28 190.92 846.901 190.92V190.92C826.521 190.92 810 174.399 810 154.019V152.901Z" fill="white"/>
</g>
<path fill-rule="evenodd" clip-rule="evenodd" d="M836.172 137.406C836.172 136.914 841.245 133.475 846.283 133.475C851.32 133.475 856.393 136.916 856.393 137.406C856.393 139.159 856.207 140.197 856.049 140.762C855.945 141.133 855.598 141.338 855.212 141.338H837.353C836.968 141.338 836.62 141.133 836.516 140.762C836.359 140.197 836.172 139.159 836.172 137.406ZM844.598 136.845C844.3 136.845 844.014 136.963 843.803 137.174C843.593 137.384 843.474 137.67 843.474 137.968C843.474 138.266 843.593 138.552 843.803 138.762C844.014 138.973 844.3 139.092 844.598 139.092H847.968C848.266 139.092 848.551 138.973 848.762 138.762C848.973 138.552 849.091 138.266 849.091 137.968C849.091 137.67 848.973 137.384 848.762 137.174C848.551 136.963 848.266 136.845 847.968 136.845H844.598ZM837.338 148.323C833.597 147.166 834.541 145.099 835.968 143.585H856.91C858.051 145.043 858.663 147.01 855.213 148.187C855.354 149.439 855.231 150.706 854.851 151.907C854.47 153.107 853.842 154.215 853.007 155.157C852.171 156.099 851.147 156.855 850 157.376C848.853 157.897 847.61 158.171 846.351 158.181C845.091 158.19 843.844 157.935 842.69 157.431C841.535 156.928 840.5 156.187 839.65 155.258C838.8 154.328 838.155 153.23 837.757 152.036C837.359 150.841 837.216 149.576 837.338 148.322V148.323ZM845.977 149.202C848.945 149.202 851.246 149.045 853.009 148.771C853.067 149.686 852.938 150.605 852.628 151.469C852.319 152.333 851.836 153.124 851.21 153.795C850.584 154.466 849.827 155.002 848.987 155.37C848.146 155.739 847.239 155.931 846.321 155.936C845.404 155.942 844.495 155.76 843.65 155.401C842.805 155.043 842.042 154.515 841.408 153.852C840.774 153.188 840.283 152.402 839.963 151.542C839.644 150.681 839.504 149.765 839.551 148.848C841.195 149.075 843.301 149.202 845.977 149.202V149.202ZM855.738 165.603C854.722 164.018 853.323 162.714 851.671 161.811C850.019 160.908 848.166 160.435 846.283 160.436C844.399 160.434 842.545 160.907 840.892 161.811C839.239 162.714 837.84 164.019 836.824 165.605C836.447 165.025 835.867 164.604 835.198 164.426L833.028 163.845C832.308 163.652 831.542 163.753 830.897 164.125C830.252 164.498 829.781 165.111 829.588 165.83L828.716 169.086C828.621 169.442 828.596 169.814 828.645 170.179C828.693 170.545 828.812 170.898 828.997 171.217C829.181 171.536 829.427 171.816 829.72 172.041C830.012 172.265 830.346 172.43 830.702 172.525L832.872 173.107C833.237 173.206 833.618 173.229 833.992 173.176C834.366 173.123 834.725 172.995 835.049 172.8C835.05 173.098 835.169 173.383 835.38 173.593C835.592 173.803 835.878 173.92 836.176 173.92C836.473 173.919 836.759 173.799 836.969 173.588C837.179 173.377 837.296 173.091 837.296 172.793V171.669C837.296 171.241 837.326 170.82 837.383 170.408L843.229 171.975C843.501 172.556 843.932 173.047 844.473 173.392C845.014 173.736 845.641 173.919 846.283 173.919C846.924 173.919 847.552 173.736 848.092 173.392C848.633 173.047 849.065 172.556 849.336 171.975L855.182 170.408C855.239 170.82 855.27 171.241 855.27 171.669V172.793C855.268 173.091 855.385 173.377 855.595 173.589C855.804 173.801 856.089 173.92 856.387 173.922C856.685 173.923 856.972 173.806 857.183 173.597C857.395 173.387 857.515 173.102 857.516 172.804C858.145 173.182 858.923 173.313 859.688 173.107L861.858 172.527C862.215 172.431 862.549 172.267 862.841 172.042C863.134 171.817 863.379 171.538 863.564 171.218C863.748 170.899 863.868 170.546 863.916 170.18C863.964 169.815 863.94 169.443 863.844 169.087L862.972 165.831C862.779 165.112 862.308 164.499 861.663 164.126C861.018 163.754 860.251 163.653 859.532 163.846L857.361 164.427C856.694 164.605 856.115 165.023 855.738 165.602V165.603ZM837.973 168.24C838.58 166.772 839.564 165.491 840.827 164.527C842.089 163.564 843.584 162.951 845.159 162.752V167.368C844.656 167.547 844.202 167.842 843.835 168.23C843.468 168.618 843.198 169.088 843.047 169.6L837.973 168.241V168.24ZM854.592 168.24C853.985 166.772 853.001 165.491 851.739 164.528C850.476 163.564 848.982 162.951 847.406 162.752V167.368C848.422 167.728 849.215 168.559 849.518 169.6L854.592 168.241V168.24ZM846.283 171.669C846.581 171.669 846.866 171.551 847.077 171.34C847.288 171.13 847.406 170.844 847.406 170.546C847.406 170.248 847.288 169.962 847.077 169.752C846.866 169.541 846.581 169.423 846.283 169.423C845.985 169.423 845.699 169.541 845.488 169.752C845.278 169.962 845.159 170.248 845.159 170.546C845.159 170.844 845.278 171.13 845.488 171.34C845.699 171.551 845.985 171.669 846.283 171.669Z" fill="#FFD500"/>
<g clip-path="url(#clip7_703_5)">
<path d="M1159.36 57.2599C1159.73 58.1715 1160.45 58.8996 1161.35 59.2842C1162.25 59.6688 1163.27 59.6784 1164.19 59.3108C1165.1 58.9431 1165.83 58.2285 1166.21 57.324C1166.6 56.4195 1166.6 55.3992 1166.24 54.4877C1165.87 53.5762 1165.15 52.848 1164.25 52.4634C1163.35 52.0788 1162.33 52.0693 1161.41 52.4369C1160.5 52.8045 1159.77 53.5192 1159.39 54.4237C1159 55.3282 1159 56.3484 1159.36 57.2599V57.2599Z" fill="#E7E7E7"/>
<path d="M1164.13 39.3532C1164.59 39.1694 1165.1 39.1742 1165.55 39.3665C1166 39.5588 1166.36 39.9229 1166.54 40.3786L1176.24 64.4372C1176.43 64.8929 1176.42 65.403 1176.23 65.8553C1176.04 66.3075 1175.67 66.6649 1175.22 66.8487L1161.47 72.3931C1161.01 72.5769 1160.5 72.5721 1160.05 72.3798C1159.6 72.1875 1159.24 71.8234 1159.06 71.3677L1149.36 47.3091C1149.17 46.8534 1149.18 46.3433 1149.37 45.891C1149.56 45.4388 1149.93 45.0814 1150.38 44.8976L1164.13 39.3532ZM1166.21 44.5086C1165.3 44.8762 1164.28 44.8667 1163.37 44.4821C1162.47 44.0975 1161.75 43.3693 1161.39 42.4578L1154.51 45.23C1154.88 46.1415 1154.87 47.1618 1154.49 48.0662C1154.1 48.9707 1153.37 49.6854 1152.46 50.053L1159.39 67.2377C1160.3 66.8701 1161.32 66.8796 1162.23 67.2642C1163.13 67.6488 1163.85 68.377 1164.21 69.2885L1171.09 66.5163C1170.72 65.6048 1170.73 64.5845 1171.11 63.6801C1171.5 62.7756 1172.23 62.0609 1173.14 61.6933L1166.21 44.5086Z" fill="#E7E7E7"/>
</g>
<defs>
<filter id="filter0_d_703_5" x="443" y="91" width="113.609" height="114.725" filterUnits="userSpaceOnUse" color-interpolation-filters="sRGB">
<feFlood flood-opacity="0" result="BackgroundImageFix"/>
<feColorMatrix in="SourceAlpha" type="matrix" values="0 0 0 0 0 0 0 0 0 0 0 0 0 0 0 0 0 0 127 0" result="hardAlpha"/>
<feOffset dy="4"/>
<feGaussianBlur stdDeviation="10"/>
<feComposite in2="hardAlpha" operator="out"/>
<feColorMatrix type="matrix" values="0 0 0 0 0.0627451 0 0 0 0 0.0627451 0 0 0 0 0.0627451 0 0 0 0.1 0"/>
<feBlend mode="normal" in2="BackgroundImageFix" result="effect1_dropShadow_703_5"/>
<feBlend mode="normal" in="SourceGraphic" in2="effect1_dropShadow_703_5" result="shape"/>
</filter>
<filter id="filter1_d_703_5" x="1045" y="19" width="114" height="115.121" filterUnits="userSpaceOnUse" color-interpolation-filters="sRGB">
<feFlood flood-opacity="0" result="BackgroundImageFix"/>
<feColorMatrix in="SourceAlpha" type="matrix" values="0 0 0 0 0 0 0 0 0 0 0 0 0 0 0 0 0 0 127 0" result="hardAlpha"/>
<feOffset dy="4"/>
<feGaussianBlur stdDeviation="10"/>
<feComposite in2="hardAlpha" operator="out"/>
<feColorMatrix type="matrix" values="0 0 0 0 0.0627451 0 0 0 0 0.0627451 0 0 0 0 0.0627451 0 0 0 0.1 0"/>
<feBlend mode="normal" in2="BackgroundImageFix" result="effect1_dropShadow_703_5"/>
<feBlend mode="normal" in="SourceGraphic" in2="effect1_dropShadow_703_5" result="shape"/>
</filter>
<filter id="filter2_d_703_5" x="130" y="34.002" width="112.115" height="115" filterUnits="userSpaceOnUse" color-interpolation-filters="sRGB">
<feFlood flood-opacity="0" result="BackgroundImageFix"/>
<feColorMatrix in="SourceAlpha" type="matrix" values="0 0 0 0 0 0 0 0 0 0 0 0 0 0 0 0 0 0 127 0" result="hardAlpha"/>
<feOffset dy="4"/>
<feGaussianBlur stdDeviation="10"/>
<feComposite in2="hardAlpha" operator="out"/>
<feColorMatrix type="matrix" values="0 0 0 0 0.0627451 0 0 0 0 0.0627451 0 0 0 0 0.0627451 0 0 0 0.1 0"/>
<feBlend mode="normal" in2="BackgroundImageFix" result="effect1_dropShadow_703_5"/>
<feBlend mode="normal" in="SourceGraphic" in2="effect1_dropShadow_703_5" result="shape"/>
</filter>
<filter id="filter3_d_703_5" x="790" y="100" width="113.801" height="114.92" filterUnits="userSpaceOnUse" color-interpolation-filters="sRGB">
<feFlood flood-opacity="0" result="BackgroundImageFix"/>
<feColorMatrix in="SourceAlpha" type="matrix" values="0 0 0 0 0 0 0 0 0 0 0 0 0 0 0 0 0 0 127 0" result="hardAlpha"/>
<feOffset dy="4"/>
<feGaussianBlur stdDeviation="10"/>
<feComposite in2="hardAlpha" operator="out"/>
<feColorMatrix type="matrix" values="0 0 0 0 0.0627451 0 0 0 0 0.0627451 0 0 0 0 0.0627451 0 0 0 0.1 0"/>
<feBlend mode="normal" in2="BackgroundImageFix" result="effect1_dropShadow_703_5"/>
<feBlend mode="normal" in="SourceGraphic" in2="effect1_dropShadow_703_5" result="shape"/>
</filter>
<clipPath id="clip0_703_5">
<rect width="20.9032" height="22.1071" fill="white" transform="translate(783.674 118.365) rotate(-49.9199)"/>
</clipPath>
<clipPath id="clip1_703_5">
<rect width="20.9032" height="22.1071" fill="white" transform="translate(479 74.0664) rotate(-9.60096)"/>
</clipPath>
<clipPath id="clip2_703_5">
<rect width="25.8321" height="25.8321" fill="white" transform="translate(524.692 67) rotate(20.399)"/>
</clipPath>
<clipPath id="clip3_703_5">
<rect width="20.9032" height="22.1071" fill="white" transform="translate(1071 7.06641) rotate(-9.60096)"/>
</clipPath>
<clipPath id="clip4_703_5">
<rect width="25.8321" height="25.8321" fill="white" transform="translate(1116.69) rotate(20.399)"/>
</clipPath>
<clipPath id="clip5_703_5">
<rect width="36.0577" height="36.5385" fill="white" transform="translate(168.491 69.2324)"/>
</clipPath>
<clipPath id="clip6_703_5">
<rect width="25.6242" height="25.6242" fill="white" transform="translate(112 53.0996) rotate(-56.1415)"/>
</clipPath>
<clipPath id="clip7_703_5">
<rect width="29.6473" height="29.6473" fill="white" transform="translate(1171 36.5801) rotate(68.0359)"/>
</clipPath>
</defs>
</svg>
