<svg width="18" height="18" viewBox="0 0 18 18" fill="none" xmlns="http://www.w3.org/2000/svg">
<path fill-rule="evenodd" clip-rule="evenodd" d="M4.5 0C3.30653 0 2.16193 0.474106 1.31802 1.31802C0.474106 2.16193 0 3.30653 0 4.5V13.5C0 14.6935 0.474106 15.8381 1.31802 16.682C2.16193 17.5259 3.30653 18 4.5 18H13.5C14.6935 18 15.8381 17.5259 16.682 16.682C17.5259 15.8381 18 14.6935 18 13.5V4.5C18 3.30653 17.5259 2.16193 16.682 1.31802C15.8381 0.474106 14.6935 0 13.5 0H4.5ZM12.357 7.8156C12.4378 7.72932 12.5009 7.62796 12.5426 7.51732C12.5842 7.40667 12.6037 7.2889 12.5999 7.17073C12.596 7.05255 12.5689 6.9363 12.5202 6.82859C12.4714 6.72089 12.4019 6.62384 12.3156 6.543C12.2293 6.46216 12.128 6.3991 12.0173 6.35743C11.9067 6.31576 11.7889 6.29629 11.6707 6.30014C11.5526 6.30398 11.4363 6.33106 11.3286 6.37984C11.2209 6.42861 11.1238 6.49812 11.043 6.5844L8.2683 9.5454L6.8976 8.3277C6.71801 8.17841 6.48743 8.10477 6.25455 8.12234C6.02167 8.13991 5.80474 8.24731 5.64959 8.42186C5.49444 8.59641 5.41321 8.82443 5.42306 9.05776C5.43291 9.29109 5.53308 9.51145 5.7024 9.6723L7.7274 11.4723C7.90262 11.6279 8.13164 11.7091 8.36576 11.6985C8.59989 11.6879 8.82065 11.5864 8.9811 11.4156L12.3561 7.8156H12.357Z" fill="#00BF13"/>
</svg>
