<svg width="78" height="78" viewBox="0 0 78 78" fill="none" xmlns="http://www.w3.org/2000/svg">
<g clip-path="url(#clip0_2_63)">
<path d="M42.0339 14.9602L23.994 20.6554C22.8407 21.0209 21.8044 21.6845 20.99 22.5791C20.1755 23.4737 19.6117 24.5675 19.3556 25.7499L15.3732 44.2426C15.3578 44.3157 15.3617 44.3915 15.3847 44.4626C15.4076 44.5337 15.4487 44.5975 15.5039 44.6478C15.5592 44.6981 15.6266 44.7331 15.6995 44.7493C15.7724 44.7655 15.8483 44.7623 15.9196 44.7401L37.6254 38.0141C37.6984 37.9915 37.7641 37.9498 37.8156 37.8932C37.867 37.8367 37.9025 37.7674 37.9181 37.6926L42.5818 15.4561C42.597 15.383 42.5928 15.3071 42.5697 15.2361C42.5466 15.1651 42.5053 15.1014 42.4499 15.0513C42.3945 15.0011 42.327 14.9664 42.254 14.9504C42.1811 14.9344 42.1052 14.9378 42.0339 14.9602ZM30.4957 31.2331C29.5403 32.2824 28.1982 32.6175 27.4981 31.9801C26.7981 31.3427 27.0062 29.9751 27.9615 28.9258C28.9169 27.8765 30.259 27.5414 30.9591 28.1788C31.6591 28.8162 31.4511 30.1838 30.4957 31.2331ZM38.6068 41.2251L16.8401 48.0578C16.7685 48.0806 16.7041 48.1219 16.6535 48.1775C16.6029 48.233 16.5678 48.301 16.5517 48.3744C16.5356 48.4478 16.5392 48.5242 16.5619 48.5958C16.5847 48.6674 16.6259 48.7318 16.6815 48.7825L30.4547 61.3226C31.1194 61.9256 31.9304 62.3441 32.807 62.5364C33.6836 62.7288 34.5953 62.6883 35.4514 62.4189L54.8436 56.5876C54.9152 56.5647 54.9795 56.5235 55.0302 56.4679C55.0808 56.4123 55.1159 56.3444 55.1319 56.271C55.148 56.1976 55.1445 56.1212 55.1217 56.0496C55.0989 55.978 55.0577 55.9136 55.0022 55.8629L39.025 41.3162C38.9694 41.2657 38.9015 41.2306 38.8281 41.2147C38.7547 41.1987 38.6784 41.2023 38.6068 41.2251ZM36.0649 59.4782C35.4276 60.1782 34.06 59.9702 33.0107 59.0148C31.9614 58.0594 31.6263 56.7173 32.2637 56.0172C32.9011 55.3172 34.2686 55.5253 35.318 56.4806C36.3673 57.436 36.7023 58.7781 36.0649 59.4782ZM40.4526 49.5684C39.8152 50.2684 38.4477 50.0603 37.3984 49.105C36.3491 48.1496 36.014 46.8075 36.6514 46.1074C37.2888 45.4074 38.6563 45.6154 39.7057 46.5708C40.755 47.5262 41.09 48.8683 40.4526 49.5684ZM45.972 16.066L41.2619 38.4282C41.2459 38.5014 41.2494 38.5776 41.272 38.649C41.2947 38.7205 41.3356 38.7847 41.3909 38.8354L57.3079 53.3273C57.3635 53.3778 57.4315 53.4129 57.5049 53.4288C57.5784 53.4448 57.6547 53.4412 57.7263 53.4183C57.7979 53.3955 57.8622 53.3542 57.9128 53.2986C57.9634 53.243 57.9985 53.175 58.0145 53.1016L62.0061 33.2499C62.1943 32.3727 62.1496 31.4614 61.8766 30.6068C61.6035 29.7521 61.1115 28.9838 60.4495 28.3783L46.681 15.8425C46.6255 15.7913 46.5576 15.7557 46.4839 15.7393C46.4103 15.7228 46.3337 15.7261 46.2617 15.7488C46.1898 15.7715 46.1251 15.8127 46.0742 15.8684C46.0233 15.9241 45.9881 15.9923 45.972 16.066ZM56.6508 45.7767C56.0134 46.4768 54.6458 46.2687 53.5965 45.3133C52.5472 44.3579 52.2121 43.0158 52.8495 42.3158C53.4869 41.6157 54.8545 41.8238 55.9038 42.7791C56.9531 43.7345 57.2882 45.0766 56.6508 45.7767ZM49.6818 39.4316C49.0444 40.1317 47.6768 39.9236 46.6275 38.9683C45.5782 38.0129 45.2431 36.6708 45.8805 35.9707C46.5179 35.2706 47.8855 35.4787 48.9348 36.4341C49.9841 37.3894 50.3192 38.7316 49.6818 39.4316ZM59.1379 34.1364C58.5005 34.8365 57.1329 34.6284 56.0836 33.673C55.0343 32.7177 54.6992 31.3755 55.3366 30.6755C55.974 29.9754 57.3416 30.1835 58.3909 31.1388C59.4402 32.0942 59.7752 33.4363 59.1379 34.1364ZM52.1689 27.7913C51.5315 28.4914 50.1639 28.2833 49.1146 27.328C48.0653 26.3726 47.7302 25.0305 48.3676 24.3304C49.005 23.6303 50.3726 23.8384 51.4219 24.7938C52.4712 25.7491 52.8063 27.0913 52.1689 27.7913Z" fill="#3D86F5"/>
</g>
<defs>
<clipPath id="clip0_2_63">
<rect width="54.8351" height="54.8351" fill="white" transform="translate(0 40.5469) rotate(-47.6831)"/>
</clipPath>
</defs>
</svg>
