<svg width="12" height="6" viewBox="0 0 12 6" fill="none" xmlns="http://www.w3.org/2000/svg">
<path d="M6.37383 5.8583L11.8574 0.766689C11.9489 0.681733 12 0.568863 12 0.451489C12 0.334116 11.9489 0.221247 11.8574 0.136291L11.8512 0.130809C11.8068 0.0894813 11.7534 0.0565729 11.6942 0.0340852C11.635 0.0115976 11.5712 9.1619e-07 11.5068 9.10557e-07C11.4424 9.04924e-07 11.3786 0.0115976 11.3194 0.0340852C11.2602 0.0565728 11.2068 0.0894813 11.1624 0.130809L5.99897 4.92549L0.837607 0.130808C0.793229 0.0894804 0.739811 0.0565719 0.680605 0.0340843C0.621398 0.0115966 0.557639 -4.66487e-08 0.493207 -5.22816e-08C0.428773 -5.79145e-08 0.365015 0.0115966 0.305808 0.0340843C0.246601 0.0565719 0.193183 0.0894803 0.148806 0.130808L0.142609 0.13629C0.0510669 0.221246 -4.58347e-07 0.334115 -4.68608e-07 0.451488C-4.78869e-07 0.568862 0.0510669 0.681732 0.142609 0.766688L5.62617 5.8583C5.67439 5.90308 5.73239 5.93872 5.79665 5.96308C5.86091 5.98744 5.93009 6 6 6C6.06991 6 6.13909 5.98744 6.20335 5.96308C6.26761 5.93872 6.32561 5.90308 6.37383 5.8583Z" fill="white"/>
</svg>
