<svg width="14" height="14" viewBox="0 0 14 14" fill="none" xmlns="http://www.w3.org/2000/svg">
<path d="M6.99995 3.85205C6.16501 3.85205 5.36427 4.18373 4.77388 4.77412C4.18349 5.36451 3.85181 6.16526 3.85181 7.0002C3.85181 7.83514 4.18349 8.63588 4.77388 9.22628C5.36427 9.81667 6.16501 10.1483 6.99995 10.1483C7.8349 10.1483 8.63564 9.81667 9.22603 9.22628C9.81642 8.63588 10.1481 7.83514 10.1481 7.0002C10.1481 6.16526 9.81642 5.36451 9.22603 4.77412C8.63564 4.18373 7.8349 3.85205 6.99995 3.85205Z" fill="#3D86F5"/>
<path fill-rule="evenodd" clip-rule="evenodd" d="M6.9999 0.0742188C7.16689 0.0742188 7.32704 0.140555 7.44512 0.258633C7.56319 0.376711 7.62953 0.53686 7.62953 0.703848V1.33348C7.62953 1.50047 7.56319 1.66061 7.44512 1.77869C7.32704 1.89677 7.16689 1.96311 6.9999 1.96311C6.83291 1.96311 6.67276 1.89677 6.55469 1.77869C6.43661 1.66061 6.37027 1.50047 6.37027 1.33348V0.703848C6.37027 0.53686 6.43661 0.376711 6.55469 0.258633C6.67276 0.140555 6.83291 0.0742188 6.9999 0.0742188ZM1.51772 1.51796C1.63579 1.39992 1.79591 1.33361 1.96286 1.33361C2.12982 1.33361 2.28994 1.39992 2.40801 1.51796L3.35246 2.4624C3.46715 2.58115 3.53061 2.7402 3.52918 2.90529C3.52774 3.07037 3.46152 3.22829 3.34479 3.34503C3.22805 3.46177 3.07013 3.52799 2.90504 3.52942C2.73996 3.53086 2.58091 3.46739 2.46216 3.3527L1.51772 2.40826C1.39968 2.29018 1.33337 2.13006 1.33337 1.96311C1.33337 1.79615 1.39968 1.63603 1.51772 1.51796ZM12.4821 1.51796C12.6001 1.63603 12.6664 1.79615 12.6664 1.96311C12.6664 2.13006 12.6001 2.29018 12.4821 2.40826L11.5376 3.3527C11.4796 3.41284 11.4101 3.4608 11.3333 3.4938C11.2564 3.5268 11.1738 3.54417 11.0902 3.54489C11.0066 3.54562 10.9237 3.52969 10.8463 3.49803C10.769 3.46637 10.6987 3.41962 10.6395 3.3605C10.5804 3.30139 10.5337 3.23109 10.502 3.15371C10.4704 3.07633 10.4544 2.99342 10.4551 2.90982C10.4559 2.82622 10.4732 2.7436 10.5062 2.66678C10.5392 2.58996 10.5872 2.52049 10.6473 2.4624L11.5918 1.51796C11.7099 1.39992 11.87 1.33361 12.0369 1.33361C12.2039 1.33361 12.364 1.39992 12.4821 1.51796ZM0.0739746 7.00014C0.0739746 6.83316 0.14031 6.67301 0.258389 6.55493C0.376467 6.43685 0.536616 6.37051 0.703604 6.37051H1.33323C1.50022 6.37051 1.66037 6.43685 1.77845 6.55493C1.89653 6.67301 1.96286 6.83316 1.96286 7.00014C1.96286 7.16713 1.89653 7.32728 1.77845 7.44536C1.66037 7.56344 1.50022 7.62977 1.33323 7.62977H0.703604C0.536616 7.62977 0.376467 7.56344 0.258389 7.44536C0.14031 7.32728 0.0739746 7.16713 0.0739746 7.00014ZM12.0369 7.00014C12.0369 6.83316 12.1033 6.67301 12.2214 6.55493C12.3394 6.43685 12.4996 6.37051 12.6666 6.37051H13.2962C13.4632 6.37051 13.6233 6.43685 13.7414 6.55493C13.8595 6.67301 13.9258 6.83316 13.9258 7.00014C13.9258 7.16713 13.8595 7.32728 13.7414 7.44536C13.6233 7.56344 13.4632 7.62977 13.2962 7.62977H12.6666C12.4996 7.62977 12.3394 7.56344 12.2214 7.44536C12.1033 7.32728 12.0369 7.16713 12.0369 7.00014ZM3.35246 10.6476C3.47049 10.7657 3.5368 10.9258 3.5368 11.0927C3.5368 11.2597 3.47049 11.4198 3.35246 11.5379L2.40801 12.4823C2.28926 12.597 2.13022 12.6605 1.96513 12.6591C1.80004 12.6576 1.64212 12.5914 1.52539 12.4747C1.40865 12.3579 1.34243 12.2 1.34099 12.0349C1.33956 11.8698 1.40302 11.7108 1.51772 11.592L2.46216 10.6476C2.58023 10.5296 2.74035 10.4632 2.90731 10.4632C3.07426 10.4632 3.23438 10.5296 3.35246 10.6476ZM10.6473 10.6476C10.7654 10.5296 10.9255 10.4632 11.0925 10.4632C11.2594 10.4632 11.4196 10.5296 11.5376 10.6476L12.4821 11.592C12.5968 11.7108 12.6602 11.8698 12.6588 12.0349C12.6574 12.2 12.5912 12.3579 12.4744 12.4747C12.3577 12.5914 12.1998 12.6576 12.0347 12.6591C11.8696 12.6605 11.7105 12.597 11.5918 12.4823L10.6473 11.5379C10.5293 11.4198 10.463 11.2597 10.463 11.0927C10.463 10.9258 10.5293 10.7657 10.6473 10.6476ZM6.9999 12.0372C7.16689 12.0372 7.32704 12.1035 7.44512 12.2216C7.56319 12.3397 7.62953 12.4998 7.62953 12.6668V13.2964C7.62953 13.4634 7.56319 13.6236 7.44512 13.7417C7.32704 13.8597 7.16689 13.9261 6.9999 13.9261C6.83291 13.9261 6.67276 13.8597 6.55469 13.7417C6.43661 13.6236 6.37027 13.4634 6.37027 13.2964V12.6668C6.37027 12.4998 6.43661 12.3397 6.55469 12.2216C6.67276 12.1035 6.83291 12.0372 6.9999 12.0372Z" fill="#3D86F5"/>
</svg>
