<svg width="22" height="25" viewBox="0 0 22 25" fill="none" xmlns="http://www.w3.org/2000/svg">
<g clip-path="url(#clip0_389_39)">
<path d="M10.5625 3C8.55753 3.00237 6.63536 3.79989 5.21763 5.21762C3.79989 6.63535 3.00237 8.55753 3.00001 10.5625C2.99761 12.201 3.53281 13.795 4.52351 15.1C4.52351 15.1 4.72976 15.3716 4.76345 15.4108L10.5625 22.25L16.3643 15.4073C16.3946 15.3709 16.6015 15.1 16.6015 15.1L16.6022 15.0979C17.5924 13.7935 18.1274 12.2002 18.125 10.5625C18.1226 8.55753 17.3251 6.63535 15.9074 5.21762C14.4897 3.79989 12.5675 3.00237 10.5625 3V3ZM10.5625 13.3125C10.0186 13.3125 9.48693 13.1512 9.03469 12.849C8.58245 12.5469 8.22998 12.1174 8.02184 11.6149C7.8137 11.1124 7.75924 10.5594 7.86535 10.026C7.97146 9.49255 8.23337 9.00255 8.61796 8.61796C9.00256 8.23336 9.49256 7.97145 10.026 7.86534C10.5595 7.75923 11.1124 7.81369 11.6149 8.02183C12.1174 8.22997 12.5469 8.58245 12.849 9.03468C13.1512 9.48692 13.3125 10.0186 13.3125 10.5625C13.3116 11.2916 13.0216 11.9905 12.506 12.506C11.9905 13.0216 11.2916 13.3116 10.5625 13.3125V13.3125Z" fill="#3D86F5"/>
</g>
<defs>
<clipPath id="clip0_389_39">
<rect width="22" height="24.1849" fill="white" transform="translate(0 0.0375977)"/>
</clipPath>
</defs>
</svg>
