<svg width="23" height="25" viewBox="0 0 23 25" fill="none" xmlns="http://www.w3.org/2000/svg">
<g clip-path="url(#clip0_756_1520)">
<path d="M11.0427 3.0625C8.94662 3.06495 6.93707 3.88934 5.4549 5.35485C3.97273 6.82037 3.13896 8.80732 3.13648 10.8799C3.13397 12.5736 3.6935 14.2213 4.72923 15.5703C4.72923 15.5703 4.94486 15.851 4.98008 15.8915L11.0427 22.9613L17.1083 15.888C17.1399 15.8503 17.3562 15.5703 17.3562 15.5703L17.357 15.5682C18.3922 14.2197 18.9514 12.5728 18.949 10.8799C18.9465 8.80732 18.1127 6.82037 16.6306 5.35485C15.1484 3.88934 13.1388 3.06495 11.0427 3.0625ZM11.0427 13.7225C10.4741 13.7225 9.91826 13.5558 9.44547 13.2435C8.97268 12.9311 8.60418 12.4871 8.38658 11.9677C8.16898 11.4483 8.11204 10.8767 8.22297 10.3253C8.33391 9.77386 8.60772 9.26735 9.0098 8.86979C9.41188 8.47223 9.92415 8.2015 10.4818 8.09181C11.0395 7.98212 11.6176 8.03842 12.1429 8.25357C12.6683 8.46873 13.1173 8.83308 13.4332 9.30056C13.7491 9.76804 13.9177 10.3176 13.9177 10.8799C13.9168 11.6335 13.6136 12.356 13.0746 12.8889C12.5357 13.4218 11.8049 13.7216 11.0427 13.7225Z" fill="#E7E7E7"/>
</g>
<defs>
<clipPath id="clip0_756_1520">
<rect width="23" height="25" fill="white"/>
</clipPath>
</defs>
</svg>
