<svg width="43" height="43" viewBox="0 0 43 43" fill="none" xmlns="http://www.w3.org/2000/svg">
<path d="M21.5 43C33.3741 43 43 33.3741 43 21.5C43 9.62591 33.3741 0 21.5 0C9.62591 0 0 9.62591 0 21.5C0 33.3741 9.62591 43 21.5 43Z" fill="white"/>
<path d="M32.2494 21.4996C32.2494 25.4577 29.0407 28.6663 25.0827 28.6663C21.1247 28.6663 17.916 25.4577 17.916 21.4996C17.916 17.5416 21.1247 14.333 25.0827 14.333C29.0407 14.333 32.2494 17.5416 32.2494 21.4996Z" fill="#F79F1A"/>
<path d="M24.1868 21.4996C24.1868 25.4577 20.9783 28.6663 17.0202 28.6663C13.0621 28.6663 9.85352 25.4577 9.85352 21.4996C9.85352 17.5416 13.0621 14.333 17.0202 14.333C20.9783 14.333 24.1868 17.5416 24.1868 21.4996Z" fill="#EA001B"/>
<path d="M21.4948 15.3174C19.6351 16.7792 18.4414 19.0509 18.4414 21.6027C18.4414 24.1545 19.6351 26.4279 21.4948 27.8897C23.3543 26.4279 24.5481 24.1545 24.5481 21.6027C24.5481 19.0509 23.3543 16.7792 21.4948 15.3174Z" fill="#FF5F01"/>
<rect x="0.5" y="8.5625" width="42" height="25.875" rx="4.5" stroke="#E0E0E0"/>
</svg>
