<svg width="17" height="15" viewBox="0 0 17 15" fill="none" xmlns="http://www.w3.org/2000/svg">
<path d="M6.39961 2.2499C6.39961 1.69295 6.62086 1.1588 7.01469 0.764978C7.40851 0.371152 7.94265 0.149902 8.49961 0.149902C9.05656 0.149902 9.59071 0.371152 9.98453 0.764978C10.3784 1.1588 10.5996 1.69295 10.5996 2.2499V3.0794C13.6362 3.9824 15.8496 6.79535 15.8496 10.1249C15.8496 10.2641 15.7943 10.3977 15.6958 10.4961C15.5974 10.5946 15.4638 10.6499 15.3246 10.6499H1.67461C1.53537 10.6499 1.40183 10.5946 1.30338 10.4961C1.20492 10.3977 1.14961 10.2641 1.14961 10.1249C1.14971 8.54187 1.66068 7.00114 2.60656 5.73177C3.55244 4.4624 4.88271 3.53218 6.39961 3.0794V2.2499ZM9.02461 5.9249C9.46771 5.9249 9.90661 5.9291 10.356 6.0908C10.7897 6.2462 11.2695 6.56435 11.7378 7.2668C11.7761 7.32416 11.8253 7.37343 11.8826 7.41178C11.9399 7.45013 12.0042 7.47682 12.0718 7.49032C12.1394 7.50383 12.209 7.50388 12.2766 7.49048C12.3443 7.47708 12.4086 7.45049 12.466 7.41223C12.5233 7.37396 12.5726 7.32478 12.611 7.26747C12.6493 7.21017 12.676 7.14588 12.6895 7.07826C12.703 7.01064 12.7031 6.94103 12.6897 6.87339C12.6763 6.80575 12.6497 6.74141 12.6114 6.68405C12.0287 5.81045 11.3724 5.34005 10.7109 5.10275C10.0799 4.8749 9.47611 4.8749 9.04561 4.8749H9.02461C8.88537 4.8749 8.75183 4.93021 8.65338 5.02867C8.55492 5.12713 8.49961 5.26066 8.49961 5.3999C8.49961 5.53914 8.55492 5.67268 8.65338 5.77113C8.75183 5.86959 8.88537 5.9249 9.02461 5.9249ZM1.67461 11.6999C1.25689 11.6999 0.856286 11.8658 0.560916 12.1612C0.265546 12.4566 0.0996094 12.8572 0.0996094 13.2749C0.0996094 13.6926 0.265546 14.0932 0.560916 14.3886C0.856286 14.684 1.25689 14.8499 1.67461 14.8499H15.3246C15.7423 14.8499 16.1429 14.684 16.4383 14.3886C16.7337 14.0932 16.8996 13.6926 16.8996 13.2749C16.8996 12.8572 16.7337 12.4566 16.4383 12.1612C16.1429 11.8658 15.7423 11.6999 15.3246 11.6999H1.67461Z" fill="#FFD500"/>
</svg>
