<svg width="30" height="30" viewBox="0 0 30 30" fill="none" xmlns="http://www.w3.org/2000/svg">
<path d="M15.1848 0.15625C7.15599 0.15625 0.624054 6.68819 0.624054 14.717V20.7495C0.624054 22.2405 1.93015 23.4534 3.5362 23.4534H4.99227C5.37844 23.4534 5.7488 23.3 6.02187 23.0269C6.29493 22.7539 6.44834 22.3835 6.44834 21.9973V14.5088C6.44834 14.1226 6.29493 13.7522 6.02187 13.4792C5.7488 13.2061 5.37844 13.0527 4.99227 13.0527H3.67016C4.47973 7.41768 9.32845 3.06839 15.1848 3.06839C21.0411 3.06839 25.8898 7.41768 26.6994 13.0527H25.3773C24.9911 13.0527 24.6207 13.2061 24.3477 13.4792C24.0746 13.7522 23.9212 14.1226 23.9212 14.5088V23.4534C23.9212 25.0595 22.6151 26.3655 21.0091 26.3655H18.0969V24.9095H12.2726V29.2777H21.0091C24.2212 29.2777 26.8334 26.6655 26.8334 23.4534C28.4394 23.4534 29.7455 22.2405 29.7455 20.7495V14.717C29.7455 6.68819 23.2136 0.15625 15.1848 0.15625Z" fill="#FFD500"/>
</svg>
