<svg width="59" height="52" viewBox="0 0 59 52" fill="none" xmlns="http://www.w3.org/2000/svg">
<path d="M1.27148 24.16C1.31459 24.2462 1.33614 24.354 1.35769 24.4402C2.11202 26.423 3.21118 28.4705 4.59051 30.561C6.78883 33.8369 9.82768 37.2637 13.5993 40.7552C19.8279 46.5096 26.0133 50.4967 26.272 50.6476L27.8668 51.6606C28.578 52.1131 29.4832 52.1131 30.1945 51.6606L31.7893 50.6476C32.0479 50.4752 38.2118 46.5096 44.462 40.7552C48.2336 37.2853 51.2509 33.8585 53.4708 30.561C54.5699 28.923 55.4751 27.3066 56.1648 25.7118C39.2248 13.8365 20.2589 28.1256 1.27148 24.16Z" fill="#FFD500"/>
<path d="M58.0615 17.5003C58.0615 15.1296 57.5873 12.8235 56.6606 10.6468C55.7554 8.5562 54.4623 6.68116 52.8459 5.0863C51.2294 3.49145 49.3113 2.21987 47.1992 1.35778C45.0009 0.452595 42.6517 0 40.3025 0C36.9835 0 33.7507 0.90519 30.9489 2.62936C30.2808 3.03885 29.6342 3.49145 29.0307 3.98715C28.4273 3.49145 27.7807 3.03885 27.1126 2.62936C24.3108 0.90519 21.078 0 17.759 0C15.3667 0 13.0606 0.452595 10.8838 1.35778C8.77172 2.24142 6.87513 3.49145 5.23717 5.0863C3.59921 6.68116 2.30608 8.57775 1.40089 10.6683C0.474147 12.8235 0 15.1296 0 17.5003C0 19.6556 0.431043 21.8754 1.27158 24.1599C20.259 28.1255 39.2249 13.8365 56.1649 25.7117C56.3588 25.2807 56.5313 24.8496 56.7037 24.4401C57.6089 22.0694 58.0615 19.7418 58.0615 17.5003Z" fill="#3D86F5"/>
</svg>
