<svg width="22" height="26" viewBox="0 0 22 26" fill="none" xmlns="http://www.w3.org/2000/svg">
<path d="M9.8124 7.25725V2.84375C9.8124 2.08954 9.51279 1.36622 8.97948 0.832915C8.44618 0.299608 7.72286 0 6.96865 0C6.21444 0 5.49112 0.299608 4.95781 0.832915C4.42451 1.36622 4.1249 2.08954 4.1249 2.84375V11.5212L2.1749 11.9113C1.57719 12.0311 1.04608 12.3705 0.686307 12.8627C0.32654 13.3548 0.164233 13.9639 0.231399 14.5697L0.792024 19.617C0.864121 20.2622 1.0898 20.8807 1.45015 21.4207L3.77877 24.9145C4.00134 25.2484 4.3029 25.5222 4.65668 25.7115C5.01045 25.9009 5.40551 26 5.80677 26H16.1824C16.612 25.9999 17.034 25.8862 17.4056 25.6704C17.7771 25.4547 18.085 25.1446 18.2981 24.7715L20.565 20.8049C20.9613 20.1115 21.2072 19.3424 21.2865 18.5477L21.7269 14.1359C21.7721 13.6841 21.7221 13.2278 21.5801 12.7965C21.4382 12.3652 21.2075 11.9684 20.9028 11.6318C20.5981 11.2951 20.2263 11.026 19.8113 10.8418C19.3962 10.6577 18.9472 10.5625 18.4931 10.5625H17.549C17.4476 10.4249 17.3419 10.2905 17.2321 10.1595C16.9218 9.78737 16.4034 9.2365 15.8021 8.996C15.2106 8.75875 14.4274 8.7815 13.9204 8.8205L13.7059 8.84C13.5329 8.39714 13.2112 8.0283 12.7959 7.79675C12.422 7.58114 12.0177 7.42335 11.5966 7.32875C11.0929 7.228 10.3958 7.2345 9.8904 7.254L9.8124 7.25725Z" fill="#FFE14A"/>
</svg>
