<svg width="13" height="17" viewBox="0 0 13 17" fill="none" xmlns="http://www.w3.org/2000/svg">
<g clip-path="url(#clip0_601_1023)">
<path fill-rule="evenodd" clip-rule="evenodd" d="M2.31094 9.18896H3.15792V1.52873C3.15833 1.1234 3.33939 0.734771 3.66135 0.448158C3.98331 0.161546 4.41987 0.000366319 4.87519 0L5.64447 0C6.09845 0.00219226 6.53301 0.164177 6.8533 0.450593C7.17358 0.737008 7.35357 1.12459 7.35397 1.52873V9.18896H8.20717C8.3645 9.18933 8.51526 9.24513 8.6265 9.34416C8.73775 9.44319 8.80043 9.5774 8.80084 9.71745V12.4C8.80043 12.54 8.73775 12.6742 8.6265 12.7733C8.51526 12.8723 8.3645 12.9281 8.20717 12.9285H7.36174V15.4713C7.3593 15.8742 7.1784 16.26 6.85834 16.5449C6.53827 16.8299 6.10487 16.9909 5.65224 16.9931H4.87519C4.42256 16.9909 3.98916 16.8299 3.6691 16.5449C3.34903 16.26 3.16814 15.8742 3.16569 15.4713V12.9285H2.31094C2.15376 12.9281 2.00316 12.8723 1.89216 12.7732C1.78116 12.6741 1.71883 12.5399 1.71883 12.4V12.1523H0.901375C0.78326 12.1523 0.666321 12.1315 0.557252 12.0911C0.448183 12.0507 0.349126 11.9916 0.26575 11.9172C0.181736 11.8431 0.115004 11.755 0.0693961 11.6579C0.0237878 11.5608 0.000203341 11.4566 0 11.3513L0 10.7661C3.41695e-05 10.6612 0.0233957 10.5573 0.0687388 10.4604C0.114082 10.3635 0.18051 10.2756 0.264196 10.2017C0.347241 10.126 0.446319 10.0658 0.555693 10.0245C0.665066 9.98315 0.782562 9.96155 0.901375 9.96094H1.71883V9.71745C1.71883 9.57753 1.78116 9.44331 1.89216 9.34424C2.00316 9.24517 2.15376 9.18933 2.31094 9.18896ZM3.86503 9.18896H4.73377V6.07756C4.73377 5.4716 5.78589 5.4716 5.78589 6.07756V9.18896H6.65152V1.52873C6.6507 1.29119 6.54434 1.06359 6.35566 0.895623C6.16698 0.727658 5.91131 0.632973 5.64447 0.632243H4.87519C4.60861 0.633694 4.35341 0.728611 4.1649 0.896421C3.97639 1.06423 3.86977 1.29141 3.86814 1.52873V9.18896H3.86503ZM6.64842 12.9243H3.86814V15.4671C3.86977 15.7044 3.97639 15.9316 4.1649 16.0994C4.35341 16.2672 4.60861 16.3622 4.87519 16.3636H5.64447C5.91131 16.3629 6.16698 16.2682 6.35566 16.1002C6.54434 15.9323 6.6507 15.7047 6.65152 15.4671V12.9285L6.64842 12.9243ZM8.56928 2.44043V1.95207H9.68667V2.44043H8.56928ZM10.8445 3.11556V0.760905H12.0054C12.0968 0.761284 12.188 0.770093 12.2773 0.787191C12.3733 0.805677 12.4631 0.843545 12.54 0.897868C12.6327 0.964531 12.7032 1.05258 12.7436 1.15243C12.7985 1.29756 12.8233 1.4504 12.8166 1.60343C12.8213 1.75864 12.7966 1.91345 12.7436 2.06136C12.7073 2.1608 12.6431 2.25033 12.5571 2.32145C12.4865 2.37773 12.4018 2.41806 12.31 2.43905C12.2248 2.45918 12.137 2.46941 12.0489 2.46948C12.0038 2.46948 11.9572 2.46948 11.9075 2.46257C11.8577 2.45565 11.8111 2.45288 11.766 2.44596L11.6371 2.42383L11.5392 2.40584V3.11556H10.8445ZM11.536 1.91748H11.9354C11.9764 1.91955 12.0166 1.90712 12.0473 1.88289C12.0774 1.85399 12.0974 1.81795 12.1048 1.77913C12.1158 1.72341 12.121 1.66692 12.1204 1.61035C12.122 1.55491 12.1152 1.49954 12.1002 1.44572C12.0912 1.40789 12.0708 1.37296 12.0411 1.34473C12.0269 1.33314 12.0103 1.32423 11.9921 1.31852C11.9739 1.31282 11.9547 1.31044 11.9354 1.31152H11.536V1.91748ZM8.56928 6.89795V6.40405H9.68667V6.89242L8.56928 6.89795ZM10.8445 7.56755V5.21566H11.9743C12.0825 5.21515 12.1903 5.22819 12.2944 5.25439C12.3895 5.27797 12.4766 5.32218 12.5478 5.38306C12.6241 5.45051 12.6807 5.53365 12.7125 5.62516C12.7561 5.74907 12.776 5.8786 12.7715 6.00838C12.7726 6.09251 12.7633 6.1765 12.7436 6.25879C12.7282 6.32216 12.7025 6.3832 12.6674 6.44002C12.6377 6.48768 12.5988 6.5303 12.5524 6.56592C12.5092 6.59943 12.4623 6.62908 12.4126 6.65446L12.871 7.56755H12.1701L11.8002 6.75684H11.536V7.56755H10.8445ZM11.536 6.26847H11.8469C11.8808 6.26872 11.9145 6.26357 11.9463 6.25326C11.9745 6.24362 11.9996 6.22794 12.0194 6.2076C12.0405 6.18415 12.0554 6.1567 12.0629 6.12736C12.0742 6.08853 12.0795 6.04849 12.0784 6.00838C12.0796 5.96872 12.0743 5.92912 12.0629 5.89079C12.0561 5.86288 12.0411 5.83709 12.0194 5.81608C11.9989 5.79783 11.9738 5.7841 11.9463 5.77596C11.9141 5.76729 11.8805 5.76309 11.8469 5.76351H11.536V6.26847ZM10.8305 12.0195V9.66764H11.3791L12.3115 10.9806V9.66349H13.0031V12.0154H12.4514L11.5189 10.7025V12.0154L10.8305 12.0195ZM10.8445 16.4715V14.1113H12.0132C12.1745 14.1071 12.3345 14.1379 12.4794 14.2013C12.6001 14.2606 12.701 14.3475 12.7715 14.453C12.8487 14.569 12.9013 14.6965 12.927 14.8293C12.9564 14.9815 12.9709 15.1356 12.9705 15.29C12.9785 15.5183 12.9427 15.7462 12.8648 15.9638C12.8119 16.118 12.7025 16.2519 12.554 16.3442C12.3925 16.4309 12.2062 16.4737 12.0178 16.4674L10.8445 16.4715ZM11.536 15.9181H11.9417C11.9789 15.9204 12.0163 15.9159 12.0515 15.905C12.0868 15.8941 12.1192 15.8769 12.1468 15.8545C12.2033 15.7986 12.2391 15.7285 12.2494 15.6539C12.2723 15.5346 12.2827 15.4138 12.2805 15.2928C12.2825 15.1813 12.2747 15.0698 12.2571 14.9594C12.2487 14.8928 12.2254 14.8284 12.1888 14.7699C12.1654 14.7321 12.1281 14.7027 12.0831 14.6868C12.0377 14.6725 11.9898 14.6654 11.9417 14.6661H11.536V15.9112V15.9181ZM8.56928 15.795V15.3066H9.68667V15.795H8.56928ZM1.71883 11.6045V10.5143H0.901375C0.826296 10.5142 0.754231 10.5406 0.700897 10.5876C0.649048 10.6355 0.620556 10.6996 0.621638 10.7661V11.3513C0.621513 11.3844 0.628723 11.4172 0.642857 11.4479C0.65699 11.4785 0.677769 11.5063 0.704005 11.5298C0.730132 11.5535 0.76133 11.5723 0.795761 11.5852C0.830191 11.598 0.867158 11.6046 0.904483 11.6045H1.71883Z" fill="#FFD500"/>
<rect x="3" width="4" height="17" rx="2" fill="#FFD500"/>
</g>
<defs>
<clipPath id="clip0_601_1023">
<rect width="13" height="17" fill="white"/>
</clipPath>
</defs>
</svg>
