<svg width="17" height="17" viewBox="0 0 17 17" fill="none" xmlns="http://www.w3.org/2000/svg">
<path d="M11.9 4.2502H13.6V16.1502H3.4V4.2502H5.1V3.4002C5.1 2.94933 5.27911 2.51693 5.59792 2.19811C5.91673 1.8793 6.34913 1.7002 6.8 1.7002H10.2C10.6509 1.7002 11.0833 1.8793 11.4021 2.19811C11.7209 2.51693 11.9 2.94933 11.9 3.4002V4.2502ZM14.45 4.2502H15.3C15.7509 4.2502 16.1833 4.4293 16.5021 4.74811C16.8209 5.06693 17 5.49933 17 5.9502V14.4502C17 14.9011 16.8209 15.3335 16.5021 15.6523C16.1833 15.9711 15.7509 16.1502 15.3 16.1502H14.45V4.2502ZM2.55 4.2502V16.1502H1.7C1.24913 16.1502 0.81673 15.9711 0.497919 15.6523C0.179107 15.3335 0 14.9011 0 14.4502V5.9502C0 5.0152 0.765 4.2502 1.7 4.2502H2.55ZM6.8 3.4002V4.2502H10.2V3.4002H6.8Z" fill="#FFD500"/>
</svg>
