<svg width="19" height="21" viewBox="0 0 19 21" fill="none" xmlns="http://www.w3.org/2000/svg">
<path d="M8.15 1.38739L1.4 6.44989C0.8375 6.87739 0.5 7.54114 0.5 8.24989V18.3749C0.5 19.6124 1.5125 20.6249 2.75 20.6249H16.25C17.4875 20.6249 18.5 19.6124 18.5 18.3749V8.24989C18.5 7.54114 18.1625 6.87739 17.6 6.44989L10.85 1.38739C10.4598 1.09701 9.98639 0.940186 9.5 0.940186C9.01361 0.940186 8.54019 1.09701 8.15 1.38739V1.38739ZM6.96875 11.0624C7.34171 11.0624 7.6994 11.2106 7.96312 11.4743C8.22684 11.738 8.375 12.0957 8.375 12.4686C8.375 12.8416 8.22684 13.1993 7.96312 13.463C7.6994 13.7267 7.34171 13.8749 6.96875 13.8749C6.59579 13.8749 6.2381 13.7267 5.97438 13.463C5.71066 13.1993 5.5625 12.8416 5.5625 12.4686C5.5625 12.0957 5.71066 11.738 5.97438 11.4743C6.2381 11.2106 6.59579 11.0624 6.96875 11.0624ZM14.5625 17.2499C14.2475 17.2499 14 17.0024 14 16.6874V15.5624H5V16.6874C5 17.0024 4.7525 17.2499 4.4375 17.2499C4.1225 17.2499 3.875 17.0024 3.875 16.6874V9.93739C3.875 9.62239 4.1225 9.37489 4.4375 9.37489C4.7525 9.37489 5 9.62239 5 9.93739V14.4374H8.9375V11.0624C8.9375 10.7474 9.185 10.4999 9.5 10.4999H12.875C14.1125 10.4999 15.125 11.5124 15.125 12.7499V16.6874C15.125 17.0024 14.8775 17.2499 14.5625 17.2499Z" fill="#FFD500"/>
</svg>
