<svg width="16" height="16" viewBox="0 0 16 16" fill="none" xmlns="http://www.w3.org/2000/svg">
<path d="M1.73529 15.4309C1.73529 15.4309 0.490234 15.4309 0.490234 14.1858C0.490234 12.9408 1.73529 9.2056 7.96055 9.2056C14.1858 9.2056 15.4309 12.9408 15.4309 14.1858C15.4309 15.4309 14.1858 15.4309 14.1858 15.4309H1.73529ZM7.96055 7.96055C8.95117 7.96055 9.90122 7.56702 10.6017 6.86654C11.3022 6.16607 11.6957 5.21602 11.6957 4.22539C11.6957 3.23477 11.3022 2.28471 10.6017 1.58424C9.90122 0.883759 8.95117 0.490234 7.96055 0.490234C6.96992 0.490234 6.01987 0.883759 5.31939 1.58424C4.61891 2.28471 4.22539 3.23477 4.22539 4.22539C4.22539 5.21602 4.61891 6.16607 5.31939 6.86654C6.01987 7.56702 6.96992 7.96055 7.96055 7.96055Z" fill="#FFD500"/>
</svg>
